G04 #@! TF.GenerationSoftware,KiCad,Pcbnew,7.0.10*
G04 #@! TF.CreationDate,2024-07-17T21:57:28-05:00*
G04 #@! TF.ProjectId,Swarm Robot,53776172-6d20-4526-9f62-6f742e6b6963,rev?*
G04 #@! TF.SameCoordinates,Original*
G04 #@! TF.FileFunction,Legend,Top*
G04 #@! TF.FilePolarity,Positive*
%FSLAX46Y46*%
G04 Gerber Fmt 4.6, Leading zero omitted, Abs format (unit mm)*
G04 Created by KiCad (PCBNEW 7.0.10) date 2024-07-17 21:57:28*
%MOMM*%
%LPD*%
G01*
G04 APERTURE LIST*
G04 Aperture macros list*
%AMRoundRect*
0 Rectangle with rounded corners*
0 $1 Rounding radius*
0 $2 $3 $4 $5 $6 $7 $8 $9 X,Y pos of 4 corners*
0 Add a 4 corners polygon primitive as box body*
4,1,4,$2,$3,$4,$5,$6,$7,$8,$9,$2,$3,0*
0 Add four circle primitives for the rounded corners*
1,1,$1+$1,$2,$3*
1,1,$1+$1,$4,$5*
1,1,$1+$1,$6,$7*
1,1,$1+$1,$8,$9*
0 Add four rect primitives between the rounded corners*
20,1,$1+$1,$2,$3,$4,$5,0*
20,1,$1+$1,$4,$5,$6,$7,0*
20,1,$1+$1,$6,$7,$8,$9,0*
20,1,$1+$1,$8,$9,$2,$3,0*%
%AMHorizOval*
0 Thick line with rounded ends*
0 $1 width*
0 $2 $3 position (X,Y) of the first rounded end (center of the circle)*
0 $4 $5 position (X,Y) of the second rounded end (center of the circle)*
0 Add line between two ends*
20,1,$1,$2,$3,$4,$5,0*
0 Add two circle primitives to create the rounded ends*
1,1,$1,$2,$3*
1,1,$1,$4,$5*%
%AMRotRect*
0 Rectangle, with rotation*
0 The origin of the aperture is its center*
0 $1 length*
0 $2 width*
0 $3 Rotation angle, in degrees counterclockwise*
0 Add horizontal line*
21,1,$1,$2,0,0,$3*%
G04 Aperture macros list end*
%ADD10C,0.150000*%
%ADD11C,0.120000*%
%ADD12C,0.100000*%
%ADD13C,0.254000*%
%ADD14C,0.127000*%
%ADD15C,3.200000*%
%ADD16RoundRect,0.150000X-0.636396X-0.424264X-0.424264X-0.636396X0.636396X0.424264X0.424264X0.636396X0*%
%ADD17RoundRect,0.187500X-0.636396X-0.371231X-0.371231X-0.636396X0.636396X0.371231X0.371231X0.636396X0*%
%ADD18C,0.900000*%
%ADD19RoundRect,0.225000X-0.459619X0.141421X0.141421X-0.459619X0.459619X-0.141421X-0.141421X0.459619X0*%
%ADD20C,2.000000*%
%ADD21RoundRect,0.150000X0.424264X-0.636396X0.636396X-0.424264X-0.424264X0.636396X-0.636396X0.424264X0*%
%ADD22RoundRect,0.187500X0.371231X-0.636396X0.636396X-0.371231X-0.371231X0.636396X-0.636396X0.371231X0*%
%ADD23RoundRect,0.225000X-0.141421X-0.459619X0.459619X0.141421X0.141421X0.459619X-0.459619X-0.141421X0*%
%ADD24R,2.000000X1.000000*%
%ADD25RoundRect,0.087500X0.087500X-0.225000X0.087500X0.225000X-0.087500X0.225000X-0.087500X-0.225000X0*%
%ADD26RoundRect,0.087500X0.225000X-0.087500X0.225000X0.087500X-0.225000X0.087500X-0.225000X-0.087500X0*%
%ADD27RoundRect,0.100000X-0.100000X0.637500X-0.100000X-0.637500X0.100000X-0.637500X0.100000X0.637500X0*%
%ADD28RoundRect,0.375000X0.875000X0.375000X-0.875000X0.375000X-0.875000X-0.375000X0.875000X-0.375000X0*%
%ADD29RoundRect,0.368300X-0.876300X0.368300X-0.876300X-0.368300X0.876300X-0.368300X0.876300X0.368300X0*%
%ADD30RoundRect,0.550800X0.925800X0.550800X-0.925800X0.550800X-0.925800X-0.550800X0.925800X-0.550800X0*%
%ADD31RoundRect,0.135000X0.135000X0.185000X-0.135000X0.185000X-0.135000X-0.185000X0.135000X-0.185000X0*%
%ADD32RoundRect,0.135000X-0.135000X-0.185000X0.135000X-0.185000X0.135000X0.185000X-0.135000X0.185000X0*%
%ADD33RoundRect,0.135000X0.185000X-0.135000X0.185000X0.135000X-0.185000X0.135000X-0.185000X-0.135000X0*%
%ADD34RoundRect,0.135000X-0.226274X-0.035355X-0.035355X-0.226274X0.226274X0.035355X0.035355X0.226274X0*%
%ADD35RoundRect,0.135000X-0.035355X0.226274X-0.226274X0.035355X0.035355X-0.226274X0.226274X-0.035355X0*%
%ADD36RoundRect,0.135000X0.226274X0.035355X0.035355X0.226274X-0.226274X-0.035355X-0.035355X-0.226274X0*%
%ADD37RoundRect,0.135000X0.035355X-0.226274X0.226274X-0.035355X-0.035355X0.226274X-0.226274X0.035355X0*%
%ADD38R,1.700000X1.700000*%
%ADD39O,1.700000X1.700000*%
%ADD40RotRect,1.700000X1.700000X45.000000*%
%ADD41HorizOval,1.700000X0.000000X0.000000X0.000000X0.000000X0*%
%ADD42RoundRect,0.140000X-0.140000X-0.170000X0.140000X-0.170000X0.140000X0.170000X-0.140000X0.170000X0*%
%ADD43RoundRect,0.225000X-0.225000X-0.250000X0.225000X-0.250000X0.225000X0.250000X-0.225000X0.250000X0*%
%ADD44RoundRect,0.140000X-0.170000X0.140000X-0.170000X-0.140000X0.170000X-0.140000X0.170000X0.140000X0*%
%ADD45RoundRect,0.140000X0.140000X0.170000X-0.140000X0.170000X-0.140000X-0.170000X0.140000X-0.170000X0*%
%ADD46RoundRect,0.140000X0.170000X-0.140000X0.170000X0.140000X-0.170000X0.140000X-0.170000X-0.140000X0*%
%ADD47RotRect,1.700000X1.700000X225.000000*%
%ADD48HorizOval,1.700000X0.000000X0.000000X0.000000X0.000000X0*%
%ADD49RoundRect,0.150000X0.636396X0.424264X0.424264X0.636396X-0.636396X-0.424264X-0.424264X-0.636396X0*%
%ADD50RoundRect,0.187500X0.636396X0.371231X0.371231X0.636396X-0.636396X-0.371231X-0.371231X-0.636396X0*%
%ADD51RoundRect,0.225000X0.459619X-0.141421X-0.141421X0.459619X-0.459619X0.141421X0.141421X-0.459619X0*%
%ADD52RoundRect,0.160000X-0.160000X-0.360000X0.160000X-0.360000X0.160000X0.360000X-0.160000X0.360000X0*%
%ADD53RoundRect,0.260000X-0.440000X-0.260000X0.440000X-0.260000X0.440000X0.260000X-0.440000X0.260000X0*%
%ADD54C,3.000000*%
%ADD55RoundRect,0.150000X-0.424264X0.636396X-0.636396X0.424264X0.424264X-0.636396X0.636396X-0.424264X0*%
%ADD56RoundRect,0.187500X-0.371231X0.636396X-0.636396X0.371231X0.371231X-0.636396X0.636396X-0.371231X0*%
%ADD57RoundRect,0.225000X0.141421X0.459619X-0.459619X-0.141421X-0.141421X-0.459619X0.459619X0.141421X0*%
%ADD58RotRect,1.700000X1.700000X315.000000*%
%ADD59HorizOval,1.700000X0.000000X0.000000X0.000000X0.000000X0*%
%ADD60R,1.600000X0.900000*%
%ADD61R,0.250000X0.500000*%
%ADD62RoundRect,0.250000X-0.625000X0.312500X-0.625000X-0.312500X0.625000X-0.312500X0.625000X0.312500X0*%
%ADD63RoundRect,0.150000X-0.512500X-0.150000X0.512500X-0.150000X0.512500X0.150000X-0.512500X0.150000X0*%
%ADD64RoundRect,0.160000X0.160000X0.360000X-0.160000X0.360000X-0.160000X-0.360000X0.160000X-0.360000X0*%
%ADD65RoundRect,0.260000X0.440000X0.260000X-0.440000X0.260000X-0.440000X-0.260000X0.440000X-0.260000X0*%
%ADD66RoundRect,0.250000X-2.500000X0.250000X-2.500000X-0.250000X2.500000X-0.250000X2.500000X0.250000X0*%
%ADD67RoundRect,0.250000X-1.250000X0.550000X-1.250000X-0.550000X1.250000X-0.550000X1.250000X0.550000X0*%
%ADD68C,1.600000*%
%ADD69O,1.600000X1.600000*%
%ADD70RoundRect,0.250000X2.500000X-0.250000X2.500000X0.250000X-2.500000X0.250000X-2.500000X-0.250000X0*%
%ADD71RoundRect,0.250000X1.250000X-0.550000X1.250000X0.550000X-1.250000X0.550000X-1.250000X-0.550000X0*%
G04 APERTURE END LIST*
D10*
X159246666Y-83754819D02*
X158913333Y-83278628D01*
X158675238Y-83754819D02*
X158675238Y-82754819D01*
X158675238Y-82754819D02*
X159056190Y-82754819D01*
X159056190Y-82754819D02*
X159151428Y-82802438D01*
X159151428Y-82802438D02*
X159199047Y-82850057D01*
X159199047Y-82850057D02*
X159246666Y-82945295D01*
X159246666Y-82945295D02*
X159246666Y-83088152D01*
X159246666Y-83088152D02*
X159199047Y-83183390D01*
X159199047Y-83183390D02*
X159151428Y-83231009D01*
X159151428Y-83231009D02*
X159056190Y-83278628D01*
X159056190Y-83278628D02*
X158675238Y-83278628D01*
X159675238Y-83231009D02*
X160008571Y-83231009D01*
X160151428Y-83754819D02*
X159675238Y-83754819D01*
X159675238Y-83754819D02*
X159675238Y-82754819D01*
X159675238Y-82754819D02*
X160151428Y-82754819D01*
X160913333Y-83231009D02*
X160580000Y-83231009D01*
X160580000Y-83754819D02*
X160580000Y-82754819D01*
X160580000Y-82754819D02*
X161056190Y-82754819D01*
X161580000Y-82754819D02*
X161580000Y-82992914D01*
X161341905Y-82897676D02*
X161580000Y-82992914D01*
X161580000Y-82992914D02*
X161818095Y-82897676D01*
X161437143Y-83183390D02*
X161580000Y-82992914D01*
X161580000Y-82992914D02*
X161722857Y-83183390D01*
X162341905Y-82754819D02*
X162341905Y-82992914D01*
X162103810Y-82897676D02*
X162341905Y-82992914D01*
X162341905Y-82992914D02*
X162580000Y-82897676D01*
X162199048Y-83183390D02*
X162341905Y-82992914D01*
X162341905Y-82992914D02*
X162484762Y-83183390D01*
X138096666Y-83754819D02*
X137763333Y-83278628D01*
X137525238Y-83754819D02*
X137525238Y-82754819D01*
X137525238Y-82754819D02*
X137906190Y-82754819D01*
X137906190Y-82754819D02*
X138001428Y-82802438D01*
X138001428Y-82802438D02*
X138049047Y-82850057D01*
X138049047Y-82850057D02*
X138096666Y-82945295D01*
X138096666Y-82945295D02*
X138096666Y-83088152D01*
X138096666Y-83088152D02*
X138049047Y-83183390D01*
X138049047Y-83183390D02*
X138001428Y-83231009D01*
X138001428Y-83231009D02*
X137906190Y-83278628D01*
X137906190Y-83278628D02*
X137525238Y-83278628D01*
X138525238Y-83231009D02*
X138858571Y-83231009D01*
X139001428Y-83754819D02*
X138525238Y-83754819D01*
X138525238Y-83754819D02*
X138525238Y-82754819D01*
X138525238Y-82754819D02*
X139001428Y-82754819D01*
X139763333Y-83231009D02*
X139430000Y-83231009D01*
X139430000Y-83754819D02*
X139430000Y-82754819D01*
X139430000Y-82754819D02*
X139906190Y-82754819D01*
X140430000Y-82754819D02*
X140430000Y-82992914D01*
X140191905Y-82897676D02*
X140430000Y-82992914D01*
X140430000Y-82992914D02*
X140668095Y-82897676D01*
X140287143Y-83183390D02*
X140430000Y-82992914D01*
X140430000Y-82992914D02*
X140572857Y-83183390D01*
X141191905Y-82754819D02*
X141191905Y-82992914D01*
X140953810Y-82897676D02*
X141191905Y-82992914D01*
X141191905Y-82992914D02*
X141430000Y-82897676D01*
X141049048Y-83183390D02*
X141191905Y-82992914D01*
X141191905Y-82992914D02*
X141334762Y-83183390D01*
X122929257Y-111825125D02*
X122996600Y-111959812D01*
X122996600Y-111959812D02*
X123164959Y-112128170D01*
X123164959Y-112128170D02*
X123265974Y-112161842D01*
X123265974Y-112161842D02*
X123333318Y-112161842D01*
X123333318Y-112161842D02*
X123434333Y-112128170D01*
X123434333Y-112128170D02*
X123501677Y-112060827D01*
X123501677Y-112060827D02*
X123535348Y-111959812D01*
X123535348Y-111959812D02*
X123535348Y-111892468D01*
X123535348Y-111892468D02*
X123501677Y-111791453D01*
X123501677Y-111791453D02*
X123400661Y-111623094D01*
X123400661Y-111623094D02*
X123366990Y-111522079D01*
X123366990Y-111522079D02*
X123366990Y-111454735D01*
X123366990Y-111454735D02*
X123400661Y-111353720D01*
X123400661Y-111353720D02*
X123468005Y-111286377D01*
X123468005Y-111286377D02*
X123569020Y-111252705D01*
X123569020Y-111252705D02*
X123636364Y-111252705D01*
X123636364Y-111252705D02*
X123737379Y-111286377D01*
X123737379Y-111286377D02*
X123905738Y-111454735D01*
X123905738Y-111454735D02*
X123973081Y-111589422D01*
X124242455Y-111791453D02*
X123703707Y-112666919D01*
X123703707Y-112666919D02*
X124343471Y-112296529D01*
X124343471Y-112296529D02*
X123973081Y-112936293D01*
X123973081Y-112936293D02*
X124848547Y-112397545D01*
X125050577Y-112599575D02*
X125488310Y-113037308D01*
X125488310Y-113037308D02*
X124983234Y-113070979D01*
X124983234Y-113070979D02*
X125084249Y-113171995D01*
X125084249Y-113171995D02*
X125117921Y-113273010D01*
X125117921Y-113273010D02*
X125117921Y-113340353D01*
X125117921Y-113340353D02*
X125084249Y-113441369D01*
X125084249Y-113441369D02*
X124915890Y-113609727D01*
X124915890Y-113609727D02*
X124814875Y-113643399D01*
X124814875Y-113643399D02*
X124747531Y-113643399D01*
X124747531Y-113643399D02*
X124646516Y-113609727D01*
X124646516Y-113609727D02*
X124444486Y-113407697D01*
X124444486Y-113407697D02*
X124410814Y-113306682D01*
X124410814Y-113306682D02*
X124410814Y-113239338D01*
X143536667Y-87477200D02*
X143679524Y-87524819D01*
X143679524Y-87524819D02*
X143917619Y-87524819D01*
X143917619Y-87524819D02*
X144012857Y-87477200D01*
X144012857Y-87477200D02*
X144060476Y-87429580D01*
X144060476Y-87429580D02*
X144108095Y-87334342D01*
X144108095Y-87334342D02*
X144108095Y-87239104D01*
X144108095Y-87239104D02*
X144060476Y-87143866D01*
X144060476Y-87143866D02*
X144012857Y-87096247D01*
X144012857Y-87096247D02*
X143917619Y-87048628D01*
X143917619Y-87048628D02*
X143727143Y-87001009D01*
X143727143Y-87001009D02*
X143631905Y-86953390D01*
X143631905Y-86953390D02*
X143584286Y-86905771D01*
X143584286Y-86905771D02*
X143536667Y-86810533D01*
X143536667Y-86810533D02*
X143536667Y-86715295D01*
X143536667Y-86715295D02*
X143584286Y-86620057D01*
X143584286Y-86620057D02*
X143631905Y-86572438D01*
X143631905Y-86572438D02*
X143727143Y-86524819D01*
X143727143Y-86524819D02*
X143965238Y-86524819D01*
X143965238Y-86524819D02*
X144108095Y-86572438D01*
X144441429Y-86524819D02*
X144679524Y-87524819D01*
X144679524Y-87524819D02*
X144870000Y-86810533D01*
X144870000Y-86810533D02*
X145060476Y-87524819D01*
X145060476Y-87524819D02*
X145298572Y-86524819D01*
X146155714Y-86524819D02*
X145679524Y-86524819D01*
X145679524Y-86524819D02*
X145631905Y-87001009D01*
X145631905Y-87001009D02*
X145679524Y-86953390D01*
X145679524Y-86953390D02*
X145774762Y-86905771D01*
X145774762Y-86905771D02*
X146012857Y-86905771D01*
X146012857Y-86905771D02*
X146108095Y-86953390D01*
X146108095Y-86953390D02*
X146155714Y-87001009D01*
X146155714Y-87001009D02*
X146203333Y-87096247D01*
X146203333Y-87096247D02*
X146203333Y-87334342D01*
X146203333Y-87334342D02*
X146155714Y-87429580D01*
X146155714Y-87429580D02*
X146108095Y-87477200D01*
X146108095Y-87477200D02*
X146012857Y-87524819D01*
X146012857Y-87524819D02*
X145774762Y-87524819D01*
X145774762Y-87524819D02*
X145679524Y-87477200D01*
X145679524Y-87477200D02*
X145631905Y-87429580D01*
X170655125Y-116620742D02*
X170789812Y-116553399D01*
X170789812Y-116553399D02*
X170958170Y-116385040D01*
X170958170Y-116385040D02*
X170991842Y-116284025D01*
X170991842Y-116284025D02*
X170991842Y-116216681D01*
X170991842Y-116216681D02*
X170958170Y-116115666D01*
X170958170Y-116115666D02*
X170890827Y-116048322D01*
X170890827Y-116048322D02*
X170789812Y-116014651D01*
X170789812Y-116014651D02*
X170722468Y-116014651D01*
X170722468Y-116014651D02*
X170621453Y-116048322D01*
X170621453Y-116048322D02*
X170453094Y-116149338D01*
X170453094Y-116149338D02*
X170352079Y-116183009D01*
X170352079Y-116183009D02*
X170284735Y-116183009D01*
X170284735Y-116183009D02*
X170183720Y-116149338D01*
X170183720Y-116149338D02*
X170116377Y-116081994D01*
X170116377Y-116081994D02*
X170082705Y-115980979D01*
X170082705Y-115980979D02*
X170082705Y-115913635D01*
X170082705Y-115913635D02*
X170116377Y-115812620D01*
X170116377Y-115812620D02*
X170284735Y-115644261D01*
X170284735Y-115644261D02*
X170419422Y-115576918D01*
X170621453Y-115307544D02*
X171496919Y-115846292D01*
X171496919Y-115846292D02*
X171126529Y-115206528D01*
X171126529Y-115206528D02*
X171766293Y-115576918D01*
X171766293Y-115576918D02*
X171227545Y-114701452D01*
X172035666Y-114364735D02*
X172507071Y-114836139D01*
X171597934Y-114263720D02*
X171934651Y-114937155D01*
X171934651Y-114937155D02*
X172372384Y-114499422D01*
X172467200Y-105863332D02*
X172514819Y-105720475D01*
X172514819Y-105720475D02*
X172514819Y-105482380D01*
X172514819Y-105482380D02*
X172467200Y-105387142D01*
X172467200Y-105387142D02*
X172419580Y-105339523D01*
X172419580Y-105339523D02*
X172324342Y-105291904D01*
X172324342Y-105291904D02*
X172229104Y-105291904D01*
X172229104Y-105291904D02*
X172133866Y-105339523D01*
X172133866Y-105339523D02*
X172086247Y-105387142D01*
X172086247Y-105387142D02*
X172038628Y-105482380D01*
X172038628Y-105482380D02*
X171991009Y-105672856D01*
X171991009Y-105672856D02*
X171943390Y-105768094D01*
X171943390Y-105768094D02*
X171895771Y-105815713D01*
X171895771Y-105815713D02*
X171800533Y-105863332D01*
X171800533Y-105863332D02*
X171705295Y-105863332D01*
X171705295Y-105863332D02*
X171610057Y-105815713D01*
X171610057Y-105815713D02*
X171562438Y-105768094D01*
X171562438Y-105768094D02*
X171514819Y-105672856D01*
X171514819Y-105672856D02*
X171514819Y-105434761D01*
X171514819Y-105434761D02*
X171562438Y-105291904D01*
X171514819Y-104958570D02*
X172514819Y-104720475D01*
X172514819Y-104720475D02*
X171800533Y-104529999D01*
X171800533Y-104529999D02*
X172514819Y-104339523D01*
X172514819Y-104339523D02*
X171514819Y-104101428D01*
X171943390Y-103577618D02*
X171895771Y-103672856D01*
X171895771Y-103672856D02*
X171848152Y-103720475D01*
X171848152Y-103720475D02*
X171752914Y-103768094D01*
X171752914Y-103768094D02*
X171705295Y-103768094D01*
X171705295Y-103768094D02*
X171610057Y-103720475D01*
X171610057Y-103720475D02*
X171562438Y-103672856D01*
X171562438Y-103672856D02*
X171514819Y-103577618D01*
X171514819Y-103577618D02*
X171514819Y-103387142D01*
X171514819Y-103387142D02*
X171562438Y-103291904D01*
X171562438Y-103291904D02*
X171610057Y-103244285D01*
X171610057Y-103244285D02*
X171705295Y-103196666D01*
X171705295Y-103196666D02*
X171752914Y-103196666D01*
X171752914Y-103196666D02*
X171848152Y-103244285D01*
X171848152Y-103244285D02*
X171895771Y-103291904D01*
X171895771Y-103291904D02*
X171943390Y-103387142D01*
X171943390Y-103387142D02*
X171943390Y-103577618D01*
X171943390Y-103577618D02*
X171991009Y-103672856D01*
X171991009Y-103672856D02*
X172038628Y-103720475D01*
X172038628Y-103720475D02*
X172133866Y-103768094D01*
X172133866Y-103768094D02*
X172324342Y-103768094D01*
X172324342Y-103768094D02*
X172419580Y-103720475D01*
X172419580Y-103720475D02*
X172467200Y-103672856D01*
X172467200Y-103672856D02*
X172514819Y-103577618D01*
X172514819Y-103577618D02*
X172514819Y-103387142D01*
X172514819Y-103387142D02*
X172467200Y-103291904D01*
X172467200Y-103291904D02*
X172419580Y-103244285D01*
X172419580Y-103244285D02*
X172324342Y-103196666D01*
X172324342Y-103196666D02*
X172133866Y-103196666D01*
X172133866Y-103196666D02*
X172038628Y-103244285D01*
X172038628Y-103244285D02*
X171991009Y-103291904D01*
X171991009Y-103291904D02*
X171943390Y-103387142D01*
X170638095Y-110884819D02*
X170638095Y-111694342D01*
X170638095Y-111694342D02*
X170685714Y-111789580D01*
X170685714Y-111789580D02*
X170733333Y-111837200D01*
X170733333Y-111837200D02*
X170828571Y-111884819D01*
X170828571Y-111884819D02*
X171019047Y-111884819D01*
X171019047Y-111884819D02*
X171114285Y-111837200D01*
X171114285Y-111837200D02*
X171161904Y-111789580D01*
X171161904Y-111789580D02*
X171209523Y-111694342D01*
X171209523Y-111694342D02*
X171209523Y-110884819D01*
X171828571Y-111313390D02*
X171733333Y-111265771D01*
X171733333Y-111265771D02*
X171685714Y-111218152D01*
X171685714Y-111218152D02*
X171638095Y-111122914D01*
X171638095Y-111122914D02*
X171638095Y-111075295D01*
X171638095Y-111075295D02*
X171685714Y-110980057D01*
X171685714Y-110980057D02*
X171733333Y-110932438D01*
X171733333Y-110932438D02*
X171828571Y-110884819D01*
X171828571Y-110884819D02*
X172019047Y-110884819D01*
X172019047Y-110884819D02*
X172114285Y-110932438D01*
X172114285Y-110932438D02*
X172161904Y-110980057D01*
X172161904Y-110980057D02*
X172209523Y-111075295D01*
X172209523Y-111075295D02*
X172209523Y-111122914D01*
X172209523Y-111122914D02*
X172161904Y-111218152D01*
X172161904Y-111218152D02*
X172114285Y-111265771D01*
X172114285Y-111265771D02*
X172019047Y-111313390D01*
X172019047Y-111313390D02*
X171828571Y-111313390D01*
X171828571Y-111313390D02*
X171733333Y-111361009D01*
X171733333Y-111361009D02*
X171685714Y-111408628D01*
X171685714Y-111408628D02*
X171638095Y-111503866D01*
X171638095Y-111503866D02*
X171638095Y-111694342D01*
X171638095Y-111694342D02*
X171685714Y-111789580D01*
X171685714Y-111789580D02*
X171733333Y-111837200D01*
X171733333Y-111837200D02*
X171828571Y-111884819D01*
X171828571Y-111884819D02*
X172019047Y-111884819D01*
X172019047Y-111884819D02*
X172114285Y-111837200D01*
X172114285Y-111837200D02*
X172161904Y-111789580D01*
X172161904Y-111789580D02*
X172209523Y-111694342D01*
X172209523Y-111694342D02*
X172209523Y-111503866D01*
X172209523Y-111503866D02*
X172161904Y-111408628D01*
X172161904Y-111408628D02*
X172114285Y-111361009D01*
X172114285Y-111361009D02*
X172019047Y-111313390D01*
X162721069Y-77748154D02*
X163530592Y-77748154D01*
X163530592Y-77748154D02*
X163625830Y-77700535D01*
X163625830Y-77700535D02*
X163673450Y-77652916D01*
X163673450Y-77652916D02*
X163721069Y-77557678D01*
X163721069Y-77557678D02*
X163721069Y-77367202D01*
X163721069Y-77367202D02*
X163673450Y-77271964D01*
X163673450Y-77271964D02*
X163625830Y-77224345D01*
X163625830Y-77224345D02*
X163530592Y-77176726D01*
X163530592Y-77176726D02*
X162721069Y-77176726D01*
X162721069Y-76271964D02*
X162721069Y-76462440D01*
X162721069Y-76462440D02*
X162768688Y-76557678D01*
X162768688Y-76557678D02*
X162816307Y-76605297D01*
X162816307Y-76605297D02*
X162959164Y-76700535D01*
X162959164Y-76700535D02*
X163149640Y-76748154D01*
X163149640Y-76748154D02*
X163530592Y-76748154D01*
X163530592Y-76748154D02*
X163625830Y-76700535D01*
X163625830Y-76700535D02*
X163673450Y-76652916D01*
X163673450Y-76652916D02*
X163721069Y-76557678D01*
X163721069Y-76557678D02*
X163721069Y-76367202D01*
X163721069Y-76367202D02*
X163673450Y-76271964D01*
X163673450Y-76271964D02*
X163625830Y-76224345D01*
X163625830Y-76224345D02*
X163530592Y-76176726D01*
X163530592Y-76176726D02*
X163292497Y-76176726D01*
X163292497Y-76176726D02*
X163197259Y-76224345D01*
X163197259Y-76224345D02*
X163149640Y-76271964D01*
X163149640Y-76271964D02*
X163102021Y-76367202D01*
X163102021Y-76367202D02*
X163102021Y-76557678D01*
X163102021Y-76557678D02*
X163149640Y-76652916D01*
X163149640Y-76652916D02*
X163197259Y-76700535D01*
X163197259Y-76700535D02*
X163292497Y-76748154D01*
X168457142Y-109594819D02*
X168123809Y-109118628D01*
X167885714Y-109594819D02*
X167885714Y-108594819D01*
X167885714Y-108594819D02*
X168266666Y-108594819D01*
X168266666Y-108594819D02*
X168361904Y-108642438D01*
X168361904Y-108642438D02*
X168409523Y-108690057D01*
X168409523Y-108690057D02*
X168457142Y-108785295D01*
X168457142Y-108785295D02*
X168457142Y-108928152D01*
X168457142Y-108928152D02*
X168409523Y-109023390D01*
X168409523Y-109023390D02*
X168361904Y-109071009D01*
X168361904Y-109071009D02*
X168266666Y-109118628D01*
X168266666Y-109118628D02*
X167885714Y-109118628D01*
X169409523Y-109594819D02*
X168838095Y-109594819D01*
X169123809Y-109594819D02*
X169123809Y-108594819D01*
X169123809Y-108594819D02*
X169028571Y-108737676D01*
X169028571Y-108737676D02*
X168933333Y-108832914D01*
X168933333Y-108832914D02*
X168838095Y-108880533D01*
X170266666Y-108928152D02*
X170266666Y-109594819D01*
X170028571Y-108547200D02*
X169790476Y-109261485D01*
X169790476Y-109261485D02*
X170409523Y-109261485D01*
X167857142Y-116584819D02*
X167523809Y-116108628D01*
X167285714Y-116584819D02*
X167285714Y-115584819D01*
X167285714Y-115584819D02*
X167666666Y-115584819D01*
X167666666Y-115584819D02*
X167761904Y-115632438D01*
X167761904Y-115632438D02*
X167809523Y-115680057D01*
X167809523Y-115680057D02*
X167857142Y-115775295D01*
X167857142Y-115775295D02*
X167857142Y-115918152D01*
X167857142Y-115918152D02*
X167809523Y-116013390D01*
X167809523Y-116013390D02*
X167761904Y-116061009D01*
X167761904Y-116061009D02*
X167666666Y-116108628D01*
X167666666Y-116108628D02*
X167285714Y-116108628D01*
X168809523Y-116584819D02*
X168238095Y-116584819D01*
X168523809Y-116584819D02*
X168523809Y-115584819D01*
X168523809Y-115584819D02*
X168428571Y-115727676D01*
X168428571Y-115727676D02*
X168333333Y-115822914D01*
X168333333Y-115822914D02*
X168238095Y-115870533D01*
X169142857Y-115584819D02*
X169761904Y-115584819D01*
X169761904Y-115584819D02*
X169428571Y-115965771D01*
X169428571Y-115965771D02*
X169571428Y-115965771D01*
X169571428Y-115965771D02*
X169666666Y-116013390D01*
X169666666Y-116013390D02*
X169714285Y-116061009D01*
X169714285Y-116061009D02*
X169761904Y-116156247D01*
X169761904Y-116156247D02*
X169761904Y-116394342D01*
X169761904Y-116394342D02*
X169714285Y-116489580D01*
X169714285Y-116489580D02*
X169666666Y-116537200D01*
X169666666Y-116537200D02*
X169571428Y-116584819D01*
X169571428Y-116584819D02*
X169285714Y-116584819D01*
X169285714Y-116584819D02*
X169190476Y-116537200D01*
X169190476Y-116537200D02*
X169142857Y-116489580D01*
X165263333Y-110894819D02*
X164930000Y-110418628D01*
X164691905Y-110894819D02*
X164691905Y-109894819D01*
X164691905Y-109894819D02*
X165072857Y-109894819D01*
X165072857Y-109894819D02*
X165168095Y-109942438D01*
X165168095Y-109942438D02*
X165215714Y-109990057D01*
X165215714Y-109990057D02*
X165263333Y-110085295D01*
X165263333Y-110085295D02*
X165263333Y-110228152D01*
X165263333Y-110228152D02*
X165215714Y-110323390D01*
X165215714Y-110323390D02*
X165168095Y-110371009D01*
X165168095Y-110371009D02*
X165072857Y-110418628D01*
X165072857Y-110418628D02*
X164691905Y-110418628D01*
X165739524Y-110894819D02*
X165930000Y-110894819D01*
X165930000Y-110894819D02*
X166025238Y-110847200D01*
X166025238Y-110847200D02*
X166072857Y-110799580D01*
X166072857Y-110799580D02*
X166168095Y-110656723D01*
X166168095Y-110656723D02*
X166215714Y-110466247D01*
X166215714Y-110466247D02*
X166215714Y-110085295D01*
X166215714Y-110085295D02*
X166168095Y-109990057D01*
X166168095Y-109990057D02*
X166120476Y-109942438D01*
X166120476Y-109942438D02*
X166025238Y-109894819D01*
X166025238Y-109894819D02*
X165834762Y-109894819D01*
X165834762Y-109894819D02*
X165739524Y-109942438D01*
X165739524Y-109942438D02*
X165691905Y-109990057D01*
X165691905Y-109990057D02*
X165644286Y-110085295D01*
X165644286Y-110085295D02*
X165644286Y-110323390D01*
X165644286Y-110323390D02*
X165691905Y-110418628D01*
X165691905Y-110418628D02*
X165739524Y-110466247D01*
X165739524Y-110466247D02*
X165834762Y-110513866D01*
X165834762Y-110513866D02*
X166025238Y-110513866D01*
X166025238Y-110513866D02*
X166120476Y-110466247D01*
X166120476Y-110466247D02*
X166168095Y-110418628D01*
X166168095Y-110418628D02*
X166215714Y-110323390D01*
X165243333Y-113354819D02*
X164910000Y-112878628D01*
X164671905Y-113354819D02*
X164671905Y-112354819D01*
X164671905Y-112354819D02*
X165052857Y-112354819D01*
X165052857Y-112354819D02*
X165148095Y-112402438D01*
X165148095Y-112402438D02*
X165195714Y-112450057D01*
X165195714Y-112450057D02*
X165243333Y-112545295D01*
X165243333Y-112545295D02*
X165243333Y-112688152D01*
X165243333Y-112688152D02*
X165195714Y-112783390D01*
X165195714Y-112783390D02*
X165148095Y-112831009D01*
X165148095Y-112831009D02*
X165052857Y-112878628D01*
X165052857Y-112878628D02*
X164671905Y-112878628D01*
X165814762Y-112783390D02*
X165719524Y-112735771D01*
X165719524Y-112735771D02*
X165671905Y-112688152D01*
X165671905Y-112688152D02*
X165624286Y-112592914D01*
X165624286Y-112592914D02*
X165624286Y-112545295D01*
X165624286Y-112545295D02*
X165671905Y-112450057D01*
X165671905Y-112450057D02*
X165719524Y-112402438D01*
X165719524Y-112402438D02*
X165814762Y-112354819D01*
X165814762Y-112354819D02*
X166005238Y-112354819D01*
X166005238Y-112354819D02*
X166100476Y-112402438D01*
X166100476Y-112402438D02*
X166148095Y-112450057D01*
X166148095Y-112450057D02*
X166195714Y-112545295D01*
X166195714Y-112545295D02*
X166195714Y-112592914D01*
X166195714Y-112592914D02*
X166148095Y-112688152D01*
X166148095Y-112688152D02*
X166100476Y-112735771D01*
X166100476Y-112735771D02*
X166005238Y-112783390D01*
X166005238Y-112783390D02*
X165814762Y-112783390D01*
X165814762Y-112783390D02*
X165719524Y-112831009D01*
X165719524Y-112831009D02*
X165671905Y-112878628D01*
X165671905Y-112878628D02*
X165624286Y-112973866D01*
X165624286Y-112973866D02*
X165624286Y-113164342D01*
X165624286Y-113164342D02*
X165671905Y-113259580D01*
X165671905Y-113259580D02*
X165719524Y-113307200D01*
X165719524Y-113307200D02*
X165814762Y-113354819D01*
X165814762Y-113354819D02*
X166005238Y-113354819D01*
X166005238Y-113354819D02*
X166100476Y-113307200D01*
X166100476Y-113307200D02*
X166148095Y-113259580D01*
X166148095Y-113259580D02*
X166195714Y-113164342D01*
X166195714Y-113164342D02*
X166195714Y-112973866D01*
X166195714Y-112973866D02*
X166148095Y-112878628D01*
X166148095Y-112878628D02*
X166100476Y-112831009D01*
X166100476Y-112831009D02*
X166005238Y-112783390D01*
X138473333Y-114454819D02*
X138140000Y-113978628D01*
X137901905Y-114454819D02*
X137901905Y-113454819D01*
X137901905Y-113454819D02*
X138282857Y-113454819D01*
X138282857Y-113454819D02*
X138378095Y-113502438D01*
X138378095Y-113502438D02*
X138425714Y-113550057D01*
X138425714Y-113550057D02*
X138473333Y-113645295D01*
X138473333Y-113645295D02*
X138473333Y-113788152D01*
X138473333Y-113788152D02*
X138425714Y-113883390D01*
X138425714Y-113883390D02*
X138378095Y-113931009D01*
X138378095Y-113931009D02*
X138282857Y-113978628D01*
X138282857Y-113978628D02*
X137901905Y-113978628D01*
X138854286Y-113550057D02*
X138901905Y-113502438D01*
X138901905Y-113502438D02*
X138997143Y-113454819D01*
X138997143Y-113454819D02*
X139235238Y-113454819D01*
X139235238Y-113454819D02*
X139330476Y-113502438D01*
X139330476Y-113502438D02*
X139378095Y-113550057D01*
X139378095Y-113550057D02*
X139425714Y-113645295D01*
X139425714Y-113645295D02*
X139425714Y-113740533D01*
X139425714Y-113740533D02*
X139378095Y-113883390D01*
X139378095Y-113883390D02*
X138806667Y-114454819D01*
X138806667Y-114454819D02*
X139425714Y-114454819D01*
X138503333Y-115864819D02*
X138170000Y-115388628D01*
X137931905Y-115864819D02*
X137931905Y-114864819D01*
X137931905Y-114864819D02*
X138312857Y-114864819D01*
X138312857Y-114864819D02*
X138408095Y-114912438D01*
X138408095Y-114912438D02*
X138455714Y-114960057D01*
X138455714Y-114960057D02*
X138503333Y-115055295D01*
X138503333Y-115055295D02*
X138503333Y-115198152D01*
X138503333Y-115198152D02*
X138455714Y-115293390D01*
X138455714Y-115293390D02*
X138408095Y-115341009D01*
X138408095Y-115341009D02*
X138312857Y-115388628D01*
X138312857Y-115388628D02*
X137931905Y-115388628D01*
X139455714Y-115864819D02*
X138884286Y-115864819D01*
X139170000Y-115864819D02*
X139170000Y-114864819D01*
X139170000Y-114864819D02*
X139074762Y-115007676D01*
X139074762Y-115007676D02*
X138979524Y-115102914D01*
X138979524Y-115102914D02*
X138884286Y-115150533D01*
X156174819Y-87712857D02*
X155698628Y-88046190D01*
X156174819Y-88284285D02*
X155174819Y-88284285D01*
X155174819Y-88284285D02*
X155174819Y-87903333D01*
X155174819Y-87903333D02*
X155222438Y-87808095D01*
X155222438Y-87808095D02*
X155270057Y-87760476D01*
X155270057Y-87760476D02*
X155365295Y-87712857D01*
X155365295Y-87712857D02*
X155508152Y-87712857D01*
X155508152Y-87712857D02*
X155603390Y-87760476D01*
X155603390Y-87760476D02*
X155651009Y-87808095D01*
X155651009Y-87808095D02*
X155698628Y-87903333D01*
X155698628Y-87903333D02*
X155698628Y-88284285D01*
X156174819Y-86760476D02*
X156174819Y-87331904D01*
X156174819Y-87046190D02*
X155174819Y-87046190D01*
X155174819Y-87046190D02*
X155317676Y-87141428D01*
X155317676Y-87141428D02*
X155412914Y-87236666D01*
X155412914Y-87236666D02*
X155460533Y-87331904D01*
X155270057Y-86379523D02*
X155222438Y-86331904D01*
X155222438Y-86331904D02*
X155174819Y-86236666D01*
X155174819Y-86236666D02*
X155174819Y-85998571D01*
X155174819Y-85998571D02*
X155222438Y-85903333D01*
X155222438Y-85903333D02*
X155270057Y-85855714D01*
X155270057Y-85855714D02*
X155365295Y-85808095D01*
X155365295Y-85808095D02*
X155460533Y-85808095D01*
X155460533Y-85808095D02*
X155603390Y-85855714D01*
X155603390Y-85855714D02*
X156174819Y-86427142D01*
X156174819Y-86427142D02*
X156174819Y-85808095D01*
X176958482Y-114097063D02*
X177059497Y-113524644D01*
X176554421Y-113693002D02*
X177261528Y-112985896D01*
X177261528Y-112985896D02*
X177530902Y-113255270D01*
X177530902Y-113255270D02*
X177564574Y-113356285D01*
X177564574Y-113356285D02*
X177564574Y-113423628D01*
X177564574Y-113423628D02*
X177530902Y-113524644D01*
X177530902Y-113524644D02*
X177429887Y-113625659D01*
X177429887Y-113625659D02*
X177328871Y-113659331D01*
X177328871Y-113659331D02*
X177261528Y-113659331D01*
X177261528Y-113659331D02*
X177160513Y-113625659D01*
X177160513Y-113625659D02*
X176891139Y-113356285D01*
X177901291Y-113625659D02*
X178372696Y-114097063D01*
X178372696Y-114097063D02*
X177362543Y-114501124D01*
X122853754Y-114289456D02*
X122281335Y-114188441D01*
X122449693Y-114693517D02*
X121742587Y-113986410D01*
X121742587Y-113986410D02*
X122011961Y-113717036D01*
X122011961Y-113717036D02*
X122112976Y-113683364D01*
X122112976Y-113683364D02*
X122180319Y-113683364D01*
X122180319Y-113683364D02*
X122281335Y-113717036D01*
X122281335Y-113717036D02*
X122382350Y-113818051D01*
X122382350Y-113818051D02*
X122416022Y-113919067D01*
X122416022Y-113919067D02*
X122416022Y-113986410D01*
X122416022Y-113986410D02*
X122382350Y-114087425D01*
X122382350Y-114087425D02*
X122112976Y-114356799D01*
X122752739Y-112976258D02*
X122618052Y-113110945D01*
X122618052Y-113110945D02*
X122584380Y-113211960D01*
X122584380Y-113211960D02*
X122584380Y-113279303D01*
X122584380Y-113279303D02*
X122618052Y-113447662D01*
X122618052Y-113447662D02*
X122719067Y-113616021D01*
X122719067Y-113616021D02*
X122988441Y-113885395D01*
X122988441Y-113885395D02*
X123089457Y-113919067D01*
X123089457Y-113919067D02*
X123156800Y-113919067D01*
X123156800Y-113919067D02*
X123257815Y-113885395D01*
X123257815Y-113885395D02*
X123392502Y-113750708D01*
X123392502Y-113750708D02*
X123426174Y-113649693D01*
X123426174Y-113649693D02*
X123426174Y-113582349D01*
X123426174Y-113582349D02*
X123392502Y-113481334D01*
X123392502Y-113481334D02*
X123224144Y-113312975D01*
X123224144Y-113312975D02*
X123123128Y-113279303D01*
X123123128Y-113279303D02*
X123055785Y-113279303D01*
X123055785Y-113279303D02*
X122954770Y-113312975D01*
X122954770Y-113312975D02*
X122820083Y-113447662D01*
X122820083Y-113447662D02*
X122786411Y-113548677D01*
X122786411Y-113548677D02*
X122786411Y-113616021D01*
X122786411Y-113616021D02*
X122820083Y-113717036D01*
X128810543Y-79713754D02*
X128911558Y-79141335D01*
X128406482Y-79309693D02*
X129113589Y-78602587D01*
X129113589Y-78602587D02*
X129382963Y-78871961D01*
X129382963Y-78871961D02*
X129416635Y-78972976D01*
X129416635Y-78972976D02*
X129416635Y-79040319D01*
X129416635Y-79040319D02*
X129382963Y-79141335D01*
X129382963Y-79141335D02*
X129281948Y-79242350D01*
X129281948Y-79242350D02*
X129180932Y-79276022D01*
X129180932Y-79276022D02*
X129113589Y-79276022D01*
X129113589Y-79276022D02*
X129012574Y-79242350D01*
X129012574Y-79242350D02*
X128743200Y-78972976D01*
X130157413Y-79646411D02*
X129820696Y-79309693D01*
X129820696Y-79309693D02*
X129450306Y-79612739D01*
X129450306Y-79612739D02*
X129517650Y-79612739D01*
X129517650Y-79612739D02*
X129618665Y-79646411D01*
X129618665Y-79646411D02*
X129787024Y-79814770D01*
X129787024Y-79814770D02*
X129820696Y-79915785D01*
X129820696Y-79915785D02*
X129820696Y-79983128D01*
X129820696Y-79983128D02*
X129787024Y-80084144D01*
X129787024Y-80084144D02*
X129618665Y-80252502D01*
X129618665Y-80252502D02*
X129517650Y-80286174D01*
X129517650Y-80286174D02*
X129450306Y-80286174D01*
X129450306Y-80286174D02*
X129349291Y-80252502D01*
X129349291Y-80252502D02*
X129180932Y-80084144D01*
X129180932Y-80084144D02*
X129147261Y-79983128D01*
X129147261Y-79983128D02*
X129147261Y-79915785D01*
X177763754Y-86659456D02*
X177191335Y-86558441D01*
X177359693Y-87063517D02*
X176652587Y-86356410D01*
X176652587Y-86356410D02*
X176921961Y-86087036D01*
X176921961Y-86087036D02*
X177022976Y-86053364D01*
X177022976Y-86053364D02*
X177090319Y-86053364D01*
X177090319Y-86053364D02*
X177191335Y-86087036D01*
X177191335Y-86087036D02*
X177292350Y-86188051D01*
X177292350Y-86188051D02*
X177326022Y-86289067D01*
X177326022Y-86289067D02*
X177326022Y-86356410D01*
X177326022Y-86356410D02*
X177292350Y-86457425D01*
X177292350Y-86457425D02*
X177022976Y-86726799D01*
X177898441Y-85581960D02*
X178369846Y-86053364D01*
X177460709Y-85480945D02*
X177797426Y-86154380D01*
X177797426Y-86154380D02*
X178235159Y-85716647D01*
X134706666Y-75754819D02*
X134706666Y-76469104D01*
X134706666Y-76469104D02*
X134659047Y-76611961D01*
X134659047Y-76611961D02*
X134563809Y-76707200D01*
X134563809Y-76707200D02*
X134420952Y-76754819D01*
X134420952Y-76754819D02*
X134325714Y-76754819D01*
X135706666Y-76754819D02*
X135135238Y-76754819D01*
X135420952Y-76754819D02*
X135420952Y-75754819D01*
X135420952Y-75754819D02*
X135325714Y-75897676D01*
X135325714Y-75897676D02*
X135230476Y-75992914D01*
X135230476Y-75992914D02*
X135135238Y-76040533D01*
X162196666Y-109399819D02*
X162196666Y-110114104D01*
X162196666Y-110114104D02*
X162149047Y-110256961D01*
X162149047Y-110256961D02*
X162053809Y-110352200D01*
X162053809Y-110352200D02*
X161910952Y-110399819D01*
X161910952Y-110399819D02*
X161815714Y-110399819D01*
X162815714Y-109828390D02*
X162720476Y-109780771D01*
X162720476Y-109780771D02*
X162672857Y-109733152D01*
X162672857Y-109733152D02*
X162625238Y-109637914D01*
X162625238Y-109637914D02*
X162625238Y-109590295D01*
X162625238Y-109590295D02*
X162672857Y-109495057D01*
X162672857Y-109495057D02*
X162720476Y-109447438D01*
X162720476Y-109447438D02*
X162815714Y-109399819D01*
X162815714Y-109399819D02*
X163006190Y-109399819D01*
X163006190Y-109399819D02*
X163101428Y-109447438D01*
X163101428Y-109447438D02*
X163149047Y-109495057D01*
X163149047Y-109495057D02*
X163196666Y-109590295D01*
X163196666Y-109590295D02*
X163196666Y-109637914D01*
X163196666Y-109637914D02*
X163149047Y-109733152D01*
X163149047Y-109733152D02*
X163101428Y-109780771D01*
X163101428Y-109780771D02*
X163006190Y-109828390D01*
X163006190Y-109828390D02*
X162815714Y-109828390D01*
X162815714Y-109828390D02*
X162720476Y-109876009D01*
X162720476Y-109876009D02*
X162672857Y-109923628D01*
X162672857Y-109923628D02*
X162625238Y-110018866D01*
X162625238Y-110018866D02*
X162625238Y-110209342D01*
X162625238Y-110209342D02*
X162672857Y-110304580D01*
X162672857Y-110304580D02*
X162720476Y-110352200D01*
X162720476Y-110352200D02*
X162815714Y-110399819D01*
X162815714Y-110399819D02*
X163006190Y-110399819D01*
X163006190Y-110399819D02*
X163101428Y-110352200D01*
X163101428Y-110352200D02*
X163149047Y-110304580D01*
X163149047Y-110304580D02*
X163196666Y-110209342D01*
X163196666Y-110209342D02*
X163196666Y-110018866D01*
X163196666Y-110018866D02*
X163149047Y-109923628D01*
X163149047Y-109923628D02*
X163101428Y-109876009D01*
X163101428Y-109876009D02*
X163006190Y-109828390D01*
X163054564Y-79352717D02*
X163054564Y-80067002D01*
X163054564Y-80067002D02*
X163006945Y-80209859D01*
X163006945Y-80209859D02*
X162911707Y-80305098D01*
X162911707Y-80305098D02*
X162768850Y-80352717D01*
X162768850Y-80352717D02*
X162673612Y-80352717D01*
X163435517Y-79352717D02*
X164102183Y-79352717D01*
X164102183Y-79352717D02*
X163673612Y-80352717D01*
X125444231Y-110215636D02*
X125949307Y-110720712D01*
X125949307Y-110720712D02*
X126016651Y-110855399D01*
X126016651Y-110855399D02*
X126016651Y-110990086D01*
X126016651Y-110990086D02*
X125949307Y-111124773D01*
X125949307Y-111124773D02*
X125881964Y-111192117D01*
X125814620Y-109979933D02*
X125814620Y-109912590D01*
X125814620Y-109912590D02*
X125848292Y-109811575D01*
X125848292Y-109811575D02*
X126016651Y-109643216D01*
X126016651Y-109643216D02*
X126117666Y-109609544D01*
X126117666Y-109609544D02*
X126185010Y-109609544D01*
X126185010Y-109609544D02*
X126286025Y-109643216D01*
X126286025Y-109643216D02*
X126353368Y-109710559D01*
X126353368Y-109710559D02*
X126420712Y-109845246D01*
X126420712Y-109845246D02*
X126420712Y-110653368D01*
X126420712Y-110653368D02*
X126858445Y-110215636D01*
X171217142Y-112939580D02*
X171169523Y-112987200D01*
X171169523Y-112987200D02*
X171026666Y-113034819D01*
X171026666Y-113034819D02*
X170931428Y-113034819D01*
X170931428Y-113034819D02*
X170788571Y-112987200D01*
X170788571Y-112987200D02*
X170693333Y-112891961D01*
X170693333Y-112891961D02*
X170645714Y-112796723D01*
X170645714Y-112796723D02*
X170598095Y-112606247D01*
X170598095Y-112606247D02*
X170598095Y-112463390D01*
X170598095Y-112463390D02*
X170645714Y-112272914D01*
X170645714Y-112272914D02*
X170693333Y-112177676D01*
X170693333Y-112177676D02*
X170788571Y-112082438D01*
X170788571Y-112082438D02*
X170931428Y-112034819D01*
X170931428Y-112034819D02*
X171026666Y-112034819D01*
X171026666Y-112034819D02*
X171169523Y-112082438D01*
X171169523Y-112082438D02*
X171217142Y-112130057D01*
X172169523Y-113034819D02*
X171598095Y-113034819D01*
X171883809Y-113034819D02*
X171883809Y-112034819D01*
X171883809Y-112034819D02*
X171788571Y-112177676D01*
X171788571Y-112177676D02*
X171693333Y-112272914D01*
X171693333Y-112272914D02*
X171598095Y-112320533D01*
X172502857Y-112034819D02*
X173121904Y-112034819D01*
X173121904Y-112034819D02*
X172788571Y-112415771D01*
X172788571Y-112415771D02*
X172931428Y-112415771D01*
X172931428Y-112415771D02*
X173026666Y-112463390D01*
X173026666Y-112463390D02*
X173074285Y-112511009D01*
X173074285Y-112511009D02*
X173121904Y-112606247D01*
X173121904Y-112606247D02*
X173121904Y-112844342D01*
X173121904Y-112844342D02*
X173074285Y-112939580D01*
X173074285Y-112939580D02*
X173026666Y-112987200D01*
X173026666Y-112987200D02*
X172931428Y-113034819D01*
X172931428Y-113034819D02*
X172645714Y-113034819D01*
X172645714Y-113034819D02*
X172550476Y-112987200D01*
X172550476Y-112987200D02*
X172502857Y-112939580D01*
X171497142Y-109539580D02*
X171449523Y-109587200D01*
X171449523Y-109587200D02*
X171306666Y-109634819D01*
X171306666Y-109634819D02*
X171211428Y-109634819D01*
X171211428Y-109634819D02*
X171068571Y-109587200D01*
X171068571Y-109587200D02*
X170973333Y-109491961D01*
X170973333Y-109491961D02*
X170925714Y-109396723D01*
X170925714Y-109396723D02*
X170878095Y-109206247D01*
X170878095Y-109206247D02*
X170878095Y-109063390D01*
X170878095Y-109063390D02*
X170925714Y-108872914D01*
X170925714Y-108872914D02*
X170973333Y-108777676D01*
X170973333Y-108777676D02*
X171068571Y-108682438D01*
X171068571Y-108682438D02*
X171211428Y-108634819D01*
X171211428Y-108634819D02*
X171306666Y-108634819D01*
X171306666Y-108634819D02*
X171449523Y-108682438D01*
X171449523Y-108682438D02*
X171497142Y-108730057D01*
X172449523Y-109634819D02*
X171878095Y-109634819D01*
X172163809Y-109634819D02*
X172163809Y-108634819D01*
X172163809Y-108634819D02*
X172068571Y-108777676D01*
X172068571Y-108777676D02*
X171973333Y-108872914D01*
X171973333Y-108872914D02*
X171878095Y-108920533D01*
X172830476Y-108730057D02*
X172878095Y-108682438D01*
X172878095Y-108682438D02*
X172973333Y-108634819D01*
X172973333Y-108634819D02*
X173211428Y-108634819D01*
X173211428Y-108634819D02*
X173306666Y-108682438D01*
X173306666Y-108682438D02*
X173354285Y-108730057D01*
X173354285Y-108730057D02*
X173401904Y-108825295D01*
X173401904Y-108825295D02*
X173401904Y-108920533D01*
X173401904Y-108920533D02*
X173354285Y-109063390D01*
X173354285Y-109063390D02*
X172782857Y-109634819D01*
X172782857Y-109634819D02*
X173401904Y-109634819D01*
X162937142Y-72769580D02*
X162889523Y-72817200D01*
X162889523Y-72817200D02*
X162746666Y-72864819D01*
X162746666Y-72864819D02*
X162651428Y-72864819D01*
X162651428Y-72864819D02*
X162508571Y-72817200D01*
X162508571Y-72817200D02*
X162413333Y-72721961D01*
X162413333Y-72721961D02*
X162365714Y-72626723D01*
X162365714Y-72626723D02*
X162318095Y-72436247D01*
X162318095Y-72436247D02*
X162318095Y-72293390D01*
X162318095Y-72293390D02*
X162365714Y-72102914D01*
X162365714Y-72102914D02*
X162413333Y-72007676D01*
X162413333Y-72007676D02*
X162508571Y-71912438D01*
X162508571Y-71912438D02*
X162651428Y-71864819D01*
X162651428Y-71864819D02*
X162746666Y-71864819D01*
X162746666Y-71864819D02*
X162889523Y-71912438D01*
X162889523Y-71912438D02*
X162937142Y-71960057D01*
X163889523Y-72864819D02*
X163318095Y-72864819D01*
X163603809Y-72864819D02*
X163603809Y-71864819D01*
X163603809Y-71864819D02*
X163508571Y-72007676D01*
X163508571Y-72007676D02*
X163413333Y-72102914D01*
X163413333Y-72102914D02*
X163318095Y-72150533D01*
X164841904Y-72864819D02*
X164270476Y-72864819D01*
X164556190Y-72864819D02*
X164556190Y-71864819D01*
X164556190Y-71864819D02*
X164460952Y-72007676D01*
X164460952Y-72007676D02*
X164365714Y-72102914D01*
X164365714Y-72102914D02*
X164270476Y-72150533D01*
X120533333Y-95919580D02*
X120485714Y-95967200D01*
X120485714Y-95967200D02*
X120342857Y-96014819D01*
X120342857Y-96014819D02*
X120247619Y-96014819D01*
X120247619Y-96014819D02*
X120104762Y-95967200D01*
X120104762Y-95967200D02*
X120009524Y-95871961D01*
X120009524Y-95871961D02*
X119961905Y-95776723D01*
X119961905Y-95776723D02*
X119914286Y-95586247D01*
X119914286Y-95586247D02*
X119914286Y-95443390D01*
X119914286Y-95443390D02*
X119961905Y-95252914D01*
X119961905Y-95252914D02*
X120009524Y-95157676D01*
X120009524Y-95157676D02*
X120104762Y-95062438D01*
X120104762Y-95062438D02*
X120247619Y-95014819D01*
X120247619Y-95014819D02*
X120342857Y-95014819D01*
X120342857Y-95014819D02*
X120485714Y-95062438D01*
X120485714Y-95062438D02*
X120533333Y-95110057D01*
X121390476Y-95014819D02*
X121200000Y-95014819D01*
X121200000Y-95014819D02*
X121104762Y-95062438D01*
X121104762Y-95062438D02*
X121057143Y-95110057D01*
X121057143Y-95110057D02*
X120961905Y-95252914D01*
X120961905Y-95252914D02*
X120914286Y-95443390D01*
X120914286Y-95443390D02*
X120914286Y-95824342D01*
X120914286Y-95824342D02*
X120961905Y-95919580D01*
X120961905Y-95919580D02*
X121009524Y-95967200D01*
X121009524Y-95967200D02*
X121104762Y-96014819D01*
X121104762Y-96014819D02*
X121295238Y-96014819D01*
X121295238Y-96014819D02*
X121390476Y-95967200D01*
X121390476Y-95967200D02*
X121438095Y-95919580D01*
X121438095Y-95919580D02*
X121485714Y-95824342D01*
X121485714Y-95824342D02*
X121485714Y-95586247D01*
X121485714Y-95586247D02*
X121438095Y-95491009D01*
X121438095Y-95491009D02*
X121390476Y-95443390D01*
X121390476Y-95443390D02*
X121295238Y-95395771D01*
X121295238Y-95395771D02*
X121104762Y-95395771D01*
X121104762Y-95395771D02*
X121009524Y-95443390D01*
X121009524Y-95443390D02*
X120961905Y-95491009D01*
X120961905Y-95491009D02*
X120914286Y-95586247D01*
X137833333Y-71519580D02*
X137785714Y-71567200D01*
X137785714Y-71567200D02*
X137642857Y-71614819D01*
X137642857Y-71614819D02*
X137547619Y-71614819D01*
X137547619Y-71614819D02*
X137404762Y-71567200D01*
X137404762Y-71567200D02*
X137309524Y-71471961D01*
X137309524Y-71471961D02*
X137261905Y-71376723D01*
X137261905Y-71376723D02*
X137214286Y-71186247D01*
X137214286Y-71186247D02*
X137214286Y-71043390D01*
X137214286Y-71043390D02*
X137261905Y-70852914D01*
X137261905Y-70852914D02*
X137309524Y-70757676D01*
X137309524Y-70757676D02*
X137404762Y-70662438D01*
X137404762Y-70662438D02*
X137547619Y-70614819D01*
X137547619Y-70614819D02*
X137642857Y-70614819D01*
X137642857Y-70614819D02*
X137785714Y-70662438D01*
X137785714Y-70662438D02*
X137833333Y-70710057D01*
X138166667Y-70614819D02*
X138833333Y-70614819D01*
X138833333Y-70614819D02*
X138404762Y-71614819D01*
X138473333Y-117379580D02*
X138425714Y-117427200D01*
X138425714Y-117427200D02*
X138282857Y-117474819D01*
X138282857Y-117474819D02*
X138187619Y-117474819D01*
X138187619Y-117474819D02*
X138044762Y-117427200D01*
X138044762Y-117427200D02*
X137949524Y-117331961D01*
X137949524Y-117331961D02*
X137901905Y-117236723D01*
X137901905Y-117236723D02*
X137854286Y-117046247D01*
X137854286Y-117046247D02*
X137854286Y-116903390D01*
X137854286Y-116903390D02*
X137901905Y-116712914D01*
X137901905Y-116712914D02*
X137949524Y-116617676D01*
X137949524Y-116617676D02*
X138044762Y-116522438D01*
X138044762Y-116522438D02*
X138187619Y-116474819D01*
X138187619Y-116474819D02*
X138282857Y-116474819D01*
X138282857Y-116474819D02*
X138425714Y-116522438D01*
X138425714Y-116522438D02*
X138473333Y-116570057D01*
X139425714Y-117474819D02*
X138854286Y-117474819D01*
X139140000Y-117474819D02*
X139140000Y-116474819D01*
X139140000Y-116474819D02*
X139044762Y-116617676D01*
X139044762Y-116617676D02*
X138949524Y-116712914D01*
X138949524Y-116712914D02*
X138854286Y-116760533D01*
X137833333Y-72789580D02*
X137785714Y-72837200D01*
X137785714Y-72837200D02*
X137642857Y-72884819D01*
X137642857Y-72884819D02*
X137547619Y-72884819D01*
X137547619Y-72884819D02*
X137404762Y-72837200D01*
X137404762Y-72837200D02*
X137309524Y-72741961D01*
X137309524Y-72741961D02*
X137261905Y-72646723D01*
X137261905Y-72646723D02*
X137214286Y-72456247D01*
X137214286Y-72456247D02*
X137214286Y-72313390D01*
X137214286Y-72313390D02*
X137261905Y-72122914D01*
X137261905Y-72122914D02*
X137309524Y-72027676D01*
X137309524Y-72027676D02*
X137404762Y-71932438D01*
X137404762Y-71932438D02*
X137547619Y-71884819D01*
X137547619Y-71884819D02*
X137642857Y-71884819D01*
X137642857Y-71884819D02*
X137785714Y-71932438D01*
X137785714Y-71932438D02*
X137833333Y-71980057D01*
X138214286Y-71980057D02*
X138261905Y-71932438D01*
X138261905Y-71932438D02*
X138357143Y-71884819D01*
X138357143Y-71884819D02*
X138595238Y-71884819D01*
X138595238Y-71884819D02*
X138690476Y-71932438D01*
X138690476Y-71932438D02*
X138738095Y-71980057D01*
X138738095Y-71980057D02*
X138785714Y-72075295D01*
X138785714Y-72075295D02*
X138785714Y-72170533D01*
X138785714Y-72170533D02*
X138738095Y-72313390D01*
X138738095Y-72313390D02*
X138166667Y-72884819D01*
X138166667Y-72884819D02*
X138785714Y-72884819D01*
X141503333Y-71489580D02*
X141455714Y-71537200D01*
X141455714Y-71537200D02*
X141312857Y-71584819D01*
X141312857Y-71584819D02*
X141217619Y-71584819D01*
X141217619Y-71584819D02*
X141074762Y-71537200D01*
X141074762Y-71537200D02*
X140979524Y-71441961D01*
X140979524Y-71441961D02*
X140931905Y-71346723D01*
X140931905Y-71346723D02*
X140884286Y-71156247D01*
X140884286Y-71156247D02*
X140884286Y-71013390D01*
X140884286Y-71013390D02*
X140931905Y-70822914D01*
X140931905Y-70822914D02*
X140979524Y-70727676D01*
X140979524Y-70727676D02*
X141074762Y-70632438D01*
X141074762Y-70632438D02*
X141217619Y-70584819D01*
X141217619Y-70584819D02*
X141312857Y-70584819D01*
X141312857Y-70584819D02*
X141455714Y-70632438D01*
X141455714Y-70632438D02*
X141503333Y-70680057D01*
X142074762Y-71013390D02*
X141979524Y-70965771D01*
X141979524Y-70965771D02*
X141931905Y-70918152D01*
X141931905Y-70918152D02*
X141884286Y-70822914D01*
X141884286Y-70822914D02*
X141884286Y-70775295D01*
X141884286Y-70775295D02*
X141931905Y-70680057D01*
X141931905Y-70680057D02*
X141979524Y-70632438D01*
X141979524Y-70632438D02*
X142074762Y-70584819D01*
X142074762Y-70584819D02*
X142265238Y-70584819D01*
X142265238Y-70584819D02*
X142360476Y-70632438D01*
X142360476Y-70632438D02*
X142408095Y-70680057D01*
X142408095Y-70680057D02*
X142455714Y-70775295D01*
X142455714Y-70775295D02*
X142455714Y-70822914D01*
X142455714Y-70822914D02*
X142408095Y-70918152D01*
X142408095Y-70918152D02*
X142360476Y-70965771D01*
X142360476Y-70965771D02*
X142265238Y-71013390D01*
X142265238Y-71013390D02*
X142074762Y-71013390D01*
X142074762Y-71013390D02*
X141979524Y-71061009D01*
X141979524Y-71061009D02*
X141931905Y-71108628D01*
X141931905Y-71108628D02*
X141884286Y-71203866D01*
X141884286Y-71203866D02*
X141884286Y-71394342D01*
X141884286Y-71394342D02*
X141931905Y-71489580D01*
X141931905Y-71489580D02*
X141979524Y-71537200D01*
X141979524Y-71537200D02*
X142074762Y-71584819D01*
X142074762Y-71584819D02*
X142265238Y-71584819D01*
X142265238Y-71584819D02*
X142360476Y-71537200D01*
X142360476Y-71537200D02*
X142408095Y-71489580D01*
X142408095Y-71489580D02*
X142455714Y-71394342D01*
X142455714Y-71394342D02*
X142455714Y-71203866D01*
X142455714Y-71203866D02*
X142408095Y-71108628D01*
X142408095Y-71108628D02*
X142360476Y-71061009D01*
X142360476Y-71061009D02*
X142265238Y-71013390D01*
X141543333Y-72819580D02*
X141495714Y-72867200D01*
X141495714Y-72867200D02*
X141352857Y-72914819D01*
X141352857Y-72914819D02*
X141257619Y-72914819D01*
X141257619Y-72914819D02*
X141114762Y-72867200D01*
X141114762Y-72867200D02*
X141019524Y-72771961D01*
X141019524Y-72771961D02*
X140971905Y-72676723D01*
X140971905Y-72676723D02*
X140924286Y-72486247D01*
X140924286Y-72486247D02*
X140924286Y-72343390D01*
X140924286Y-72343390D02*
X140971905Y-72152914D01*
X140971905Y-72152914D02*
X141019524Y-72057676D01*
X141019524Y-72057676D02*
X141114762Y-71962438D01*
X141114762Y-71962438D02*
X141257619Y-71914819D01*
X141257619Y-71914819D02*
X141352857Y-71914819D01*
X141352857Y-71914819D02*
X141495714Y-71962438D01*
X141495714Y-71962438D02*
X141543333Y-72010057D01*
X141876667Y-71914819D02*
X142495714Y-71914819D01*
X142495714Y-71914819D02*
X142162381Y-72295771D01*
X142162381Y-72295771D02*
X142305238Y-72295771D01*
X142305238Y-72295771D02*
X142400476Y-72343390D01*
X142400476Y-72343390D02*
X142448095Y-72391009D01*
X142448095Y-72391009D02*
X142495714Y-72486247D01*
X142495714Y-72486247D02*
X142495714Y-72724342D01*
X142495714Y-72724342D02*
X142448095Y-72819580D01*
X142448095Y-72819580D02*
X142400476Y-72867200D01*
X142400476Y-72867200D02*
X142305238Y-72914819D01*
X142305238Y-72914819D02*
X142019524Y-72914819D01*
X142019524Y-72914819D02*
X141924286Y-72867200D01*
X141924286Y-72867200D02*
X141876667Y-72819580D01*
X148457142Y-71459580D02*
X148409523Y-71507200D01*
X148409523Y-71507200D02*
X148266666Y-71554819D01*
X148266666Y-71554819D02*
X148171428Y-71554819D01*
X148171428Y-71554819D02*
X148028571Y-71507200D01*
X148028571Y-71507200D02*
X147933333Y-71411961D01*
X147933333Y-71411961D02*
X147885714Y-71316723D01*
X147885714Y-71316723D02*
X147838095Y-71126247D01*
X147838095Y-71126247D02*
X147838095Y-70983390D01*
X147838095Y-70983390D02*
X147885714Y-70792914D01*
X147885714Y-70792914D02*
X147933333Y-70697676D01*
X147933333Y-70697676D02*
X148028571Y-70602438D01*
X148028571Y-70602438D02*
X148171428Y-70554819D01*
X148171428Y-70554819D02*
X148266666Y-70554819D01*
X148266666Y-70554819D02*
X148409523Y-70602438D01*
X148409523Y-70602438D02*
X148457142Y-70650057D01*
X149409523Y-71554819D02*
X148838095Y-71554819D01*
X149123809Y-71554819D02*
X149123809Y-70554819D01*
X149123809Y-70554819D02*
X149028571Y-70697676D01*
X149028571Y-70697676D02*
X148933333Y-70792914D01*
X148933333Y-70792914D02*
X148838095Y-70840533D01*
X150028571Y-70554819D02*
X150123809Y-70554819D01*
X150123809Y-70554819D02*
X150219047Y-70602438D01*
X150219047Y-70602438D02*
X150266666Y-70650057D01*
X150266666Y-70650057D02*
X150314285Y-70745295D01*
X150314285Y-70745295D02*
X150361904Y-70935771D01*
X150361904Y-70935771D02*
X150361904Y-71173866D01*
X150361904Y-71173866D02*
X150314285Y-71364342D01*
X150314285Y-71364342D02*
X150266666Y-71459580D01*
X150266666Y-71459580D02*
X150219047Y-71507200D01*
X150219047Y-71507200D02*
X150123809Y-71554819D01*
X150123809Y-71554819D02*
X150028571Y-71554819D01*
X150028571Y-71554819D02*
X149933333Y-71507200D01*
X149933333Y-71507200D02*
X149885714Y-71459580D01*
X149885714Y-71459580D02*
X149838095Y-71364342D01*
X149838095Y-71364342D02*
X149790476Y-71173866D01*
X149790476Y-71173866D02*
X149790476Y-70935771D01*
X149790476Y-70935771D02*
X149838095Y-70745295D01*
X149838095Y-70745295D02*
X149885714Y-70650057D01*
X149885714Y-70650057D02*
X149933333Y-70602438D01*
X149933333Y-70602438D02*
X150028571Y-70554819D01*
X145243333Y-71489580D02*
X145195714Y-71537200D01*
X145195714Y-71537200D02*
X145052857Y-71584819D01*
X145052857Y-71584819D02*
X144957619Y-71584819D01*
X144957619Y-71584819D02*
X144814762Y-71537200D01*
X144814762Y-71537200D02*
X144719524Y-71441961D01*
X144719524Y-71441961D02*
X144671905Y-71346723D01*
X144671905Y-71346723D02*
X144624286Y-71156247D01*
X144624286Y-71156247D02*
X144624286Y-71013390D01*
X144624286Y-71013390D02*
X144671905Y-70822914D01*
X144671905Y-70822914D02*
X144719524Y-70727676D01*
X144719524Y-70727676D02*
X144814762Y-70632438D01*
X144814762Y-70632438D02*
X144957619Y-70584819D01*
X144957619Y-70584819D02*
X145052857Y-70584819D01*
X145052857Y-70584819D02*
X145195714Y-70632438D01*
X145195714Y-70632438D02*
X145243333Y-70680057D01*
X145719524Y-71584819D02*
X145910000Y-71584819D01*
X145910000Y-71584819D02*
X146005238Y-71537200D01*
X146005238Y-71537200D02*
X146052857Y-71489580D01*
X146052857Y-71489580D02*
X146148095Y-71346723D01*
X146148095Y-71346723D02*
X146195714Y-71156247D01*
X146195714Y-71156247D02*
X146195714Y-70775295D01*
X146195714Y-70775295D02*
X146148095Y-70680057D01*
X146148095Y-70680057D02*
X146100476Y-70632438D01*
X146100476Y-70632438D02*
X146005238Y-70584819D01*
X146005238Y-70584819D02*
X145814762Y-70584819D01*
X145814762Y-70584819D02*
X145719524Y-70632438D01*
X145719524Y-70632438D02*
X145671905Y-70680057D01*
X145671905Y-70680057D02*
X145624286Y-70775295D01*
X145624286Y-70775295D02*
X145624286Y-71013390D01*
X145624286Y-71013390D02*
X145671905Y-71108628D01*
X145671905Y-71108628D02*
X145719524Y-71156247D01*
X145719524Y-71156247D02*
X145814762Y-71203866D01*
X145814762Y-71203866D02*
X146005238Y-71203866D01*
X146005238Y-71203866D02*
X146100476Y-71156247D01*
X146100476Y-71156247D02*
X146148095Y-71108628D01*
X146148095Y-71108628D02*
X146195714Y-71013390D01*
X148913333Y-72789580D02*
X148865714Y-72837200D01*
X148865714Y-72837200D02*
X148722857Y-72884819D01*
X148722857Y-72884819D02*
X148627619Y-72884819D01*
X148627619Y-72884819D02*
X148484762Y-72837200D01*
X148484762Y-72837200D02*
X148389524Y-72741961D01*
X148389524Y-72741961D02*
X148341905Y-72646723D01*
X148341905Y-72646723D02*
X148294286Y-72456247D01*
X148294286Y-72456247D02*
X148294286Y-72313390D01*
X148294286Y-72313390D02*
X148341905Y-72122914D01*
X148341905Y-72122914D02*
X148389524Y-72027676D01*
X148389524Y-72027676D02*
X148484762Y-71932438D01*
X148484762Y-71932438D02*
X148627619Y-71884819D01*
X148627619Y-71884819D02*
X148722857Y-71884819D01*
X148722857Y-71884819D02*
X148865714Y-71932438D01*
X148865714Y-71932438D02*
X148913333Y-71980057D01*
X149818095Y-71884819D02*
X149341905Y-71884819D01*
X149341905Y-71884819D02*
X149294286Y-72361009D01*
X149294286Y-72361009D02*
X149341905Y-72313390D01*
X149341905Y-72313390D02*
X149437143Y-72265771D01*
X149437143Y-72265771D02*
X149675238Y-72265771D01*
X149675238Y-72265771D02*
X149770476Y-72313390D01*
X149770476Y-72313390D02*
X149818095Y-72361009D01*
X149818095Y-72361009D02*
X149865714Y-72456247D01*
X149865714Y-72456247D02*
X149865714Y-72694342D01*
X149865714Y-72694342D02*
X149818095Y-72789580D01*
X149818095Y-72789580D02*
X149770476Y-72837200D01*
X149770476Y-72837200D02*
X149675238Y-72884819D01*
X149675238Y-72884819D02*
X149437143Y-72884819D01*
X149437143Y-72884819D02*
X149341905Y-72837200D01*
X149341905Y-72837200D02*
X149294286Y-72789580D01*
X145223333Y-72809580D02*
X145175714Y-72857200D01*
X145175714Y-72857200D02*
X145032857Y-72904819D01*
X145032857Y-72904819D02*
X144937619Y-72904819D01*
X144937619Y-72904819D02*
X144794762Y-72857200D01*
X144794762Y-72857200D02*
X144699524Y-72761961D01*
X144699524Y-72761961D02*
X144651905Y-72666723D01*
X144651905Y-72666723D02*
X144604286Y-72476247D01*
X144604286Y-72476247D02*
X144604286Y-72333390D01*
X144604286Y-72333390D02*
X144651905Y-72142914D01*
X144651905Y-72142914D02*
X144699524Y-72047676D01*
X144699524Y-72047676D02*
X144794762Y-71952438D01*
X144794762Y-71952438D02*
X144937619Y-71904819D01*
X144937619Y-71904819D02*
X145032857Y-71904819D01*
X145032857Y-71904819D02*
X145175714Y-71952438D01*
X145175714Y-71952438D02*
X145223333Y-72000057D01*
X146080476Y-72238152D02*
X146080476Y-72904819D01*
X145842381Y-71857200D02*
X145604286Y-72571485D01*
X145604286Y-72571485D02*
X146223333Y-72571485D01*
X126397200Y-92143332D02*
X126444819Y-92000475D01*
X126444819Y-92000475D02*
X126444819Y-91762380D01*
X126444819Y-91762380D02*
X126397200Y-91667142D01*
X126397200Y-91667142D02*
X126349580Y-91619523D01*
X126349580Y-91619523D02*
X126254342Y-91571904D01*
X126254342Y-91571904D02*
X126159104Y-91571904D01*
X126159104Y-91571904D02*
X126063866Y-91619523D01*
X126063866Y-91619523D02*
X126016247Y-91667142D01*
X126016247Y-91667142D02*
X125968628Y-91762380D01*
X125968628Y-91762380D02*
X125921009Y-91952856D01*
X125921009Y-91952856D02*
X125873390Y-92048094D01*
X125873390Y-92048094D02*
X125825771Y-92095713D01*
X125825771Y-92095713D02*
X125730533Y-92143332D01*
X125730533Y-92143332D02*
X125635295Y-92143332D01*
X125635295Y-92143332D02*
X125540057Y-92095713D01*
X125540057Y-92095713D02*
X125492438Y-92048094D01*
X125492438Y-92048094D02*
X125444819Y-91952856D01*
X125444819Y-91952856D02*
X125444819Y-91714761D01*
X125444819Y-91714761D02*
X125492438Y-91571904D01*
X125444819Y-91238570D02*
X126444819Y-91000475D01*
X126444819Y-91000475D02*
X125730533Y-90809999D01*
X125730533Y-90809999D02*
X126444819Y-90619523D01*
X126444819Y-90619523D02*
X125444819Y-90381428D01*
X125444819Y-89571904D02*
X125444819Y-89762380D01*
X125444819Y-89762380D02*
X125492438Y-89857618D01*
X125492438Y-89857618D02*
X125540057Y-89905237D01*
X125540057Y-89905237D02*
X125682914Y-90000475D01*
X125682914Y-90000475D02*
X125873390Y-90048094D01*
X125873390Y-90048094D02*
X126254342Y-90048094D01*
X126254342Y-90048094D02*
X126349580Y-90000475D01*
X126349580Y-90000475D02*
X126397200Y-89952856D01*
X126397200Y-89952856D02*
X126444819Y-89857618D01*
X126444819Y-89857618D02*
X126444819Y-89667142D01*
X126444819Y-89667142D02*
X126397200Y-89571904D01*
X126397200Y-89571904D02*
X126349580Y-89524285D01*
X126349580Y-89524285D02*
X126254342Y-89476666D01*
X126254342Y-89476666D02*
X126016247Y-89476666D01*
X126016247Y-89476666D02*
X125921009Y-89524285D01*
X125921009Y-89524285D02*
X125873390Y-89571904D01*
X125873390Y-89571904D02*
X125825771Y-89667142D01*
X125825771Y-89667142D02*
X125825771Y-89857618D01*
X125825771Y-89857618D02*
X125873390Y-89952856D01*
X125873390Y-89952856D02*
X125921009Y-90000475D01*
X125921009Y-90000475D02*
X126016247Y-90048094D01*
X166128796Y-76170201D02*
X166633872Y-76675277D01*
X166633872Y-76675277D02*
X166701216Y-76809964D01*
X166701216Y-76809964D02*
X166701216Y-76944651D01*
X166701216Y-76944651D02*
X166633872Y-77079338D01*
X166633872Y-77079338D02*
X166566529Y-77146682D01*
X166398170Y-75900827D02*
X166835903Y-75463094D01*
X166835903Y-75463094D02*
X166869575Y-75968170D01*
X166869575Y-75968170D02*
X166970590Y-75867155D01*
X166970590Y-75867155D02*
X167071605Y-75833483D01*
X167071605Y-75833483D02*
X167138949Y-75833483D01*
X167138949Y-75833483D02*
X167239964Y-75867155D01*
X167239964Y-75867155D02*
X167408323Y-76035514D01*
X167408323Y-76035514D02*
X167441994Y-76136529D01*
X167441994Y-76136529D02*
X167441994Y-76203872D01*
X167441994Y-76203872D02*
X167408323Y-76304888D01*
X167408323Y-76304888D02*
X167206292Y-76506918D01*
X167206292Y-76506918D02*
X167105277Y-76540590D01*
X167105277Y-76540590D02*
X167037933Y-76540590D01*
X170600069Y-84417313D02*
X170667412Y-84552000D01*
X170667412Y-84552000D02*
X170835771Y-84720358D01*
X170835771Y-84720358D02*
X170936786Y-84754030D01*
X170936786Y-84754030D02*
X171004130Y-84754030D01*
X171004130Y-84754030D02*
X171105145Y-84720358D01*
X171105145Y-84720358D02*
X171172489Y-84653015D01*
X171172489Y-84653015D02*
X171206160Y-84552000D01*
X171206160Y-84552000D02*
X171206160Y-84484656D01*
X171206160Y-84484656D02*
X171172489Y-84383641D01*
X171172489Y-84383641D02*
X171071473Y-84215282D01*
X171071473Y-84215282D02*
X171037802Y-84114267D01*
X171037802Y-84114267D02*
X171037802Y-84046923D01*
X171037802Y-84046923D02*
X171071473Y-83945908D01*
X171071473Y-83945908D02*
X171138817Y-83878565D01*
X171138817Y-83878565D02*
X171239832Y-83844893D01*
X171239832Y-83844893D02*
X171307176Y-83844893D01*
X171307176Y-83844893D02*
X171408191Y-83878565D01*
X171408191Y-83878565D02*
X171576550Y-84046923D01*
X171576550Y-84046923D02*
X171643893Y-84181610D01*
X171913267Y-84383641D02*
X171374519Y-85259107D01*
X171374519Y-85259107D02*
X172014283Y-84888717D01*
X172014283Y-84888717D02*
X171643893Y-85528481D01*
X171643893Y-85528481D02*
X172519359Y-84989733D01*
X172452015Y-86336602D02*
X172047954Y-85932541D01*
X172249985Y-86134572D02*
X172957091Y-85427465D01*
X172957091Y-85427465D02*
X172788733Y-85461137D01*
X172788733Y-85461137D02*
X172654046Y-85461137D01*
X172654046Y-85461137D02*
X172553030Y-85427465D01*
X134461905Y-93454819D02*
X134461905Y-92454819D01*
X134461905Y-92454819D02*
X134700000Y-92454819D01*
X134700000Y-92454819D02*
X134842857Y-92502438D01*
X134842857Y-92502438D02*
X134938095Y-92597676D01*
X134938095Y-92597676D02*
X134985714Y-92692914D01*
X134985714Y-92692914D02*
X135033333Y-92883390D01*
X135033333Y-92883390D02*
X135033333Y-93026247D01*
X135033333Y-93026247D02*
X134985714Y-93216723D01*
X134985714Y-93216723D02*
X134938095Y-93311961D01*
X134938095Y-93311961D02*
X134842857Y-93407200D01*
X134842857Y-93407200D02*
X134700000Y-93454819D01*
X134700000Y-93454819D02*
X134461905Y-93454819D01*
X135985714Y-93454819D02*
X135414286Y-93454819D01*
X135700000Y-93454819D02*
X135700000Y-92454819D01*
X135700000Y-92454819D02*
X135604762Y-92597676D01*
X135604762Y-92597676D02*
X135509524Y-92692914D01*
X135509524Y-92692914D02*
X135414286Y-92740533D01*
X132758796Y-123690201D02*
X133263872Y-124195277D01*
X133263872Y-124195277D02*
X133331216Y-124329964D01*
X133331216Y-124329964D02*
X133331216Y-124464651D01*
X133331216Y-124464651D02*
X133263872Y-124599338D01*
X133263872Y-124599338D02*
X133196529Y-124666682D01*
X133432231Y-123016766D02*
X133095514Y-123353483D01*
X133095514Y-123353483D02*
X133398559Y-123723872D01*
X133398559Y-123723872D02*
X133398559Y-123656529D01*
X133398559Y-123656529D02*
X133432231Y-123555514D01*
X133432231Y-123555514D02*
X133600590Y-123387155D01*
X133600590Y-123387155D02*
X133701605Y-123353483D01*
X133701605Y-123353483D02*
X133768949Y-123353483D01*
X133768949Y-123353483D02*
X133869964Y-123387155D01*
X133869964Y-123387155D02*
X134038323Y-123555514D01*
X134038323Y-123555514D02*
X134071994Y-123656529D01*
X134071994Y-123656529D02*
X134071994Y-123723872D01*
X134071994Y-123723872D02*
X134038323Y-123824888D01*
X134038323Y-123824888D02*
X133869964Y-123993246D01*
X133869964Y-123993246D02*
X133768949Y-124026918D01*
X133768949Y-124026918D02*
X133701605Y-124026918D01*
X134176666Y-81304819D02*
X134176666Y-82019104D01*
X134176666Y-82019104D02*
X134129047Y-82161961D01*
X134129047Y-82161961D02*
X134033809Y-82257200D01*
X134033809Y-82257200D02*
X133890952Y-82304819D01*
X133890952Y-82304819D02*
X133795714Y-82304819D01*
X135081428Y-81638152D02*
X135081428Y-82304819D01*
X134843333Y-81257200D02*
X134605238Y-81971485D01*
X134605238Y-81971485D02*
X135224285Y-81971485D01*
X127506702Y-86303319D02*
X127641389Y-86235976D01*
X127641389Y-86235976D02*
X127809747Y-86067617D01*
X127809747Y-86067617D02*
X127843419Y-85966602D01*
X127843419Y-85966602D02*
X127843419Y-85899258D01*
X127843419Y-85899258D02*
X127809747Y-85798243D01*
X127809747Y-85798243D02*
X127742404Y-85730899D01*
X127742404Y-85730899D02*
X127641389Y-85697228D01*
X127641389Y-85697228D02*
X127574045Y-85697228D01*
X127574045Y-85697228D02*
X127473030Y-85730899D01*
X127473030Y-85730899D02*
X127304671Y-85831915D01*
X127304671Y-85831915D02*
X127203656Y-85865586D01*
X127203656Y-85865586D02*
X127136312Y-85865586D01*
X127136312Y-85865586D02*
X127035297Y-85831915D01*
X127035297Y-85831915D02*
X126967954Y-85764571D01*
X126967954Y-85764571D02*
X126934282Y-85663556D01*
X126934282Y-85663556D02*
X126934282Y-85596212D01*
X126934282Y-85596212D02*
X126967954Y-85495197D01*
X126967954Y-85495197D02*
X127136312Y-85326838D01*
X127136312Y-85326838D02*
X127270999Y-85259495D01*
X127473030Y-84990121D02*
X128348496Y-85528869D01*
X128348496Y-85528869D02*
X127978106Y-84889105D01*
X127978106Y-84889105D02*
X128617870Y-85259495D01*
X128617870Y-85259495D02*
X128079122Y-84384029D01*
X128382167Y-84215671D02*
X128382167Y-84148327D01*
X128382167Y-84148327D02*
X128415839Y-84047312D01*
X128415839Y-84047312D02*
X128584198Y-83878953D01*
X128584198Y-83878953D02*
X128685213Y-83845281D01*
X128685213Y-83845281D02*
X128752556Y-83845281D01*
X128752556Y-83845281D02*
X128853572Y-83878953D01*
X128853572Y-83878953D02*
X128920915Y-83946297D01*
X128920915Y-83946297D02*
X128988259Y-84080984D01*
X128988259Y-84080984D02*
X128988259Y-84889106D01*
X128988259Y-84889106D02*
X129425991Y-84451373D01*
X167099798Y-123578796D02*
X166594722Y-124083872D01*
X166594722Y-124083872D02*
X166460035Y-124151216D01*
X166460035Y-124151216D02*
X166325348Y-124151216D01*
X166325348Y-124151216D02*
X166190661Y-124083872D01*
X166190661Y-124083872D02*
X166123317Y-124016529D01*
X167739562Y-124218559D02*
X167604875Y-124083872D01*
X167604875Y-124083872D02*
X167503859Y-124050201D01*
X167503859Y-124050201D02*
X167436516Y-124050201D01*
X167436516Y-124050201D02*
X167268157Y-124083872D01*
X167268157Y-124083872D02*
X167099798Y-124184888D01*
X167099798Y-124184888D02*
X166830424Y-124454262D01*
X166830424Y-124454262D02*
X166796753Y-124555277D01*
X166796753Y-124555277D02*
X166796753Y-124622620D01*
X166796753Y-124622620D02*
X166830424Y-124723636D01*
X166830424Y-124723636D02*
X166965111Y-124858323D01*
X166965111Y-124858323D02*
X167066127Y-124891994D01*
X167066127Y-124891994D02*
X167133470Y-124891994D01*
X167133470Y-124891994D02*
X167234485Y-124858323D01*
X167234485Y-124858323D02*
X167402844Y-124689964D01*
X167402844Y-124689964D02*
X167436516Y-124588949D01*
X167436516Y-124588949D02*
X167436516Y-124521605D01*
X167436516Y-124521605D02*
X167402844Y-124420590D01*
X167402844Y-124420590D02*
X167268157Y-124285903D01*
X167268157Y-124285903D02*
X167167142Y-124252231D01*
X167167142Y-124252231D02*
X167099798Y-124252231D01*
X167099798Y-124252231D02*
X166998783Y-124285903D01*
X146478095Y-71914819D02*
X146478095Y-72724342D01*
X146478095Y-72724342D02*
X146525714Y-72819580D01*
X146525714Y-72819580D02*
X146573333Y-72867200D01*
X146573333Y-72867200D02*
X146668571Y-72914819D01*
X146668571Y-72914819D02*
X146859047Y-72914819D01*
X146859047Y-72914819D02*
X146954285Y-72867200D01*
X146954285Y-72867200D02*
X147001904Y-72819580D01*
X147001904Y-72819580D02*
X147049523Y-72724342D01*
X147049523Y-72724342D02*
X147049523Y-71914819D01*
X147430476Y-71914819D02*
X148049523Y-71914819D01*
X148049523Y-71914819D02*
X147716190Y-72295771D01*
X147716190Y-72295771D02*
X147859047Y-72295771D01*
X147859047Y-72295771D02*
X147954285Y-72343390D01*
X147954285Y-72343390D02*
X148001904Y-72391009D01*
X148001904Y-72391009D02*
X148049523Y-72486247D01*
X148049523Y-72486247D02*
X148049523Y-72724342D01*
X148049523Y-72724342D02*
X148001904Y-72819580D01*
X148001904Y-72819580D02*
X147954285Y-72867200D01*
X147954285Y-72867200D02*
X147859047Y-72914819D01*
X147859047Y-72914819D02*
X147573333Y-72914819D01*
X147573333Y-72914819D02*
X147478095Y-72867200D01*
X147478095Y-72867200D02*
X147430476Y-72819580D01*
X173994819Y-98590357D02*
X173518628Y-98923690D01*
X173994819Y-99161785D02*
X172994819Y-99161785D01*
X172994819Y-99161785D02*
X172994819Y-98780833D01*
X172994819Y-98780833D02*
X173042438Y-98685595D01*
X173042438Y-98685595D02*
X173090057Y-98637976D01*
X173090057Y-98637976D02*
X173185295Y-98590357D01*
X173185295Y-98590357D02*
X173328152Y-98590357D01*
X173328152Y-98590357D02*
X173423390Y-98637976D01*
X173423390Y-98637976D02*
X173471009Y-98685595D01*
X173471009Y-98685595D02*
X173518628Y-98780833D01*
X173518628Y-98780833D02*
X173518628Y-99161785D01*
X173994819Y-97637976D02*
X173994819Y-98209404D01*
X173994819Y-97923690D02*
X172994819Y-97923690D01*
X172994819Y-97923690D02*
X173137676Y-98018928D01*
X173137676Y-98018928D02*
X173232914Y-98114166D01*
X173232914Y-98114166D02*
X173280533Y-98209404D01*
X173994819Y-96685595D02*
X173994819Y-97257023D01*
X173994819Y-96971309D02*
X172994819Y-96971309D01*
X172994819Y-96971309D02*
X173137676Y-97066547D01*
X173137676Y-97066547D02*
X173232914Y-97161785D01*
X173232914Y-97161785D02*
X173280533Y-97257023D01*
X132414819Y-112159523D02*
X133129104Y-112159523D01*
X133129104Y-112159523D02*
X133271961Y-112207142D01*
X133271961Y-112207142D02*
X133367200Y-112302380D01*
X133367200Y-112302380D02*
X133414819Y-112445237D01*
X133414819Y-112445237D02*
X133414819Y-112540475D01*
X133414819Y-111159523D02*
X133414819Y-111730951D01*
X133414819Y-111445237D02*
X132414819Y-111445237D01*
X132414819Y-111445237D02*
X132557676Y-111540475D01*
X132557676Y-111540475D02*
X132652914Y-111635713D01*
X132652914Y-111635713D02*
X132700533Y-111730951D01*
X132510057Y-110778570D02*
X132462438Y-110730951D01*
X132462438Y-110730951D02*
X132414819Y-110635713D01*
X132414819Y-110635713D02*
X132414819Y-110397618D01*
X132414819Y-110397618D02*
X132462438Y-110302380D01*
X132462438Y-110302380D02*
X132510057Y-110254761D01*
X132510057Y-110254761D02*
X132605295Y-110207142D01*
X132605295Y-110207142D02*
X132700533Y-110207142D01*
X132700533Y-110207142D02*
X132843390Y-110254761D01*
X132843390Y-110254761D02*
X133414819Y-110826189D01*
X133414819Y-110826189D02*
X133414819Y-110207142D01*
X142778095Y-71914819D02*
X142778095Y-72724342D01*
X142778095Y-72724342D02*
X142825714Y-72819580D01*
X142825714Y-72819580D02*
X142873333Y-72867200D01*
X142873333Y-72867200D02*
X142968571Y-72914819D01*
X142968571Y-72914819D02*
X143159047Y-72914819D01*
X143159047Y-72914819D02*
X143254285Y-72867200D01*
X143254285Y-72867200D02*
X143301904Y-72819580D01*
X143301904Y-72819580D02*
X143349523Y-72724342D01*
X143349523Y-72724342D02*
X143349523Y-71914819D01*
X143778095Y-72010057D02*
X143825714Y-71962438D01*
X143825714Y-71962438D02*
X143920952Y-71914819D01*
X143920952Y-71914819D02*
X144159047Y-71914819D01*
X144159047Y-71914819D02*
X144254285Y-71962438D01*
X144254285Y-71962438D02*
X144301904Y-72010057D01*
X144301904Y-72010057D02*
X144349523Y-72105295D01*
X144349523Y-72105295D02*
X144349523Y-72200533D01*
X144349523Y-72200533D02*
X144301904Y-72343390D01*
X144301904Y-72343390D02*
X143730476Y-72914819D01*
X143730476Y-72914819D02*
X144349523Y-72914819D01*
X128347200Y-105703332D02*
X128394819Y-105560475D01*
X128394819Y-105560475D02*
X128394819Y-105322380D01*
X128394819Y-105322380D02*
X128347200Y-105227142D01*
X128347200Y-105227142D02*
X128299580Y-105179523D01*
X128299580Y-105179523D02*
X128204342Y-105131904D01*
X128204342Y-105131904D02*
X128109104Y-105131904D01*
X128109104Y-105131904D02*
X128013866Y-105179523D01*
X128013866Y-105179523D02*
X127966247Y-105227142D01*
X127966247Y-105227142D02*
X127918628Y-105322380D01*
X127918628Y-105322380D02*
X127871009Y-105512856D01*
X127871009Y-105512856D02*
X127823390Y-105608094D01*
X127823390Y-105608094D02*
X127775771Y-105655713D01*
X127775771Y-105655713D02*
X127680533Y-105703332D01*
X127680533Y-105703332D02*
X127585295Y-105703332D01*
X127585295Y-105703332D02*
X127490057Y-105655713D01*
X127490057Y-105655713D02*
X127442438Y-105608094D01*
X127442438Y-105608094D02*
X127394819Y-105512856D01*
X127394819Y-105512856D02*
X127394819Y-105274761D01*
X127394819Y-105274761D02*
X127442438Y-105131904D01*
X127394819Y-104798570D02*
X128394819Y-104560475D01*
X128394819Y-104560475D02*
X127680533Y-104369999D01*
X127680533Y-104369999D02*
X128394819Y-104179523D01*
X128394819Y-104179523D02*
X127394819Y-103941428D01*
X127394819Y-103655713D02*
X127394819Y-102989047D01*
X127394819Y-102989047D02*
X128394819Y-103417618D01*
X135284692Y-122852171D02*
X136094215Y-122852171D01*
X136094215Y-122852171D02*
X136189453Y-122804552D01*
X136189453Y-122804552D02*
X136237073Y-122756933D01*
X136237073Y-122756933D02*
X136284692Y-122661695D01*
X136284692Y-122661695D02*
X136284692Y-122471219D01*
X136284692Y-122471219D02*
X136237073Y-122375981D01*
X136237073Y-122375981D02*
X136189453Y-122328362D01*
X136189453Y-122328362D02*
X136094215Y-122280743D01*
X136094215Y-122280743D02*
X135284692Y-122280743D01*
X135284692Y-121328362D02*
X135284692Y-121804552D01*
X135284692Y-121804552D02*
X135760882Y-121852171D01*
X135760882Y-121852171D02*
X135713263Y-121804552D01*
X135713263Y-121804552D02*
X135665644Y-121709314D01*
X135665644Y-121709314D02*
X135665644Y-121471219D01*
X135665644Y-121471219D02*
X135713263Y-121375981D01*
X135713263Y-121375981D02*
X135760882Y-121328362D01*
X135760882Y-121328362D02*
X135856120Y-121280743D01*
X135856120Y-121280743D02*
X136094215Y-121280743D01*
X136094215Y-121280743D02*
X136189453Y-121328362D01*
X136189453Y-121328362D02*
X136237073Y-121375981D01*
X136237073Y-121375981D02*
X136284692Y-121471219D01*
X136284692Y-121471219D02*
X136284692Y-121709314D01*
X136284692Y-121709314D02*
X136237073Y-121804552D01*
X136237073Y-121804552D02*
X136189453Y-121852171D01*
X139108095Y-71894819D02*
X139108095Y-72704342D01*
X139108095Y-72704342D02*
X139155714Y-72799580D01*
X139155714Y-72799580D02*
X139203333Y-72847200D01*
X139203333Y-72847200D02*
X139298571Y-72894819D01*
X139298571Y-72894819D02*
X139489047Y-72894819D01*
X139489047Y-72894819D02*
X139584285Y-72847200D01*
X139584285Y-72847200D02*
X139631904Y-72799580D01*
X139631904Y-72799580D02*
X139679523Y-72704342D01*
X139679523Y-72704342D02*
X139679523Y-71894819D01*
X140679523Y-72894819D02*
X140108095Y-72894819D01*
X140393809Y-72894819D02*
X140393809Y-71894819D01*
X140393809Y-71894819D02*
X140298571Y-72037676D01*
X140298571Y-72037676D02*
X140203333Y-72132914D01*
X140203333Y-72132914D02*
X140108095Y-72180533D01*
X164061905Y-98854819D02*
X164061905Y-97854819D01*
X164061905Y-97854819D02*
X164300000Y-97854819D01*
X164300000Y-97854819D02*
X164442857Y-97902438D01*
X164442857Y-97902438D02*
X164538095Y-97997676D01*
X164538095Y-97997676D02*
X164585714Y-98092914D01*
X164585714Y-98092914D02*
X164633333Y-98283390D01*
X164633333Y-98283390D02*
X164633333Y-98426247D01*
X164633333Y-98426247D02*
X164585714Y-98616723D01*
X164585714Y-98616723D02*
X164538095Y-98711961D01*
X164538095Y-98711961D02*
X164442857Y-98807200D01*
X164442857Y-98807200D02*
X164300000Y-98854819D01*
X164300000Y-98854819D02*
X164061905Y-98854819D01*
X165014286Y-97950057D02*
X165061905Y-97902438D01*
X165061905Y-97902438D02*
X165157143Y-97854819D01*
X165157143Y-97854819D02*
X165395238Y-97854819D01*
X165395238Y-97854819D02*
X165490476Y-97902438D01*
X165490476Y-97902438D02*
X165538095Y-97950057D01*
X165538095Y-97950057D02*
X165585714Y-98045295D01*
X165585714Y-98045295D02*
X165585714Y-98140533D01*
X165585714Y-98140533D02*
X165538095Y-98283390D01*
X165538095Y-98283390D02*
X164966667Y-98854819D01*
X164966667Y-98854819D02*
X165585714Y-98854819D01*
X133090476Y-100579819D02*
X133090476Y-101294104D01*
X133090476Y-101294104D02*
X133042857Y-101436961D01*
X133042857Y-101436961D02*
X132947619Y-101532200D01*
X132947619Y-101532200D02*
X132804762Y-101579819D01*
X132804762Y-101579819D02*
X132709524Y-101579819D01*
X134090476Y-101579819D02*
X133519048Y-101579819D01*
X133804762Y-101579819D02*
X133804762Y-100579819D01*
X133804762Y-100579819D02*
X133709524Y-100722676D01*
X133709524Y-100722676D02*
X133614286Y-100817914D01*
X133614286Y-100817914D02*
X133519048Y-100865533D01*
X134709524Y-100579819D02*
X134804762Y-100579819D01*
X134804762Y-100579819D02*
X134900000Y-100627438D01*
X134900000Y-100627438D02*
X134947619Y-100675057D01*
X134947619Y-100675057D02*
X134995238Y-100770295D01*
X134995238Y-100770295D02*
X135042857Y-100960771D01*
X135042857Y-100960771D02*
X135042857Y-101198866D01*
X135042857Y-101198866D02*
X134995238Y-101389342D01*
X134995238Y-101389342D02*
X134947619Y-101484580D01*
X134947619Y-101484580D02*
X134900000Y-101532200D01*
X134900000Y-101532200D02*
X134804762Y-101579819D01*
X134804762Y-101579819D02*
X134709524Y-101579819D01*
X134709524Y-101579819D02*
X134614286Y-101532200D01*
X134614286Y-101532200D02*
X134566667Y-101484580D01*
X134566667Y-101484580D02*
X134519048Y-101389342D01*
X134519048Y-101389342D02*
X134471429Y-101198866D01*
X134471429Y-101198866D02*
X134471429Y-100960771D01*
X134471429Y-100960771D02*
X134519048Y-100770295D01*
X134519048Y-100770295D02*
X134566667Y-100675057D01*
X134566667Y-100675057D02*
X134614286Y-100627438D01*
X134614286Y-100627438D02*
X134709524Y-100579819D01*
X121594819Y-103596666D02*
X121118628Y-103929999D01*
X121594819Y-104168094D02*
X120594819Y-104168094D01*
X120594819Y-104168094D02*
X120594819Y-103787142D01*
X120594819Y-103787142D02*
X120642438Y-103691904D01*
X120642438Y-103691904D02*
X120690057Y-103644285D01*
X120690057Y-103644285D02*
X120785295Y-103596666D01*
X120785295Y-103596666D02*
X120928152Y-103596666D01*
X120928152Y-103596666D02*
X121023390Y-103644285D01*
X121023390Y-103644285D02*
X121071009Y-103691904D01*
X121071009Y-103691904D02*
X121118628Y-103787142D01*
X121118628Y-103787142D02*
X121118628Y-104168094D01*
X120594819Y-103263332D02*
X120594819Y-102644285D01*
X120594819Y-102644285D02*
X120975771Y-102977618D01*
X120975771Y-102977618D02*
X120975771Y-102834761D01*
X120975771Y-102834761D02*
X121023390Y-102739523D01*
X121023390Y-102739523D02*
X121071009Y-102691904D01*
X121071009Y-102691904D02*
X121166247Y-102644285D01*
X121166247Y-102644285D02*
X121404342Y-102644285D01*
X121404342Y-102644285D02*
X121499580Y-102691904D01*
X121499580Y-102691904D02*
X121547200Y-102739523D01*
X121547200Y-102739523D02*
X121594819Y-102834761D01*
X121594819Y-102834761D02*
X121594819Y-103120475D01*
X121594819Y-103120475D02*
X121547200Y-103215713D01*
X121547200Y-103215713D02*
X121499580Y-103263332D01*
X152156666Y-86584819D02*
X152156666Y-87299104D01*
X152156666Y-87299104D02*
X152109047Y-87441961D01*
X152109047Y-87441961D02*
X152013809Y-87537200D01*
X152013809Y-87537200D02*
X151870952Y-87584819D01*
X151870952Y-87584819D02*
X151775714Y-87584819D01*
X152680476Y-87584819D02*
X152870952Y-87584819D01*
X152870952Y-87584819D02*
X152966190Y-87537200D01*
X152966190Y-87537200D02*
X153013809Y-87489580D01*
X153013809Y-87489580D02*
X153109047Y-87346723D01*
X153109047Y-87346723D02*
X153156666Y-87156247D01*
X153156666Y-87156247D02*
X153156666Y-86775295D01*
X153156666Y-86775295D02*
X153109047Y-86680057D01*
X153109047Y-86680057D02*
X153061428Y-86632438D01*
X153061428Y-86632438D02*
X152966190Y-86584819D01*
X152966190Y-86584819D02*
X152775714Y-86584819D01*
X152775714Y-86584819D02*
X152680476Y-86632438D01*
X152680476Y-86632438D02*
X152632857Y-86680057D01*
X152632857Y-86680057D02*
X152585238Y-86775295D01*
X152585238Y-86775295D02*
X152585238Y-87013390D01*
X152585238Y-87013390D02*
X152632857Y-87108628D01*
X152632857Y-87108628D02*
X152680476Y-87156247D01*
X152680476Y-87156247D02*
X152775714Y-87203866D01*
X152775714Y-87203866D02*
X152966190Y-87203866D01*
X152966190Y-87203866D02*
X153061428Y-87156247D01*
X153061428Y-87156247D02*
X153109047Y-87108628D01*
X153109047Y-87108628D02*
X153156666Y-87013390D01*
X165440476Y-100554819D02*
X165440476Y-101269104D01*
X165440476Y-101269104D02*
X165392857Y-101411961D01*
X165392857Y-101411961D02*
X165297619Y-101507200D01*
X165297619Y-101507200D02*
X165154762Y-101554819D01*
X165154762Y-101554819D02*
X165059524Y-101554819D01*
X166440476Y-101554819D02*
X165869048Y-101554819D01*
X166154762Y-101554819D02*
X166154762Y-100554819D01*
X166154762Y-100554819D02*
X166059524Y-100697676D01*
X166059524Y-100697676D02*
X165964286Y-100792914D01*
X165964286Y-100792914D02*
X165869048Y-100840533D01*
X167392857Y-101554819D02*
X166821429Y-101554819D01*
X167107143Y-101554819D02*
X167107143Y-100554819D01*
X167107143Y-100554819D02*
X167011905Y-100697676D01*
X167011905Y-100697676D02*
X166916667Y-100792914D01*
X166916667Y-100792914D02*
X166821429Y-100840533D01*
X126754819Y-98335357D02*
X126278628Y-98668690D01*
X126754819Y-98906785D02*
X125754819Y-98906785D01*
X125754819Y-98906785D02*
X125754819Y-98525833D01*
X125754819Y-98525833D02*
X125802438Y-98430595D01*
X125802438Y-98430595D02*
X125850057Y-98382976D01*
X125850057Y-98382976D02*
X125945295Y-98335357D01*
X125945295Y-98335357D02*
X126088152Y-98335357D01*
X126088152Y-98335357D02*
X126183390Y-98382976D01*
X126183390Y-98382976D02*
X126231009Y-98430595D01*
X126231009Y-98430595D02*
X126278628Y-98525833D01*
X126278628Y-98525833D02*
X126278628Y-98906785D01*
X126754819Y-97382976D02*
X126754819Y-97954404D01*
X126754819Y-97668690D02*
X125754819Y-97668690D01*
X125754819Y-97668690D02*
X125897676Y-97763928D01*
X125897676Y-97763928D02*
X125992914Y-97859166D01*
X125992914Y-97859166D02*
X126040533Y-97954404D01*
X125754819Y-96763928D02*
X125754819Y-96668690D01*
X125754819Y-96668690D02*
X125802438Y-96573452D01*
X125802438Y-96573452D02*
X125850057Y-96525833D01*
X125850057Y-96525833D02*
X125945295Y-96478214D01*
X125945295Y-96478214D02*
X126135771Y-96430595D01*
X126135771Y-96430595D02*
X126373866Y-96430595D01*
X126373866Y-96430595D02*
X126564342Y-96478214D01*
X126564342Y-96478214D02*
X126659580Y-96525833D01*
X126659580Y-96525833D02*
X126707200Y-96573452D01*
X126707200Y-96573452D02*
X126754819Y-96668690D01*
X126754819Y-96668690D02*
X126754819Y-96763928D01*
X126754819Y-96763928D02*
X126707200Y-96859166D01*
X126707200Y-96859166D02*
X126659580Y-96906785D01*
X126659580Y-96906785D02*
X126564342Y-96954404D01*
X126564342Y-96954404D02*
X126373866Y-97002023D01*
X126373866Y-97002023D02*
X126135771Y-97002023D01*
X126135771Y-97002023D02*
X125945295Y-96954404D01*
X125945295Y-96954404D02*
X125850057Y-96906785D01*
X125850057Y-96906785D02*
X125802438Y-96859166D01*
X125802438Y-96859166D02*
X125754819Y-96763928D01*
X150288095Y-71894819D02*
X150288095Y-72704342D01*
X150288095Y-72704342D02*
X150335714Y-72799580D01*
X150335714Y-72799580D02*
X150383333Y-72847200D01*
X150383333Y-72847200D02*
X150478571Y-72894819D01*
X150478571Y-72894819D02*
X150669047Y-72894819D01*
X150669047Y-72894819D02*
X150764285Y-72847200D01*
X150764285Y-72847200D02*
X150811904Y-72799580D01*
X150811904Y-72799580D02*
X150859523Y-72704342D01*
X150859523Y-72704342D02*
X150859523Y-71894819D01*
X151764285Y-72228152D02*
X151764285Y-72894819D01*
X151526190Y-71847200D02*
X151288095Y-72561485D01*
X151288095Y-72561485D02*
X151907142Y-72561485D01*
D11*
X129010105Y-117476307D02*
X128302999Y-118183414D01*
X128585841Y-117052043D02*
X129010105Y-117476307D01*
X124626043Y-117052043D02*
X126040257Y-118466257D01*
X126040257Y-114506459D02*
X125615993Y-114082195D01*
X125615993Y-114082195D02*
X124908886Y-114789301D01*
X146500000Y-86350000D02*
X146500000Y-87850000D01*
X147750000Y-90350000D02*
X152250000Y-90350000D01*
X152250000Y-83850000D02*
X147750000Y-83850000D01*
X153500000Y-87850000D02*
X153500000Y-86350000D01*
X174384007Y-114078895D02*
X175091114Y-114786001D01*
X173959743Y-114503159D02*
X174384007Y-114078895D01*
X173959743Y-118462957D02*
X175373957Y-117048743D01*
X171414159Y-117048743D02*
X170989895Y-117473007D01*
X170989895Y-117473007D02*
X171697001Y-118180114D01*
D12*
X174100000Y-100400000D02*
X174100000Y-101400000D01*
X170100000Y-100400000D02*
X174100000Y-100400000D01*
X170100000Y-101400000D02*
X170100000Y-100400000D01*
X174100000Y-108400000D02*
X174100000Y-107400000D01*
X170100000Y-108400000D02*
X170100000Y-107400000D01*
X170100000Y-108400000D02*
X174100000Y-108400000D01*
D11*
X170150000Y-114167500D02*
X169975000Y-114167500D01*
X167430000Y-113492500D02*
X167430000Y-114167500D01*
X170150000Y-113492500D02*
X170150000Y-114167500D01*
X167430000Y-111622500D02*
X167430000Y-110947500D01*
X170150000Y-111622500D02*
X170150000Y-110947500D01*
X167430000Y-110947500D02*
X167605000Y-110947500D01*
X170150000Y-110947500D02*
X169975000Y-110947500D01*
X152506250Y-79296250D02*
X152781250Y-79296250D01*
X162426250Y-79296250D02*
X162151250Y-79296250D01*
X152506250Y-76986250D02*
X152506250Y-79296250D01*
X152506250Y-76986250D02*
X152506250Y-74676250D01*
X162426250Y-76986250D02*
X162426250Y-79296250D01*
X162426250Y-76986250D02*
X162426250Y-74676250D01*
X152506250Y-74676250D02*
X152781250Y-74676250D01*
X162151250Y-74676250D02*
X162151250Y-73386250D01*
X162426250Y-74676250D02*
X162151250Y-74676250D01*
D13*
X159932000Y-127743750D02*
G75*
G03*
X159678000Y-127743750I-127000J0D01*
G01*
X159678000Y-127743750D02*
G75*
G03*
X159932000Y-127743750I127000J0D01*
G01*
D14*
X143041000Y-109402750D02*
G75*
G03*
X141136000Y-111307750I0J-1905000D01*
G01*
X141136000Y-128632750D02*
G75*
G03*
X143041000Y-130537750I1905000J0D01*
G01*
X158916000Y-111307750D02*
G75*
G03*
X157011000Y-109402750I-1905000J0D01*
G01*
X157011000Y-130537750D02*
G75*
G03*
X158916000Y-128632750I-1J1905001D01*
G01*
X141136000Y-111307750D02*
X141136000Y-128632750D01*
X143041000Y-130537750D02*
X157011000Y-130537750D01*
X145521000Y-124654750D02*
X154520000Y-124654750D01*
X145521000Y-130482750D02*
X145521000Y-124654750D01*
X152566000Y-119996750D02*
X152566000Y-120758750D01*
X152947000Y-120377750D02*
X152185000Y-120377750D01*
X152947000Y-122282750D02*
X152185000Y-122282750D01*
X154520000Y-124654750D02*
X154520000Y-130482750D01*
X157011000Y-109402750D02*
X143041000Y-109402750D01*
X158916000Y-111307750D02*
X158916000Y-128632750D01*
D11*
X168733642Y-110600000D02*
X168426360Y-110600000D01*
X168733642Y-109840000D02*
X168426360Y-109840000D01*
X168993641Y-115260000D02*
X168686359Y-115260000D01*
X168993641Y-114500000D02*
X168686359Y-114500000D01*
X165276359Y-111230000D02*
X165583641Y-111230000D01*
X165276359Y-111990000D02*
X165583641Y-111990000D01*
X165256359Y-113690000D02*
X165563641Y-113690000D01*
X165256359Y-114450000D02*
X165563641Y-114450000D01*
X136616358Y-114540000D02*
X136923640Y-114540000D01*
X136616358Y-115300000D02*
X136923640Y-115300000D01*
X136873641Y-116400000D02*
X136566359Y-116400000D01*
X136873641Y-115640000D02*
X136566359Y-115640000D01*
X154100000Y-87193642D02*
X154100000Y-86886360D01*
X154860000Y-87193642D02*
X154860000Y-86886360D01*
X176730684Y-114343283D02*
X176947965Y-114560564D01*
X176193283Y-114880684D02*
X176410564Y-115097965D01*
X123807965Y-114969436D02*
X123590684Y-115186717D01*
X123270564Y-114432035D02*
X123053283Y-114649316D01*
X128169940Y-80677341D02*
X127952659Y-80460060D01*
X128707341Y-80139940D02*
X128490060Y-79922659D01*
X176232659Y-85129940D02*
X176449940Y-84912659D01*
X176770060Y-85667341D02*
X176987341Y-85450060D01*
X151730000Y-77510000D02*
X151730000Y-78840000D01*
X150400000Y-77510000D02*
X151730000Y-77510000D01*
X149130000Y-77510000D02*
X131290000Y-77510000D01*
X149130000Y-77510000D02*
X149130000Y-80170000D01*
X131290000Y-77510000D02*
X131290000Y-80170000D01*
X149130000Y-80170000D02*
X131290000Y-80170000D01*
X161200000Y-110945000D02*
X162530000Y-110945000D01*
X161200000Y-112275000D02*
X161200000Y-110945000D01*
X161200000Y-113545000D02*
X161200000Y-116145000D01*
X161200000Y-113545000D02*
X163860000Y-113545000D01*
X161200000Y-116145000D02*
X163860000Y-116145000D01*
X163860000Y-113545000D02*
X163860000Y-116145000D01*
X162866994Y-82197898D02*
X163807446Y-81257446D01*
X163807446Y-83138350D02*
X162866994Y-82197898D01*
X164705472Y-84036376D02*
X177320257Y-96651161D01*
X164705472Y-84036376D02*
X166586376Y-82155472D01*
X177320257Y-96651161D02*
X179201161Y-94770257D01*
X166586376Y-82155472D02*
X179201161Y-94770257D01*
X129551472Y-111970568D02*
X134982052Y-117401148D01*
X133101148Y-119282052D02*
X134982052Y-117401148D01*
X127670568Y-113851472D02*
X129551472Y-111970568D01*
X127670568Y-113851472D02*
X133101148Y-119282052D01*
X126772542Y-112953446D02*
X125832090Y-112012994D01*
X125832090Y-112012994D02*
X126772542Y-111072542D01*
X171312164Y-113300000D02*
X171527836Y-113300000D01*
X171312164Y-114020000D02*
X171527836Y-114020000D01*
X170512164Y-109870000D02*
X170727836Y-109870000D01*
X170512164Y-110590000D02*
X170727836Y-110590000D01*
X164494420Y-74580000D02*
X164775580Y-74580000D01*
X164494420Y-73560000D02*
X164775580Y-73560000D01*
X120592164Y-96360000D02*
X120807836Y-96360000D01*
X120592164Y-97080000D02*
X120807836Y-97080000D01*
X138341250Y-73915914D02*
X138341250Y-74131586D01*
X137621250Y-73915914D02*
X137621250Y-74131586D01*
X136847836Y-117480000D02*
X136632164Y-117480000D01*
X136847836Y-116760000D02*
X136632164Y-116760000D01*
X137621250Y-76081586D02*
X137621250Y-75865914D01*
X138341250Y-76081586D02*
X138341250Y-75865914D01*
X142051250Y-73915914D02*
X142051250Y-74131586D01*
X141331250Y-73915914D02*
X141331250Y-74131586D01*
X141331250Y-76081586D02*
X141331250Y-75865914D01*
X142051250Y-76081586D02*
X142051250Y-75865914D01*
X149460000Y-73912164D02*
X149460000Y-74127836D01*
X148740000Y-73912164D02*
X148740000Y-74127836D01*
X145750000Y-73902164D02*
X145750000Y-74117836D01*
X145030000Y-73902164D02*
X145030000Y-74117836D01*
X148740000Y-76097836D02*
X148740000Y-75882164D01*
X149460000Y-76097836D02*
X149460000Y-75882164D01*
X145030000Y-76057836D02*
X145030000Y-75842164D01*
X145750000Y-76057836D02*
X145750000Y-75842164D01*
D12*
X126930000Y-86880000D02*
X126930000Y-87880000D01*
X122930000Y-86880000D02*
X126930000Y-86880000D01*
X122930000Y-87880000D02*
X122930000Y-86880000D01*
X126930000Y-94880000D02*
X126930000Y-93880000D01*
X122930000Y-94880000D02*
X122930000Y-93880000D01*
X122930000Y-94880000D02*
X126930000Y-94880000D01*
D11*
X172126955Y-79966051D02*
X171186503Y-80906503D01*
X171186503Y-79025599D02*
X172126955Y-79966051D01*
X170288477Y-78127573D02*
X168450000Y-76289096D01*
X170288477Y-78127573D02*
X168407573Y-80008477D01*
X168450000Y-76289096D02*
X166569096Y-78170000D01*
X168407573Y-80008477D02*
X166569096Y-78170000D01*
X170982284Y-82526604D02*
X171689390Y-81819497D01*
X171406548Y-82950868D02*
X170982284Y-82526604D01*
X175366346Y-82950868D02*
X173952132Y-81536654D01*
X173952132Y-85496452D02*
X174376396Y-85920716D01*
X174376396Y-85920716D02*
X175083503Y-85213610D01*
D12*
X136700000Y-96500000D02*
X136400000Y-96500000D01*
X136700000Y-96200000D01*
X136700000Y-96500000D01*
G36*
X136700000Y-96500000D02*
G01*
X136400000Y-96500000D01*
X136700000Y-96200000D01*
X136700000Y-96500000D01*
G37*
X133300000Y-93800000D02*
X137100000Y-93800000D01*
X137100000Y-93800000D02*
X137100000Y-97600000D01*
X137100000Y-97600000D02*
X133300000Y-97600000D01*
X133300000Y-97600000D02*
X133300000Y-93800000D01*
X129750000Y-99200000D02*
X140650000Y-99200000D01*
X140650000Y-99200000D02*
X140650000Y-92200000D01*
X140650000Y-92200000D02*
X129750000Y-92200000D01*
X129750000Y-92200000D02*
X129750000Y-99200000D01*
D11*
X127993045Y-120073949D02*
X128933497Y-119133497D01*
X128933497Y-121014401D02*
X127993045Y-120073949D01*
X129831523Y-121912427D02*
X131670000Y-123750904D01*
X129831523Y-121912427D02*
X131712427Y-120031523D01*
X131670000Y-123750904D02*
X133550904Y-121870000D01*
X131712427Y-120031523D02*
X133550904Y-121870000D01*
X130400000Y-81270000D02*
X131730000Y-81270000D01*
X130400000Y-82600000D02*
X130400000Y-81270000D01*
X130400000Y-83870000D02*
X130400000Y-86470000D01*
X130400000Y-83870000D02*
X133060000Y-83870000D01*
X130400000Y-86470000D02*
X133060000Y-86470000D01*
X133060000Y-83870000D02*
X133060000Y-86470000D01*
X125615993Y-85921105D02*
X124908886Y-85213999D01*
X126040257Y-85496841D02*
X125615993Y-85921105D01*
X126040257Y-81537043D02*
X124626043Y-82951257D01*
X128585841Y-82951257D02*
X129010105Y-82526993D01*
X129010105Y-82526993D02*
X128302999Y-81819886D01*
X170210000Y-118179096D02*
X171150452Y-119119548D01*
X169269548Y-119119548D02*
X170210000Y-118179096D01*
X168371522Y-120017574D02*
X166533045Y-121856051D01*
X168371522Y-120017574D02*
X170252426Y-121898478D01*
X166533045Y-121856051D02*
X168413949Y-123736955D01*
X170252426Y-121898478D02*
X168413949Y-123736955D01*
X148361250Y-74213750D02*
X148361250Y-75213750D01*
X146121250Y-76213750D02*
X146121250Y-74213750D01*
X172630000Y-97220436D02*
X172630000Y-98674564D01*
X170810000Y-97220436D02*
X170810000Y-98674564D01*
X134220000Y-112680000D02*
X134220000Y-111350000D01*
X135550000Y-112680000D02*
X134220000Y-112680000D01*
X136820000Y-112680000D02*
X139420000Y-112680000D01*
X136820000Y-112680000D02*
X136820000Y-110020000D01*
X139420000Y-112680000D02*
X139420000Y-110020000D01*
X136820000Y-110020000D02*
X139420000Y-110020000D01*
X144671250Y-74213750D02*
X144671250Y-75213750D01*
X142431250Y-76213750D02*
X142431250Y-74213750D01*
D12*
X130000000Y-100300000D02*
X130000000Y-101300000D01*
X126000000Y-100300000D02*
X130000000Y-100300000D01*
X126000000Y-101300000D02*
X126000000Y-100300000D01*
X130000000Y-108300000D02*
X130000000Y-107300000D01*
X126000000Y-108300000D02*
X126000000Y-107300000D01*
X126000000Y-108300000D02*
X130000000Y-108300000D01*
D11*
X137450000Y-117880000D02*
X135650000Y-117880000D01*
X137450000Y-117880000D02*
X138250000Y-117880000D01*
X137450000Y-121000000D02*
X136650000Y-121000000D01*
X137450000Y-121000000D02*
X138250000Y-121000000D01*
X140931250Y-74213750D02*
X140931250Y-75213750D01*
X138691250Y-76213750D02*
X138691250Y-74213750D01*
D12*
X163300000Y-95300000D02*
X163300000Y-95000000D01*
X163600000Y-95000000D01*
X163300000Y-95300000D01*
G36*
X163300000Y-95300000D02*
G01*
X163300000Y-95000000D01*
X163600000Y-95000000D01*
X163300000Y-95300000D01*
G37*
X166700000Y-97700000D02*
X162900000Y-97700000D01*
X162900000Y-97700000D02*
X162900000Y-93900000D01*
X162900000Y-93900000D02*
X166700000Y-93900000D01*
X166700000Y-93900000D02*
X166700000Y-97700000D01*
X170250000Y-92300000D02*
X159350000Y-92300000D01*
X159350000Y-92300000D02*
X159350000Y-99300000D01*
X159350000Y-99300000D02*
X170250000Y-99300000D01*
X170250000Y-99300000D02*
X170250000Y-92300000D01*
D11*
X135190000Y-108310000D02*
X135190000Y-105985000D01*
X136040000Y-108310000D02*
X135190000Y-108310000D01*
X140410000Y-108310000D02*
X139560000Y-108310000D01*
X135190000Y-102465000D02*
X132800000Y-102465000D01*
X135190000Y-100140000D02*
X135190000Y-102465000D01*
X136040000Y-100140000D02*
X135190000Y-100140000D01*
X139560000Y-100140000D02*
X140410000Y-100140000D01*
X140410000Y-100140000D02*
X140410000Y-108310000D01*
X121270000Y-107520000D02*
X121270000Y-106750000D01*
X119900000Y-106750000D02*
X122640000Y-106750000D01*
X122640000Y-106750000D02*
X122640000Y-100210000D01*
X119900000Y-100210000D02*
X119900000Y-106750000D01*
X122640000Y-100210000D02*
X119900000Y-100210000D01*
X121270000Y-99440000D02*
X121270000Y-100210000D01*
X151330000Y-89705000D02*
X150000000Y-89705000D01*
X151330000Y-88375000D02*
X151330000Y-89705000D01*
X151330000Y-87105000D02*
X151330000Y-84505000D01*
X151330000Y-87105000D02*
X148670000Y-87105000D01*
X151330000Y-84505000D02*
X148670000Y-84505000D01*
X148670000Y-87105000D02*
X148670000Y-84505000D01*
X164810000Y-100215000D02*
X164810000Y-102540000D01*
X163960000Y-100215000D02*
X164810000Y-100215000D01*
X159590000Y-100215000D02*
X160440000Y-100215000D01*
X164810000Y-106060000D02*
X167200000Y-106060000D01*
X164810000Y-108385000D02*
X164810000Y-106060000D01*
X163960000Y-108385000D02*
X164810000Y-108385000D01*
X160440000Y-108385000D02*
X159590000Y-108385000D01*
X159590000Y-108385000D02*
X159590000Y-100215000D01*
X129110000Y-97002936D02*
X129110000Y-98457064D01*
X127290000Y-97002936D02*
X127290000Y-98457064D01*
X152081250Y-74223750D02*
X152081250Y-75223750D01*
X149841250Y-76223750D02*
X149841250Y-74223750D01*
%LPC*%
G36*
X150281000Y-119247750D02*
G01*
X147531000Y-119247750D01*
X147531000Y-116747750D01*
X150281000Y-116747750D01*
X150281000Y-119247750D01*
G37*
D15*
X160580000Y-87500000D03*
X139430000Y-87500000D03*
D16*
X126888785Y-116203515D03*
D17*
X127754991Y-117069721D03*
X126022579Y-115337309D03*
D18*
X127754991Y-118342513D03*
D19*
X126818074Y-118890521D03*
X124201779Y-116274226D03*
D18*
X124749787Y-115337309D03*
D20*
X146750000Y-84850000D03*
X153250000Y-84850000D03*
X146750000Y-89350000D03*
X153250000Y-89350000D03*
D21*
X173111215Y-116200215D03*
D22*
X173977421Y-115334009D03*
X172245009Y-117066421D03*
D18*
X175250213Y-115334009D03*
D23*
X175798221Y-116270926D03*
X173181926Y-118887221D03*
D18*
X172245009Y-118339213D03*
D24*
X175100000Y-102400000D03*
X175100000Y-104400000D03*
X175100000Y-106400000D03*
X169100000Y-102400000D03*
X169100000Y-104400000D03*
X169100000Y-106400000D03*
D18*
X172100000Y-102150000D03*
X172100000Y-106650000D03*
D25*
X168040000Y-113720000D03*
X168540000Y-113720000D03*
X169040000Y-113720000D03*
X169540000Y-113720000D03*
D26*
X169702500Y-113057500D03*
X169702500Y-112557500D03*
X169702500Y-112057500D03*
D25*
X169540000Y-111395000D03*
X169040000Y-111395000D03*
X168540000Y-111395000D03*
X168040000Y-111395000D03*
D26*
X167877500Y-112057500D03*
X167877500Y-112557500D03*
X167877500Y-113057500D03*
D27*
X161691250Y-79848750D03*
X161041250Y-79848750D03*
X160391250Y-79848750D03*
X159741250Y-79848750D03*
X159091250Y-79848750D03*
X158441250Y-79848750D03*
X157791250Y-79848750D03*
X157141250Y-79848750D03*
X156491250Y-79848750D03*
X155841250Y-79848750D03*
X155191250Y-79848750D03*
X154541250Y-79848750D03*
X153891250Y-79848750D03*
X153241250Y-79848750D03*
X153241250Y-74123750D03*
X153891250Y-74123750D03*
X154541250Y-74123750D03*
X155191250Y-74123750D03*
X155841250Y-74123750D03*
X156491250Y-74123750D03*
X157141250Y-74123750D03*
X157791250Y-74123750D03*
X158441250Y-74123750D03*
X159091250Y-74123750D03*
X159741250Y-74123750D03*
X160391250Y-74123750D03*
X161041250Y-74123750D03*
X161691250Y-74123750D03*
D28*
X154471000Y-122282750D03*
D29*
X154471000Y-122282750D03*
D28*
X154471000Y-120377750D03*
D29*
X154471000Y-120377750D03*
D30*
X141916000Y-127702750D03*
X141916000Y-125162750D03*
X141916000Y-122622750D03*
X141916000Y-120082750D03*
X141916000Y-117542750D03*
X141916000Y-115002750D03*
X141916000Y-112462750D03*
X158081000Y-112462750D03*
X158081000Y-115002750D03*
X158081000Y-117542750D03*
X158081000Y-120082750D03*
X158081000Y-122622750D03*
X158081000Y-125162750D03*
X158081000Y-127702750D03*
D28*
X148916000Y-118032750D03*
D31*
X169090001Y-110220000D03*
X168070001Y-110220000D03*
X169350000Y-114880000D03*
X168330000Y-114880000D03*
D32*
X164920000Y-111610000D03*
X165940000Y-111610000D03*
X164900000Y-114070000D03*
X165920000Y-114070000D03*
X136259999Y-114920000D03*
X137279999Y-114920000D03*
D31*
X137230000Y-116020000D03*
X136210000Y-116020000D03*
D33*
X154480000Y-87550001D03*
X154480000Y-86530001D03*
D34*
X176210000Y-114360000D03*
X176931248Y-115081248D03*
D35*
X123791248Y-114448752D03*
X123070000Y-115170000D03*
D36*
X128690624Y-80660624D03*
X127969376Y-79939376D03*
D37*
X176249376Y-85650624D03*
X176970624Y-84929376D03*
D38*
X150400000Y-78840000D03*
D39*
X147860000Y-78840000D03*
X145320000Y-78840000D03*
X142780000Y-78840000D03*
X140240000Y-78840000D03*
X137700000Y-78840000D03*
X135160000Y-78840000D03*
X132620000Y-78840000D03*
D38*
X162530000Y-112275000D03*
D39*
X162530000Y-114815000D03*
D40*
X164747898Y-82197898D03*
D41*
X166543949Y-83993949D03*
X168340000Y-85790000D03*
X170136052Y-87586052D03*
X171932103Y-89382103D03*
X173728154Y-91178154D03*
X175524205Y-92974205D03*
X177320257Y-94770257D03*
X133101148Y-117401148D03*
X131305096Y-115605096D03*
X129509045Y-113809045D03*
D40*
X127712994Y-112012994D03*
D42*
X170940000Y-113660000D03*
X171900000Y-113660000D03*
X170140000Y-110230000D03*
X171100000Y-110230000D03*
D43*
X165410000Y-74070000D03*
X163860000Y-74070000D03*
D42*
X120220000Y-96720000D03*
X121180000Y-96720000D03*
D44*
X137981250Y-73543750D03*
X137981250Y-74503750D03*
D45*
X137220000Y-117120000D03*
X136260000Y-117120000D03*
D46*
X137981250Y-76453750D03*
X137981250Y-75493750D03*
D44*
X141691250Y-73543750D03*
X141691250Y-74503750D03*
D46*
X141691250Y-76453750D03*
X141691250Y-75493750D03*
D44*
X149100000Y-73540000D03*
X149100000Y-74500000D03*
X145390000Y-73530000D03*
X145390000Y-74490000D03*
D46*
X149100000Y-76470000D03*
X149100000Y-75510000D03*
X145390000Y-76430000D03*
X145390000Y-75470000D03*
D24*
X127930000Y-88880000D03*
X127930000Y-90880000D03*
X127930000Y-92880000D03*
X121930000Y-88880000D03*
X121930000Y-90880000D03*
X121930000Y-92880000D03*
D18*
X124930000Y-88630000D03*
X124930000Y-93130000D03*
D47*
X170246051Y-79966051D03*
D48*
X168450000Y-78170000D03*
D49*
X173103604Y-83799396D03*
D50*
X172237398Y-82933190D03*
X173969810Y-84665602D03*
D18*
X172237398Y-81660398D03*
D51*
X173174315Y-81112390D03*
X175790610Y-83728685D03*
D18*
X175242602Y-84665602D03*
D52*
X134320000Y-95700000D03*
D53*
X135700000Y-95700000D03*
D54*
X138900000Y-95700000D03*
X131500000Y-95700000D03*
D40*
X129873949Y-120073949D03*
D41*
X131670000Y-121870000D03*
D38*
X131730000Y-82600000D03*
D39*
X131730000Y-85140000D03*
D55*
X126888785Y-83799785D03*
D56*
X126022579Y-84665991D03*
X127754991Y-82933579D03*
D18*
X124749787Y-84665991D03*
D57*
X124201779Y-83729074D03*
X126818074Y-81112779D03*
D18*
X127754991Y-81660787D03*
D58*
X170210000Y-120060000D03*
D59*
X168413949Y-121856051D03*
D60*
X147241250Y-74713750D03*
D61*
X146491250Y-73763750D03*
X146991250Y-73763750D03*
X147491250Y-73763750D03*
X147991250Y-73763750D03*
X147991250Y-75663750D03*
X147491250Y-75663750D03*
X146991250Y-75663750D03*
X146491250Y-75663750D03*
D62*
X171720000Y-96485000D03*
X171720000Y-99410000D03*
D38*
X135550000Y-111350000D03*
D39*
X138090000Y-111350000D03*
D60*
X143551250Y-74713750D03*
D61*
X142801250Y-73763750D03*
X143301250Y-73763750D03*
X143801250Y-73763750D03*
X144301250Y-73763750D03*
X144301250Y-75663750D03*
X143801250Y-75663750D03*
X143301250Y-75663750D03*
X142801250Y-75663750D03*
D24*
X131000000Y-102300000D03*
X131000000Y-104300000D03*
X131000000Y-106300000D03*
X125000000Y-102300000D03*
X125000000Y-104300000D03*
X125000000Y-106300000D03*
D18*
X128000000Y-102050000D03*
X128000000Y-106550000D03*
D63*
X136312500Y-118490000D03*
X136312500Y-119440000D03*
X136312500Y-120390000D03*
X138587500Y-120390000D03*
X138587500Y-118490000D03*
D60*
X139811250Y-74713750D03*
D61*
X139061250Y-73763750D03*
X139561250Y-73763750D03*
X140061250Y-73763750D03*
X140561250Y-73763750D03*
X140561250Y-75663750D03*
X140061250Y-75663750D03*
X139561250Y-75663750D03*
X139061250Y-75663750D03*
D64*
X165680000Y-95800000D03*
D65*
X164300000Y-95800000D03*
D54*
X161100000Y-95800000D03*
X168500000Y-95800000D03*
D66*
X135550000Y-105225000D03*
X135550000Y-103225000D03*
D67*
X137800000Y-107625000D03*
X137800000Y-100825000D03*
D68*
X121270000Y-108560000D03*
D69*
X121270000Y-98400000D03*
D38*
X150000000Y-88375000D03*
D39*
X150000000Y-85835000D03*
D70*
X164450000Y-103300000D03*
X164450000Y-105300000D03*
D71*
X162200000Y-100900000D03*
X162200000Y-107700000D03*
D62*
X128200000Y-96267500D03*
X128200000Y-99192500D03*
D60*
X150961250Y-74723750D03*
D61*
X150211250Y-73773750D03*
X150711250Y-73773750D03*
X151211250Y-73773750D03*
X151711250Y-73773750D03*
X151711250Y-75673750D03*
X151211250Y-75673750D03*
X150711250Y-75673750D03*
X150211250Y-75673750D03*
%LPD*%
M02*
