M48
; DRILL file {KiCad 7.0.10} date Wed Jul 17 21:57:41 2024
; FORMAT={-:-/ absolute / metric / decimal}
; #@! TF.CreationDate,2024-07-17T21:57:41-05:00
; #@! TF.GenerationSoftware,Kicad,Pcbnew,7.0.10
; #@! TF.FileFunction,Plated,1,2,PTH
FMAT,2
METRIC
; #@! TA.AperFunction,Plated,PTH,ComponentDrill
T1C0.250
; #@! TA.AperFunction,Plated,PTH,ViaDrill
T2C0.400
; #@! TA.AperFunction,Plated,PTH,ComponentDrill
T3C0.800
; #@! TA.AperFunction,Plated,PTH,ComponentDrill
T4C1.000
; #@! TA.AperFunction,Plated,PTH,ComponentDrill
T5C1.100
; #@! TA.AperFunction,Plated,PTH,ComponentDrill
T6C2.565
%
G90
G05
T1
X139.311Y-74.714
X140.311Y-74.714
X143.051Y-74.714
X144.051Y-74.714
X146.741Y-74.714
X147.741Y-74.714
X150.461Y-74.724
X151.461Y-74.724
T2
X121.92Y-88.82
X122.32Y-114.37
X123.89Y-94.15
X125.0Y-100.82
X125.61Y-117.57
X128.65Y-79.22
X128.96Y-105.47
X129.83Y-83.1
X129.96Y-88.84
X129.97Y-81.43
X135.16Y-75.965
X136.78Y-76.415
X137.4Y-122.56
X138.85Y-72.57
X139.6Y-122.57
X139.78Y-125.15
X140.799Y-76.503
X142.709Y-72.579
X144.443Y-76.526
X146.424Y-72.574
X148.24Y-76.97
X150.23Y-72.886
X152.25Y-81.58
X153.01Y-82.59
X153.15Y-87.05
X154.78Y-81.51
X155.69Y-82.56
X157.24Y-83.6
X159.08Y-72.24
X159.666Y-81.212
X159.955Y-115.0
X160.3Y-123.71
X161.9Y-81.2
X163.01Y-74.08
X166.53Y-74.45
X167.08Y-110.305
X167.47Y-114.46
X169.11Y-100.79
X170.28Y-114.924
X170.52Y-112.06
X171.02Y-117.575
X171.17Y-94.85
X171.9Y-110.305
X172.237Y-82.933
X172.68Y-103.97
X174.08Y-96.59
X178.73Y-86.81
T3
X121.27Y-98.4
X121.27Y-108.56
T4
X127.713Y-112.013
X129.509Y-113.809
X129.874Y-120.074
X131.305Y-115.605
X131.67Y-121.87
X131.73Y-82.6
X131.73Y-85.14
X132.62Y-78.84
X133.101Y-117.401
X135.16Y-78.84
X135.55Y-111.35
X137.7Y-78.84
X138.09Y-111.35
X140.24Y-78.84
X142.78Y-78.84
X145.32Y-78.84
X147.86Y-78.84
X150.0Y-85.835
X150.0Y-88.375
X150.4Y-78.84
X162.53Y-112.275
X162.53Y-114.815
X164.748Y-82.198
X166.544Y-83.994
X168.34Y-85.79
X168.414Y-121.856
X168.45Y-78.17
X170.136Y-87.586
X170.21Y-120.06
X170.246Y-79.966
X171.932Y-89.382
X173.728Y-91.178
X175.524Y-92.974
X177.32Y-94.77
T5
X146.75Y-84.85
X146.75Y-89.35
X153.25Y-84.85
X153.25Y-89.35
T6
X131.5Y-95.7
X138.9Y-95.7
X161.1Y-95.8
X168.5Y-95.8
T4
X149.416Y-118.033G85X148.416Y-118.033
G05
X154.971Y-120.378G85X153.971Y-120.378
G05
X154.971Y-122.283G85X153.971Y-122.283
G05
M30
