G04 #@! TF.GenerationSoftware,KiCad,Pcbnew,7.0.10*
G04 #@! TF.CreationDate,2024-07-17T21:57:28-05:00*
G04 #@! TF.ProjectId,Swarm Robot,53776172-6d20-4526-9f62-6f742e6b6963,rev?*
G04 #@! TF.SameCoordinates,Original*
G04 #@! TF.FileFunction,Copper,L2,Bot*
G04 #@! TF.FilePolarity,Positive*
%FSLAX46Y46*%
G04 Gerber Fmt 4.6, Leading zero omitted, Abs format (unit mm)*
G04 Created by KiCad (PCBNEW 7.0.10) date 2024-07-17 21:57:28*
%MOMM*%
%LPD*%
G01*
G04 APERTURE LIST*
G04 Aperture macros list*
%AMRoundRect*
0 Rectangle with rounded corners*
0 $1 Rounding radius*
0 $2 $3 $4 $5 $6 $7 $8 $9 X,Y pos of 4 corners*
0 Add a 4 corners polygon primitive as box body*
4,1,4,$2,$3,$4,$5,$6,$7,$8,$9,$2,$3,0*
0 Add four circle primitives for the rounded corners*
1,1,$1+$1,$2,$3*
1,1,$1+$1,$4,$5*
1,1,$1+$1,$6,$7*
1,1,$1+$1,$8,$9*
0 Add four rect primitives between the rounded corners*
20,1,$1+$1,$2,$3,$4,$5,0*
20,1,$1+$1,$4,$5,$6,$7,0*
20,1,$1+$1,$6,$7,$8,$9,0*
20,1,$1+$1,$8,$9,$2,$3,0*%
%AMHorizOval*
0 Thick line with rounded ends*
0 $1 width*
0 $2 $3 position (X,Y) of the first rounded end (center of the circle)*
0 $4 $5 position (X,Y) of the second rounded end (center of the circle)*
0 Add line between two ends*
20,1,$1,$2,$3,$4,$5,0*
0 Add two circle primitives to create the rounded ends*
1,1,$1,$2,$3*
1,1,$1,$4,$5*%
%AMRotRect*
0 Rectangle, with rotation*
0 The origin of the aperture is its center*
0 $1 length*
0 $2 width*
0 $3 Rotation angle, in degrees counterclockwise*
0 Add horizontal line*
21,1,$1,$2,0,0,$3*%
G04 Aperture macros list end*
G04 #@! TA.AperFunction,ComponentPad*
%ADD10C,2.000000*%
G04 #@! TD*
G04 #@! TA.AperFunction,ComponentPad*
%ADD11RoundRect,0.375000X0.875000X0.375000X-0.875000X0.375000X-0.875000X-0.375000X0.875000X-0.375000X0*%
G04 #@! TD*
G04 #@! TA.AperFunction,ComponentPad*
%ADD12R,1.700000X1.700000*%
G04 #@! TD*
G04 #@! TA.AperFunction,ComponentPad*
%ADD13O,1.700000X1.700000*%
G04 #@! TD*
G04 #@! TA.AperFunction,ComponentPad*
%ADD14RotRect,1.700000X1.700000X45.000000*%
G04 #@! TD*
G04 #@! TA.AperFunction,ComponentPad*
%ADD15HorizOval,1.700000X0.000000X0.000000X0.000000X0.000000X0*%
G04 #@! TD*
G04 #@! TA.AperFunction,ComponentPad*
%ADD16RotRect,1.700000X1.700000X225.000000*%
G04 #@! TD*
G04 #@! TA.AperFunction,ComponentPad*
%ADD17HorizOval,1.700000X0.000000X0.000000X0.000000X0.000000X0*%
G04 #@! TD*
G04 #@! TA.AperFunction,ComponentPad*
%ADD18C,3.000000*%
G04 #@! TD*
G04 #@! TA.AperFunction,ComponentPad*
%ADD19RotRect,1.700000X1.700000X315.000000*%
G04 #@! TD*
G04 #@! TA.AperFunction,ComponentPad*
%ADD20HorizOval,1.700000X0.000000X0.000000X0.000000X0.000000X0*%
G04 #@! TD*
G04 #@! TA.AperFunction,ComponentPad*
%ADD21C,0.600000*%
G04 #@! TD*
G04 #@! TA.AperFunction,SMDPad,CuDef*
%ADD22R,1.600000X0.900000*%
G04 #@! TD*
G04 #@! TA.AperFunction,ComponentPad*
%ADD23C,1.600000*%
G04 #@! TD*
G04 #@! TA.AperFunction,ComponentPad*
%ADD24O,1.600000X1.600000*%
G04 #@! TD*
G04 #@! TA.AperFunction,ViaPad*
%ADD25C,0.800000*%
G04 #@! TD*
G04 #@! TA.AperFunction,Conductor*
%ADD26C,0.250000*%
G04 #@! TD*
G04 #@! TA.AperFunction,Conductor*
%ADD27C,0.500000*%
G04 #@! TD*
G04 APERTURE END LIST*
D10*
X146750000Y-84850000D03*
X153250000Y-84850000D03*
X146750000Y-89350000D03*
X153250000Y-89350000D03*
D11*
X154471000Y-122282750D03*
X154471000Y-120377750D03*
X148916000Y-118032750D03*
D12*
X150400000Y-78840000D03*
D13*
X147860000Y-78840000D03*
X145320000Y-78840000D03*
X142780000Y-78840000D03*
X140240000Y-78840000D03*
X137700000Y-78840000D03*
X135160000Y-78840000D03*
X132620000Y-78840000D03*
D12*
X162530000Y-112275000D03*
D13*
X162530000Y-114815000D03*
D14*
X164747898Y-82197898D03*
D15*
X166543949Y-83993949D03*
X168340000Y-85790000D03*
X170136052Y-87586052D03*
X171932103Y-89382103D03*
X173728154Y-91178154D03*
X175524205Y-92974205D03*
X177320257Y-94770257D03*
X133101148Y-117401148D03*
X131305096Y-115605096D03*
X129509045Y-113809045D03*
D14*
X127712994Y-112012994D03*
D16*
X170246051Y-79966051D03*
D17*
X168450000Y-78170000D03*
D18*
X138900000Y-95700000D03*
X131500000Y-95700000D03*
D14*
X129873949Y-120073949D03*
D15*
X131670000Y-121870000D03*
D12*
X131730000Y-82600000D03*
D13*
X131730000Y-85140000D03*
D19*
X170210000Y-120060000D03*
D20*
X168413949Y-121856051D03*
D21*
X147741250Y-74713750D03*
D22*
X147241250Y-74713750D03*
D21*
X146741250Y-74713750D03*
D12*
X135550000Y-111350000D03*
D13*
X138090000Y-111350000D03*
D21*
X144051250Y-74713750D03*
D22*
X143551250Y-74713750D03*
D21*
X143051250Y-74713750D03*
X140311250Y-74713750D03*
D22*
X139811250Y-74713750D03*
D21*
X139311250Y-74713750D03*
D18*
X161100000Y-95800000D03*
X168500000Y-95800000D03*
D23*
X121270000Y-108560000D03*
D24*
X121270000Y-98400000D03*
D12*
X150000000Y-88375000D03*
D13*
X150000000Y-85835000D03*
D21*
X151461250Y-74723750D03*
D22*
X150961250Y-74723750D03*
D21*
X150461250Y-74723750D03*
D25*
X128650000Y-79220000D03*
X160300000Y-123710000D03*
X125610000Y-117570000D03*
X139780000Y-125150000D03*
X122320000Y-114370000D03*
X153150000Y-87050000D03*
X129970000Y-81430000D03*
X135160000Y-75965000D03*
X157240000Y-83600000D03*
X171170000Y-94850000D03*
X174080000Y-96590000D03*
X140799193Y-76503026D03*
X144443216Y-76525656D03*
X136780000Y-76415000D03*
X148240000Y-76970000D03*
X139600000Y-122570000D03*
X137400000Y-122560000D03*
X163010000Y-74080000D03*
X166530000Y-74450000D03*
X172680000Y-103970000D03*
X128960000Y-105470000D03*
X123890000Y-94150000D03*
X121920000Y-88820000D03*
X170280000Y-114924280D03*
X171020153Y-117575153D03*
X171900000Y-110305000D03*
X167470000Y-114460000D03*
X167080000Y-110305000D03*
X170520000Y-112060000D03*
X159955000Y-115000000D03*
X129960000Y-88840000D03*
X125000000Y-100820000D03*
X129830000Y-83100000D03*
X169110000Y-100790000D03*
X172237398Y-82933190D03*
X161900000Y-81200000D03*
X142709408Y-72579408D03*
X146424408Y-72574408D03*
X150230000Y-72886250D03*
X138850000Y-72570000D03*
X159666250Y-81212113D03*
X159080000Y-72240000D03*
X178730000Y-86810000D03*
X152250000Y-81580000D03*
X154780000Y-81510000D03*
X153010000Y-82590000D03*
X155690000Y-82560000D03*
D26*
X161187113Y-80467113D02*
X161187113Y-80487113D01*
X158157500Y-80020000D02*
X160740000Y-80020000D01*
X160740000Y-80020000D02*
X161187113Y-80467113D01*
X151023750Y-72886250D02*
X158157500Y-80020000D01*
X150230000Y-72886250D02*
X151023750Y-72886250D01*
X161900000Y-81200000D02*
X158250000Y-84850000D01*
X158250000Y-84850000D02*
X153250000Y-84850000D01*
D27*
X129970000Y-81757918D02*
X122907918Y-88820000D01*
X129970000Y-81430000D02*
X129970000Y-81757918D01*
X122907918Y-88820000D02*
X121920000Y-88820000D01*
X136426497Y-76061497D02*
X136780000Y-76415000D01*
X135256497Y-76061497D02*
X136426497Y-76061497D01*
X135160000Y-75965000D02*
X135256497Y-76061497D01*
D26*
X168450000Y-80410000D02*
X168450000Y-78170000D01*
X171789606Y-82485398D02*
X170525398Y-82485398D01*
X170525398Y-82485398D02*
X168450000Y-80410000D01*
X172237398Y-82933190D02*
X171789606Y-82485398D01*
X142220000Y-125190000D02*
X158820000Y-125190000D01*
X158820000Y-125190000D02*
X160300000Y-123710000D01*
X139600000Y-122570000D02*
X142220000Y-125190000D01*
X129910000Y-121870000D02*
X131670000Y-121870000D01*
X125610000Y-117570000D02*
X129910000Y-121870000D01*
D27*
X151442082Y-76970000D02*
X148240000Y-76970000D01*
X153140000Y-78050000D02*
X152522082Y-78050000D01*
X152522082Y-78050000D02*
X151442082Y-76970000D01*
X157240000Y-82150000D02*
X153140000Y-78050000D01*
X157240000Y-83600000D02*
X157240000Y-82150000D01*
X172910000Y-96590000D02*
X171170000Y-94850000D01*
X174080000Y-96590000D02*
X172910000Y-96590000D01*
D26*
X136805000Y-76440000D02*
X136780000Y-76415000D01*
X147710000Y-76440000D02*
X136805000Y-76440000D01*
X148240000Y-76970000D02*
X147710000Y-76440000D01*
X137400000Y-122560000D02*
X139590000Y-122560000D01*
X139590000Y-122560000D02*
X139600000Y-122570000D01*
X163335000Y-79765000D02*
X164930000Y-78170000D01*
X161900000Y-81200000D02*
X163335000Y-79765000D01*
X163010000Y-74080000D02*
X163010000Y-79440000D01*
X163010000Y-79440000D02*
X163335000Y-79765000D01*
D27*
X163440000Y-103970000D02*
X172680000Y-103970000D01*
X154471000Y-111299000D02*
X156111000Y-111299000D01*
X156111000Y-111299000D02*
X163440000Y-103970000D01*
X152972000Y-109800000D02*
X137100000Y-109800000D01*
X137100000Y-109800000D02*
X135550000Y-111350000D01*
X154471000Y-111299000D02*
X152972000Y-109800000D01*
X154471000Y-120377750D02*
X154471000Y-111299000D01*
X129670000Y-105470000D02*
X135550000Y-111350000D01*
X128960000Y-105470000D02*
X129670000Y-105470000D01*
X121920000Y-88820000D02*
X121920000Y-91463503D01*
X121920000Y-91463503D02*
X123890000Y-93433503D01*
X123890000Y-93433503D02*
X123890000Y-94150000D01*
D26*
X170280000Y-116835000D02*
X170280000Y-114924280D01*
X171020153Y-117575153D02*
X170280000Y-116835000D01*
X159955000Y-114850000D02*
X162530000Y-112275000D01*
X159955000Y-115000000D02*
X159955000Y-114850000D01*
X129830000Y-83240000D02*
X131730000Y-85140000D01*
X129830000Y-83100000D02*
X129830000Y-83240000D01*
X164930000Y-78170000D02*
X168450000Y-78170000D01*
X161187113Y-80487113D02*
X161900000Y-81200000D01*
X149913750Y-72570000D02*
X150230000Y-72886250D01*
X138850000Y-72570000D02*
X149913750Y-72570000D01*
D27*
X154780000Y-81510000D02*
X152320000Y-81510000D01*
X152320000Y-81510000D02*
X152250000Y-81580000D01*
X153040000Y-82560000D02*
X153010000Y-82590000D01*
X155690000Y-82560000D02*
X153040000Y-82560000D01*
G04 #@! TA.AperFunction,Conductor*
G36*
X160546689Y-69544532D02*
G01*
X160551874Y-69544735D01*
X160661402Y-69549040D01*
X160947628Y-69561511D01*
X160956774Y-69562250D01*
X161135717Y-69583431D01*
X161137241Y-69583622D01*
X161359855Y-69612931D01*
X161367823Y-69614247D01*
X161554847Y-69651450D01*
X161557299Y-69651966D01*
X161766566Y-69698362D01*
X161773340Y-69700066D01*
X161960541Y-69752865D01*
X161964066Y-69753916D01*
X162165085Y-69817300D01*
X162170636Y-69819199D01*
X162354511Y-69887036D01*
X162358912Y-69888758D01*
X162552734Y-69969045D01*
X162557143Y-69970973D01*
X162735128Y-70053027D01*
X162740357Y-70055592D01*
X162927280Y-70152901D01*
X162930596Y-70154692D01*
X163100232Y-70249695D01*
X163106268Y-70253304D01*
X163286977Y-70368430D01*
X163289201Y-70369882D01*
X163308817Y-70382989D01*
X163447674Y-70475773D01*
X163454270Y-70480499D01*
X163632343Y-70617143D01*
X163633624Y-70618140D01*
X163775120Y-70729689D01*
X163782125Y-70735645D01*
X163987679Y-70924004D01*
X163988077Y-70924371D01*
X164078432Y-71007896D01*
X164081941Y-71011270D01*
X178989496Y-85918824D01*
X178992870Y-85922332D01*
X179067169Y-86002706D01*
X179067482Y-86003046D01*
X179264299Y-86217873D01*
X179265082Y-86218727D01*
X179271031Y-86225724D01*
X179377826Y-86361191D01*
X179378822Y-86362471D01*
X179520275Y-86546811D01*
X179525001Y-86553407D01*
X179627919Y-86707431D01*
X179629398Y-86709697D01*
X179747481Y-86895046D01*
X179751090Y-86901082D01*
X179843959Y-87066908D01*
X179845758Y-87070239D01*
X179867881Y-87112736D01*
X179945178Y-87261217D01*
X179947778Y-87266516D01*
X179961863Y-87297068D01*
X180028122Y-87440793D01*
X180030073Y-87445253D01*
X180112024Y-87643096D01*
X180113798Y-87647630D01*
X180180195Y-87827598D01*
X180182121Y-87833229D01*
X180246885Y-88038628D01*
X180247968Y-88042257D01*
X180299551Y-88225150D01*
X180301267Y-88231970D01*
X180348821Y-88446463D01*
X180349378Y-88449110D01*
X180385532Y-88630857D01*
X180386854Y-88638863D01*
X180417192Y-88869278D01*
X180417393Y-88870890D01*
X180437656Y-89042084D01*
X180438398Y-89051249D01*
X180451484Y-89350900D01*
X180451506Y-89351440D01*
X180455468Y-89452234D01*
X180455564Y-89457104D01*
X180455564Y-110541816D01*
X180455468Y-110546689D01*
X180451012Y-110660001D01*
X180450990Y-110660532D01*
X180438457Y-110947821D01*
X180437715Y-110956994D01*
X180416716Y-111134384D01*
X180416515Y-111135996D01*
X180387006Y-111360091D01*
X180385684Y-111368096D01*
X180348703Y-111553993D01*
X180348146Y-111556639D01*
X180301546Y-111766826D01*
X180299830Y-111773647D01*
X180247274Y-111959984D01*
X180246190Y-111963612D01*
X180182580Y-112165349D01*
X180180655Y-112170980D01*
X180113121Y-112354034D01*
X180111347Y-112358567D01*
X180030769Y-112553096D01*
X180028817Y-112557557D01*
X179947127Y-112734754D01*
X179944507Y-112740097D01*
X179846830Y-112927733D01*
X179845031Y-112931065D01*
X179750438Y-113099974D01*
X179746829Y-113106010D01*
X179631141Y-113287605D01*
X179629663Y-113289870D01*
X179524365Y-113447463D01*
X179519638Y-113454059D01*
X179382083Y-113633326D01*
X179381087Y-113634607D01*
X179270451Y-113774951D01*
X179264495Y-113781956D01*
X179073133Y-113990797D01*
X179072767Y-113991195D01*
X178992434Y-114078102D01*
X178989057Y-114081613D01*
X164081150Y-128989520D01*
X164077641Y-128992894D01*
X163997404Y-129067066D01*
X163996997Y-129067441D01*
X163781271Y-129265082D01*
X163774274Y-129271031D01*
X163638807Y-129377826D01*
X163637527Y-129378822D01*
X163453187Y-129520275D01*
X163446591Y-129525001D01*
X163292567Y-129627919D01*
X163290301Y-129629398D01*
X163104952Y-129747481D01*
X163098916Y-129751090D01*
X162933090Y-129843959D01*
X162929759Y-129845758D01*
X162738804Y-129945167D01*
X162733459Y-129947789D01*
X162559205Y-130028122D01*
X162554745Y-130030073D01*
X162356902Y-130112024D01*
X162352368Y-130113798D01*
X162172400Y-130180195D01*
X162166769Y-130182121D01*
X161961370Y-130246885D01*
X161957741Y-130247968D01*
X161774848Y-130299551D01*
X161768028Y-130301267D01*
X161553535Y-130348821D01*
X161550888Y-130349378D01*
X161369141Y-130385532D01*
X161361135Y-130386854D01*
X161130720Y-130417192D01*
X161129108Y-130417393D01*
X160957914Y-130437656D01*
X160948749Y-130438398D01*
X160649105Y-130451484D01*
X160648565Y-130451506D01*
X160547765Y-130455468D01*
X160542895Y-130455564D01*
X139458181Y-130455564D01*
X139453310Y-130455468D01*
X139338923Y-130450971D01*
X139338397Y-130450949D01*
X139052387Y-130438488D01*
X139043208Y-130437746D01*
X138864335Y-130416573D01*
X138862725Y-130416372D01*
X138640160Y-130387069D01*
X138632154Y-130385747D01*
X138445250Y-130348568D01*
X138442602Y-130348011D01*
X138233456Y-130301642D01*
X138226636Y-130299926D01*
X138039480Y-130247140D01*
X138035851Y-130246057D01*
X138025964Y-130242939D01*
X137834963Y-130182715D01*
X137829342Y-130180792D01*
X137645547Y-130112985D01*
X137641034Y-130111219D01*
X137552462Y-130074530D01*
X137447287Y-130030963D01*
X137442828Y-130029013D01*
X137372121Y-129996416D01*
X137264906Y-129946988D01*
X137259608Y-129944389D01*
X137162558Y-129893866D01*
X137072733Y-129847105D01*
X137069402Y-129845306D01*
X136899766Y-129750303D01*
X136893730Y-129746694D01*
X136713043Y-129631582D01*
X136710777Y-129630103D01*
X136552324Y-129524225D01*
X136545728Y-129519499D01*
X136367655Y-129382855D01*
X136366374Y-129381858D01*
X136224878Y-129270309D01*
X136217873Y-129264353D01*
X136012319Y-129075994D01*
X136011921Y-129075627D01*
X135921553Y-128992090D01*
X135918044Y-128988716D01*
X129611398Y-122682069D01*
X129577913Y-122620746D01*
X129582897Y-122551054D01*
X129624769Y-122495121D01*
X129690233Y-122470704D01*
X129726347Y-122474535D01*
X129726398Y-122474216D01*
X129732603Y-122475198D01*
X129733680Y-122475313D01*
X129734095Y-122475433D01*
X129734104Y-122475437D01*
X129777250Y-122482270D01*
X129788672Y-122484636D01*
X129830981Y-122495500D01*
X129851016Y-122495500D01*
X129870414Y-122497026D01*
X129890194Y-122500159D01*
X129890195Y-122500160D01*
X129890195Y-122500159D01*
X129890196Y-122500160D01*
X129933675Y-122496050D01*
X129945344Y-122495500D01*
X130394773Y-122495500D01*
X130461812Y-122515185D01*
X130496348Y-122548377D01*
X130631500Y-122741395D01*
X130631505Y-122741401D01*
X130798599Y-122908495D01*
X130823386Y-122925851D01*
X130992165Y-123044032D01*
X130992167Y-123044033D01*
X130992170Y-123044035D01*
X131206337Y-123143903D01*
X131434592Y-123205063D01*
X131622918Y-123221539D01*
X131669999Y-123225659D01*
X131670000Y-123225659D01*
X131670001Y-123225659D01*
X131709234Y-123222226D01*
X131905408Y-123205063D01*
X132133663Y-123143903D01*
X132347830Y-123044035D01*
X132541401Y-122908495D01*
X132708495Y-122741401D01*
X132835513Y-122560000D01*
X136494540Y-122560000D01*
X136514326Y-122748256D01*
X136514327Y-122748259D01*
X136572818Y-122928277D01*
X136572821Y-122928284D01*
X136667467Y-123092216D01*
X136769075Y-123205063D01*
X136794129Y-123232888D01*
X136947265Y-123344148D01*
X136947270Y-123344151D01*
X137120192Y-123421142D01*
X137120197Y-123421144D01*
X137305354Y-123460500D01*
X137305355Y-123460500D01*
X137494644Y-123460500D01*
X137494646Y-123460500D01*
X137679803Y-123421144D01*
X137852730Y-123344151D01*
X138005871Y-123232888D01*
X138008788Y-123229647D01*
X138011600Y-123226526D01*
X138071087Y-123189879D01*
X138103748Y-123185500D01*
X138887248Y-123185500D01*
X138954287Y-123205185D01*
X138979397Y-123226527D01*
X138994128Y-123242887D01*
X138994135Y-123242893D01*
X139147265Y-123354148D01*
X139147270Y-123354151D01*
X139320192Y-123431142D01*
X139320197Y-123431144D01*
X139505354Y-123470500D01*
X139564548Y-123470500D01*
X139631587Y-123490185D01*
X139652229Y-123506819D01*
X141719194Y-125573784D01*
X141729019Y-125586048D01*
X141729240Y-125585866D01*
X141734210Y-125591874D01*
X141783239Y-125637915D01*
X141786036Y-125640626D01*
X141805530Y-125660120D01*
X141808695Y-125662575D01*
X141817571Y-125670156D01*
X141849418Y-125700062D01*
X141849422Y-125700064D01*
X141866973Y-125709713D01*
X141883231Y-125720392D01*
X141899064Y-125732674D01*
X141934410Y-125747968D01*
X141939155Y-125750022D01*
X141949635Y-125755155D01*
X141987908Y-125776197D01*
X142007312Y-125781179D01*
X142025710Y-125787478D01*
X142044105Y-125795438D01*
X142087254Y-125802271D01*
X142098680Y-125804638D01*
X142140981Y-125815500D01*
X142161016Y-125815500D01*
X142180413Y-125817026D01*
X142200196Y-125820160D01*
X142243675Y-125816050D01*
X142255344Y-125815500D01*
X158737257Y-125815500D01*
X158752877Y-125817224D01*
X158752904Y-125816939D01*
X158760660Y-125817671D01*
X158760667Y-125817673D01*
X158827873Y-125815561D01*
X158831768Y-125815500D01*
X158859346Y-125815500D01*
X158859350Y-125815500D01*
X158863324Y-125814997D01*
X158874963Y-125814080D01*
X158918627Y-125812709D01*
X158937869Y-125807117D01*
X158956912Y-125803174D01*
X158976792Y-125800664D01*
X159017401Y-125784585D01*
X159028444Y-125780803D01*
X159070390Y-125768618D01*
X159087629Y-125758422D01*
X159105103Y-125749862D01*
X159123727Y-125742488D01*
X159123727Y-125742487D01*
X159123732Y-125742486D01*
X159159083Y-125716800D01*
X159168814Y-125710408D01*
X159206420Y-125688170D01*
X159220589Y-125673999D01*
X159235379Y-125661368D01*
X159251587Y-125649594D01*
X159279438Y-125615926D01*
X159287279Y-125607309D01*
X160247772Y-124646819D01*
X160309095Y-124613334D01*
X160335453Y-124610500D01*
X160394644Y-124610500D01*
X160394646Y-124610500D01*
X160579803Y-124571144D01*
X160752730Y-124494151D01*
X160905871Y-124382888D01*
X161032533Y-124242216D01*
X161127179Y-124078284D01*
X161185674Y-123898256D01*
X161205460Y-123710000D01*
X161185674Y-123521744D01*
X161127179Y-123341716D01*
X161032533Y-123177784D01*
X160905871Y-123037112D01*
X160896201Y-123030086D01*
X160752734Y-122925851D01*
X160752729Y-122925848D01*
X160579807Y-122848857D01*
X160579802Y-122848855D01*
X160434001Y-122817865D01*
X160394646Y-122809500D01*
X160205354Y-122809500D01*
X160172897Y-122816398D01*
X160020197Y-122848855D01*
X160020192Y-122848857D01*
X159847270Y-122925848D01*
X159847265Y-122925851D01*
X159694129Y-123037111D01*
X159567466Y-123177785D01*
X159472821Y-123341715D01*
X159472818Y-123341722D01*
X159430976Y-123470500D01*
X159414326Y-123521744D01*
X159396679Y-123689649D01*
X159370094Y-123754263D01*
X159361039Y-123764368D01*
X158597228Y-124528181D01*
X158535905Y-124561666D01*
X158509547Y-124564500D01*
X142530452Y-124564500D01*
X142463413Y-124544815D01*
X142442771Y-124528181D01*
X140538960Y-122624369D01*
X140505475Y-122563046D01*
X140503323Y-122549668D01*
X140485674Y-122381744D01*
X140427179Y-122201716D01*
X140332533Y-122037784D01*
X140205871Y-121897112D01*
X140205870Y-121897111D01*
X140052734Y-121785851D01*
X140052729Y-121785848D01*
X139879807Y-121708857D01*
X139879802Y-121708855D01*
X139734001Y-121677865D01*
X139694646Y-121669500D01*
X139505354Y-121669500D01*
X139472897Y-121676398D01*
X139320197Y-121708855D01*
X139320192Y-121708857D01*
X139147270Y-121785848D01*
X139147265Y-121785851D01*
X138994130Y-121897110D01*
X138989299Y-121901461D01*
X138987567Y-121899538D01*
X138937896Y-121930127D01*
X138905256Y-121934500D01*
X138103748Y-121934500D01*
X138036709Y-121914815D01*
X138011600Y-121893474D01*
X138005873Y-121887114D01*
X138005869Y-121887110D01*
X137852734Y-121775851D01*
X137852729Y-121775848D01*
X137679807Y-121698857D01*
X137679802Y-121698855D01*
X137534001Y-121667865D01*
X137494646Y-121659500D01*
X137305354Y-121659500D01*
X137272897Y-121666398D01*
X137120197Y-121698855D01*
X137120192Y-121698857D01*
X136947270Y-121775848D01*
X136947265Y-121775851D01*
X136794129Y-121887111D01*
X136667466Y-122027785D01*
X136572821Y-122191715D01*
X136572818Y-122191722D01*
X136514327Y-122371740D01*
X136514326Y-122371744D01*
X136494540Y-122560000D01*
X132835513Y-122560000D01*
X132844035Y-122547830D01*
X132943903Y-122333663D01*
X133005063Y-122105408D01*
X133025659Y-121870000D01*
X133024591Y-121857798D01*
X133017422Y-121775849D01*
X133005063Y-121634592D01*
X132943903Y-121406337D01*
X132844035Y-121192171D01*
X132834267Y-121178220D01*
X132708494Y-120998597D01*
X132541402Y-120831506D01*
X132541395Y-120831501D01*
X132537640Y-120828872D01*
X132502521Y-120804281D01*
X132347834Y-120695967D01*
X132347830Y-120695965D01*
X132317914Y-120682015D01*
X132133663Y-120596097D01*
X132133659Y-120596096D01*
X132133655Y-120596094D01*
X131905413Y-120534938D01*
X131905403Y-120534936D01*
X131670001Y-120514341D01*
X131669998Y-120514341D01*
X131626952Y-120518107D01*
X131558452Y-120504340D01*
X131508269Y-120455725D01*
X131492336Y-120387696D01*
X131503351Y-120343067D01*
X131509722Y-120329118D01*
X131561196Y-120216406D01*
X131581677Y-120073949D01*
X131561196Y-119931492D01*
X131558974Y-119926627D01*
X131501409Y-119800578D01*
X131501408Y-119800577D01*
X131501408Y-119800576D01*
X131463789Y-119753893D01*
X131463784Y-119753888D01*
X131463780Y-119753883D01*
X130194008Y-118484114D01*
X130194002Y-118484109D01*
X130193998Y-118484105D01*
X130147322Y-118446489D01*
X130016408Y-118386702D01*
X130016404Y-118386701D01*
X129873949Y-118366221D01*
X129731493Y-118386701D01*
X129731489Y-118386702D01*
X129600578Y-118446488D01*
X129553883Y-118484117D01*
X128568977Y-119469024D01*
X128507654Y-119502509D01*
X128437962Y-119497525D01*
X128393615Y-119469024D01*
X128075130Y-119150539D01*
X128041645Y-119089216D01*
X128046629Y-119019524D01*
X128088501Y-118963591D01*
X128092371Y-118960808D01*
X128222920Y-118870696D01*
X128335725Y-118743365D01*
X128414781Y-118592738D01*
X128455491Y-118427569D01*
X128455491Y-118257457D01*
X128414781Y-118092288D01*
X128398161Y-118060622D01*
X128335727Y-117941663D01*
X128286261Y-117885828D01*
X128222920Y-117814330D01*
X128149149Y-117763409D01*
X128082922Y-117717695D01*
X127923865Y-117657373D01*
X127923859Y-117657372D01*
X127797365Y-117642013D01*
X127797363Y-117642013D01*
X127712619Y-117642013D01*
X127712617Y-117642013D01*
X127586122Y-117657372D01*
X127586116Y-117657373D01*
X127427059Y-117717695D01*
X127287063Y-117814329D01*
X127174256Y-117941662D01*
X127146558Y-117994436D01*
X127097973Y-118044648D01*
X127029954Y-118060622D01*
X126964096Y-118037286D01*
X126949081Y-118024490D01*
X126548960Y-117624369D01*
X126515475Y-117563046D01*
X126513323Y-117549668D01*
X126495674Y-117381744D01*
X126437179Y-117201716D01*
X126342533Y-117037784D01*
X126215871Y-116897112D01*
X126198003Y-116884130D01*
X126062734Y-116785851D01*
X126062729Y-116785848D01*
X125889807Y-116708857D01*
X125889802Y-116708855D01*
X125728889Y-116674653D01*
X125704646Y-116669500D01*
X125515354Y-116669500D01*
X125491111Y-116674653D01*
X125330197Y-116708855D01*
X125330192Y-116708857D01*
X125157270Y-116785848D01*
X125157265Y-116785851D01*
X125004129Y-116897111D01*
X124877466Y-117037785D01*
X124782821Y-117201715D01*
X124782818Y-117201722D01*
X124733323Y-117354053D01*
X124724326Y-117381744D01*
X124722287Y-117401146D01*
X124712197Y-117497148D01*
X124685612Y-117561762D01*
X124628315Y-117601747D01*
X124558496Y-117604407D01*
X124501195Y-117571867D01*
X122871081Y-115941753D01*
X122351693Y-115422365D01*
X124049287Y-115422365D01*
X124066655Y-115492830D01*
X124089997Y-115587535D01*
X124169050Y-115738158D01*
X124169053Y-115738161D01*
X124281858Y-115865492D01*
X124372105Y-115927785D01*
X124421855Y-115962126D01*
X124421856Y-115962126D01*
X124421857Y-115962127D01*
X124523145Y-116000540D01*
X124572213Y-116019149D01*
X124580915Y-116022449D01*
X124656815Y-116031665D01*
X124707413Y-116037809D01*
X124707415Y-116037809D01*
X124792161Y-116037809D01*
X124834325Y-116032689D01*
X124918659Y-116022449D01*
X125077717Y-115962127D01*
X125217716Y-115865492D01*
X125330521Y-115738161D01*
X125409577Y-115587534D01*
X125450287Y-115422365D01*
X125450287Y-115252253D01*
X125409577Y-115087084D01*
X125407405Y-115082946D01*
X125330523Y-114936459D01*
X125251750Y-114847543D01*
X125217716Y-114809126D01*
X125167964Y-114774784D01*
X125077718Y-114712491D01*
X124918661Y-114652169D01*
X124918655Y-114652168D01*
X124792161Y-114636809D01*
X124792159Y-114636809D01*
X124707415Y-114636809D01*
X124707413Y-114636809D01*
X124580918Y-114652168D01*
X124580912Y-114652169D01*
X124421855Y-114712491D01*
X124281859Y-114809125D01*
X124169050Y-114936459D01*
X124089997Y-115087082D01*
X124065060Y-115188259D01*
X124049287Y-115252253D01*
X124049287Y-115422365D01*
X122351693Y-115422365D01*
X121010491Y-114081162D01*
X121007117Y-114077654D01*
X120976430Y-114044458D01*
X120932767Y-113997224D01*
X120932454Y-113996884D01*
X120927242Y-113991195D01*
X120734909Y-113781263D01*
X120728967Y-113774274D01*
X120622172Y-113638807D01*
X120621176Y-113637527D01*
X120568433Y-113568793D01*
X120479715Y-113453177D01*
X120475004Y-113446601D01*
X120372063Y-113292542D01*
X120370600Y-113290301D01*
X120252507Y-113104936D01*
X120248918Y-113098933D01*
X120156033Y-112933079D01*
X120154261Y-112929797D01*
X120054803Y-112738748D01*
X120052237Y-112733517D01*
X119971867Y-112559185D01*
X119969925Y-112554745D01*
X119887974Y-112356902D01*
X119886200Y-112352368D01*
X119860298Y-112282161D01*
X119819792Y-112172369D01*
X119817887Y-112166800D01*
X119769390Y-112012994D01*
X126005771Y-112012994D01*
X126026231Y-112155307D01*
X126026232Y-112155312D01*
X126085958Y-112286091D01*
X126123538Y-112332726D01*
X126581623Y-112790811D01*
X127229917Y-112142517D01*
X127253501Y-112222838D01*
X127331233Y-112343792D01*
X127439894Y-112437946D01*
X127570679Y-112497674D01*
X127580460Y-112499080D01*
X126935176Y-113144363D01*
X126935176Y-113144364D01*
X127393261Y-113602449D01*
X127439896Y-113640029D01*
X127570675Y-113699755D01*
X127570680Y-113699756D01*
X127712994Y-113720216D01*
X127855307Y-113699756D01*
X127855308Y-113699755D01*
X127982161Y-113641823D01*
X128051320Y-113631879D01*
X128114876Y-113660903D01*
X128152651Y-113719681D01*
X128157202Y-113765424D01*
X128153386Y-113809042D01*
X128153386Y-113809045D01*
X128173981Y-114044448D01*
X128173983Y-114044458D01*
X128235139Y-114272700D01*
X128235141Y-114272704D01*
X128235142Y-114272708D01*
X128324140Y-114463564D01*
X128335010Y-114486875D01*
X128335012Y-114486879D01*
X128390835Y-114566602D01*
X128470550Y-114680446D01*
X128637644Y-114847540D01*
X128718563Y-114904200D01*
X128831210Y-114983077D01*
X128831212Y-114983078D01*
X128831215Y-114983080D01*
X129045382Y-115082948D01*
X129045388Y-115082949D01*
X129045389Y-115082950D01*
X129048502Y-115083784D01*
X129273637Y-115144108D01*
X129461963Y-115160584D01*
X129509044Y-115164704D01*
X129509045Y-115164704D01*
X129509046Y-115164704D01*
X129548279Y-115161271D01*
X129744453Y-115144108D01*
X129845144Y-115117128D01*
X129914994Y-115118791D01*
X129972856Y-115157954D01*
X130000360Y-115222182D01*
X129997012Y-115268995D01*
X129970035Y-115369679D01*
X129970032Y-115369692D01*
X129949437Y-115605095D01*
X129949437Y-115605096D01*
X129970032Y-115840499D01*
X129970034Y-115840509D01*
X130031190Y-116068751D01*
X130031192Y-116068755D01*
X130031193Y-116068759D01*
X130058686Y-116127718D01*
X130131061Y-116282926D01*
X130131063Y-116282930D01*
X130239377Y-116437617D01*
X130266601Y-116476497D01*
X130433695Y-116643591D01*
X130470697Y-116669500D01*
X130627261Y-116779128D01*
X130627263Y-116779129D01*
X130627266Y-116779131D01*
X130841433Y-116878999D01*
X131069688Y-116940159D01*
X131258014Y-116956635D01*
X131305095Y-116960755D01*
X131305096Y-116960755D01*
X131305097Y-116960755D01*
X131344330Y-116957322D01*
X131540504Y-116940159D01*
X131641755Y-116913029D01*
X131711603Y-116914692D01*
X131769466Y-116953854D01*
X131796970Y-117018083D01*
X131793622Y-117064896D01*
X131766581Y-117165818D01*
X131766578Y-117165832D01*
X131745991Y-117401146D01*
X131745991Y-117401149D01*
X131766578Y-117636463D01*
X131766580Y-117636474D01*
X131827714Y-117864631D01*
X131827718Y-117864640D01*
X131927548Y-118078727D01*
X131927550Y-118078731D01*
X131986220Y-118162521D01*
X131986221Y-118162521D01*
X132618070Y-117530671D01*
X132641655Y-117610992D01*
X132719387Y-117731946D01*
X132828048Y-117826100D01*
X132958833Y-117885828D01*
X132968614Y-117887234D01*
X132339773Y-118516073D01*
X132423569Y-118574747D01*
X132637655Y-118674577D01*
X132637664Y-118674581D01*
X132865821Y-118735715D01*
X132865832Y-118735717D01*
X133101146Y-118756305D01*
X133101150Y-118756305D01*
X133336463Y-118735717D01*
X133336474Y-118735715D01*
X133564631Y-118674581D01*
X133564640Y-118674577D01*
X133778726Y-118574748D01*
X133778730Y-118574746D01*
X133862521Y-118516074D01*
X133862521Y-118516073D01*
X133830320Y-118483872D01*
X147165500Y-118483872D01*
X147165501Y-118483875D01*
X147168399Y-118526636D01*
X147168399Y-118526637D01*
X147214360Y-118711446D01*
X147298967Y-118882042D01*
X147298969Y-118882045D01*
X147418277Y-119030471D01*
X147418278Y-119030472D01*
X147566704Y-119149780D01*
X147566707Y-119149782D01*
X147737302Y-119234389D01*
X147737303Y-119234389D01*
X147737307Y-119234391D01*
X147922111Y-119280350D01*
X147964877Y-119283250D01*
X149867122Y-119283249D01*
X149909889Y-119280350D01*
X150094693Y-119234391D01*
X150265296Y-119149780D01*
X150413722Y-119030472D01*
X150533030Y-118882046D01*
X150617641Y-118711443D01*
X150663600Y-118526639D01*
X150666500Y-118483873D01*
X150666499Y-117581628D01*
X150663600Y-117538861D01*
X150617641Y-117354057D01*
X150589915Y-117298152D01*
X150533032Y-117183457D01*
X150533030Y-117183454D01*
X150413722Y-117035028D01*
X150413721Y-117035027D01*
X150265295Y-116915719D01*
X150265292Y-116915717D01*
X150094697Y-116831110D01*
X149909892Y-116785150D01*
X149888506Y-116783700D01*
X149867123Y-116782250D01*
X149867120Y-116782250D01*
X147964877Y-116782250D01*
X147964874Y-116782251D01*
X147922113Y-116785149D01*
X147922112Y-116785149D01*
X147737303Y-116831110D01*
X147566707Y-116915717D01*
X147566704Y-116915719D01*
X147418278Y-117035027D01*
X147418277Y-117035028D01*
X147298969Y-117183454D01*
X147298967Y-117183457D01*
X147214360Y-117354052D01*
X147168400Y-117538857D01*
X147165500Y-117581629D01*
X147165500Y-118483872D01*
X133830320Y-118483872D01*
X133233681Y-117887234D01*
X133243463Y-117885828D01*
X133374248Y-117826100D01*
X133482909Y-117731946D01*
X133560641Y-117610992D01*
X133584224Y-117530672D01*
X134216073Y-118162521D01*
X134216074Y-118162521D01*
X134274746Y-118078730D01*
X134274748Y-118078726D01*
X134374577Y-117864640D01*
X134374581Y-117864631D01*
X134435715Y-117636474D01*
X134435717Y-117636463D01*
X134456305Y-117401149D01*
X134456305Y-117401146D01*
X134435717Y-117165832D01*
X134435715Y-117165821D01*
X134374581Y-116937664D01*
X134374577Y-116937655D01*
X134274748Y-116723571D01*
X134274747Y-116723569D01*
X134216073Y-116639774D01*
X134216073Y-116639773D01*
X133584224Y-117271623D01*
X133560641Y-117191304D01*
X133482909Y-117070350D01*
X133374248Y-116976196D01*
X133243463Y-116916468D01*
X133233680Y-116915061D01*
X133862521Y-116286221D01*
X133862521Y-116286220D01*
X133778731Y-116227550D01*
X133778727Y-116227548D01*
X133564640Y-116127718D01*
X133564631Y-116127714D01*
X133336474Y-116066580D01*
X133336463Y-116066578D01*
X133101150Y-116045991D01*
X133101146Y-116045991D01*
X132865832Y-116066578D01*
X132865818Y-116066581D01*
X132764896Y-116093622D01*
X132695046Y-116091959D01*
X132637184Y-116052796D01*
X132609681Y-115988567D01*
X132613028Y-115941756D01*
X132640159Y-115840504D01*
X132660755Y-115605096D01*
X132659218Y-115587534D01*
X132654379Y-115532216D01*
X132640159Y-115369688D01*
X132578999Y-115141433D01*
X132479131Y-114927267D01*
X132477040Y-114924280D01*
X132343590Y-114733693D01*
X132176498Y-114566602D01*
X132176491Y-114566597D01*
X132161351Y-114555996D01*
X132137617Y-114539377D01*
X131982930Y-114431063D01*
X131982926Y-114431061D01*
X131899299Y-114392065D01*
X131768759Y-114331193D01*
X131768755Y-114331192D01*
X131768751Y-114331190D01*
X131540509Y-114270034D01*
X131540499Y-114270032D01*
X131305097Y-114249437D01*
X131305095Y-114249437D01*
X131069692Y-114270032D01*
X131069679Y-114270035D01*
X130968995Y-114297012D01*
X130899145Y-114295349D01*
X130841283Y-114256185D01*
X130813780Y-114191957D01*
X130817128Y-114145144D01*
X130818813Y-114138856D01*
X130844108Y-114044453D01*
X130864704Y-113809045D01*
X130844108Y-113573637D01*
X130782948Y-113345382D01*
X130683080Y-113131216D01*
X130661205Y-113099974D01*
X130547539Y-112937642D01*
X130380447Y-112770551D01*
X130380440Y-112770546D01*
X130186879Y-112635012D01*
X130186875Y-112635010D01*
X130162048Y-112623433D01*
X129972708Y-112535142D01*
X129972704Y-112535141D01*
X129972700Y-112535139D01*
X129744458Y-112473983D01*
X129744448Y-112473981D01*
X129509046Y-112453386D01*
X129509043Y-112453386D01*
X129465424Y-112457202D01*
X129396924Y-112443435D01*
X129346741Y-112394820D01*
X129330808Y-112326791D01*
X129341823Y-112282161D01*
X129399755Y-112155308D01*
X129399756Y-112155307D01*
X129420216Y-112012994D01*
X129399756Y-111870680D01*
X129399755Y-111870675D01*
X129340029Y-111739896D01*
X129302449Y-111693261D01*
X128844364Y-111235176D01*
X128844363Y-111235176D01*
X128196070Y-111883469D01*
X128172487Y-111803150D01*
X128094755Y-111682196D01*
X127986094Y-111588042D01*
X127855309Y-111528314D01*
X127845527Y-111526907D01*
X128490811Y-110881623D01*
X128490811Y-110881622D01*
X128032730Y-110423542D01*
X128032726Y-110423538D01*
X127986091Y-110385958D01*
X127855312Y-110326232D01*
X127855307Y-110326231D01*
X127712994Y-110305771D01*
X127570680Y-110326231D01*
X127570675Y-110326232D01*
X127439896Y-110385958D01*
X127393256Y-110423542D01*
X126935176Y-110881622D01*
X126935176Y-110881623D01*
X127580460Y-111526907D01*
X127570679Y-111528314D01*
X127439894Y-111588042D01*
X127331233Y-111682196D01*
X127253501Y-111803150D01*
X127229917Y-111883470D01*
X126581623Y-111235176D01*
X126581622Y-111235176D01*
X126123542Y-111693256D01*
X126085958Y-111739896D01*
X126026232Y-111870675D01*
X126026231Y-111870680D01*
X126005771Y-112012994D01*
X119769390Y-112012994D01*
X119753107Y-111961353D01*
X119752041Y-111957778D01*
X119700440Y-111774822D01*
X119698735Y-111768044D01*
X119651175Y-111553526D01*
X119650620Y-111550888D01*
X119614464Y-111369131D01*
X119613144Y-111361135D01*
X119613007Y-111360091D01*
X119582773Y-111130463D01*
X119582644Y-111129428D01*
X119562339Y-110957884D01*
X119561602Y-110948780D01*
X119548506Y-110648920D01*
X119544532Y-110547790D01*
X119544436Y-110542921D01*
X119544436Y-108560001D01*
X119964532Y-108560001D01*
X119984364Y-108786686D01*
X119984366Y-108786697D01*
X120043258Y-109006488D01*
X120043261Y-109006497D01*
X120139431Y-109212732D01*
X120139432Y-109212734D01*
X120269954Y-109399141D01*
X120430858Y-109560045D01*
X120430861Y-109560047D01*
X120617266Y-109690568D01*
X120823504Y-109786739D01*
X121043308Y-109845635D01*
X121205230Y-109859801D01*
X121269998Y-109865468D01*
X121270000Y-109865468D01*
X121270002Y-109865468D01*
X121326673Y-109860509D01*
X121496692Y-109845635D01*
X121716496Y-109786739D01*
X121922734Y-109690568D01*
X122109139Y-109560047D01*
X122270047Y-109399139D01*
X122400568Y-109212734D01*
X122496739Y-109006496D01*
X122555635Y-108786692D01*
X122575468Y-108560000D01*
X122555635Y-108333308D01*
X122496739Y-108113504D01*
X122400568Y-107907266D01*
X122270047Y-107720861D01*
X122270045Y-107720858D01*
X122109141Y-107559954D01*
X121922734Y-107429432D01*
X121922732Y-107429431D01*
X121716497Y-107333261D01*
X121716488Y-107333258D01*
X121496697Y-107274366D01*
X121496693Y-107274365D01*
X121496692Y-107274365D01*
X121496691Y-107274364D01*
X121496686Y-107274364D01*
X121270002Y-107254532D01*
X121269998Y-107254532D01*
X121043313Y-107274364D01*
X121043302Y-107274366D01*
X120823511Y-107333258D01*
X120823502Y-107333261D01*
X120617267Y-107429431D01*
X120617265Y-107429432D01*
X120430858Y-107559954D01*
X120269954Y-107720858D01*
X120139432Y-107907265D01*
X120139431Y-107907267D01*
X120043261Y-108113502D01*
X120043258Y-108113511D01*
X119984366Y-108333302D01*
X119984364Y-108333313D01*
X119964532Y-108559998D01*
X119964532Y-108560001D01*
X119544436Y-108560001D01*
X119544436Y-106635055D01*
X127299500Y-106635055D01*
X127340210Y-106800226D01*
X127419263Y-106950849D01*
X127419266Y-106950852D01*
X127532071Y-107078183D01*
X127622318Y-107140476D01*
X127672068Y-107174817D01*
X127672069Y-107174817D01*
X127672070Y-107174818D01*
X127831128Y-107235140D01*
X127907028Y-107244356D01*
X127957626Y-107250500D01*
X127957628Y-107250500D01*
X128042374Y-107250500D01*
X128084538Y-107245380D01*
X128168872Y-107235140D01*
X128327930Y-107174818D01*
X128467929Y-107078183D01*
X128580734Y-106950852D01*
X128607306Y-106900225D01*
X128659789Y-106800226D01*
X128659790Y-106800225D01*
X128700500Y-106635056D01*
X128700500Y-106488586D01*
X128720185Y-106421547D01*
X128772989Y-106375792D01*
X128842147Y-106365848D01*
X128850276Y-106367295D01*
X128865354Y-106370500D01*
X128865355Y-106370500D01*
X129054644Y-106370500D01*
X129054646Y-106370500D01*
X129239803Y-106331144D01*
X129310258Y-106299775D01*
X129321073Y-106294960D01*
X129390323Y-106285675D01*
X129453599Y-106315303D01*
X129459190Y-106320558D01*
X134163181Y-111024549D01*
X134196666Y-111085872D01*
X134199500Y-111112230D01*
X134199500Y-112247870D01*
X134199501Y-112247876D01*
X134205908Y-112307483D01*
X134256202Y-112442328D01*
X134256206Y-112442335D01*
X134342452Y-112557544D01*
X134342455Y-112557547D01*
X134457664Y-112643793D01*
X134457671Y-112643797D01*
X134592517Y-112694091D01*
X134592516Y-112694091D01*
X134599444Y-112694835D01*
X134652127Y-112700500D01*
X136447872Y-112700499D01*
X136507483Y-112694091D01*
X136642331Y-112643796D01*
X136757546Y-112557546D01*
X136843796Y-112442331D01*
X136845432Y-112437946D01*
X136864021Y-112388105D01*
X136893002Y-112310401D01*
X136934872Y-112254468D01*
X137000337Y-112230050D01*
X137068610Y-112244901D01*
X137096865Y-112266053D01*
X137218917Y-112388105D01*
X137412421Y-112523600D01*
X137626507Y-112623429D01*
X137626516Y-112623433D01*
X137840000Y-112680634D01*
X137840000Y-111785501D01*
X137947685Y-111834680D01*
X138054237Y-111850000D01*
X138125763Y-111850000D01*
X138232315Y-111834680D01*
X138340000Y-111785501D01*
X138340000Y-112680633D01*
X138553483Y-112623433D01*
X138553492Y-112623429D01*
X138767578Y-112523600D01*
X138961082Y-112388105D01*
X139128105Y-112221082D01*
X139263600Y-112027578D01*
X139363429Y-111813492D01*
X139363432Y-111813486D01*
X139420636Y-111600000D01*
X138523686Y-111600000D01*
X138549493Y-111559844D01*
X138590000Y-111421889D01*
X138590000Y-111278111D01*
X138549493Y-111140156D01*
X138523686Y-111100000D01*
X139420636Y-111100000D01*
X139420635Y-111099999D01*
X139363432Y-110886513D01*
X139363429Y-110886507D01*
X139289006Y-110726905D01*
X139278514Y-110657827D01*
X139307034Y-110594043D01*
X139365510Y-110555804D01*
X139401388Y-110550500D01*
X152609770Y-110550500D01*
X152676809Y-110570185D01*
X152697451Y-110586819D01*
X153684181Y-111573548D01*
X153717666Y-111634871D01*
X153720500Y-111661229D01*
X153720500Y-119003250D01*
X153700815Y-119070289D01*
X153648011Y-119116044D01*
X153596502Y-119127250D01*
X153519878Y-119127250D01*
X153519874Y-119127251D01*
X153477113Y-119130149D01*
X153477112Y-119130149D01*
X153292303Y-119176110D01*
X153121707Y-119260717D01*
X153121704Y-119260719D01*
X152973278Y-119380027D01*
X152973277Y-119380028D01*
X152853969Y-119528454D01*
X152853967Y-119528457D01*
X152769360Y-119699052D01*
X152723400Y-119883857D01*
X152720500Y-119926629D01*
X152720500Y-120828872D01*
X152720501Y-120828875D01*
X152723399Y-120871636D01*
X152723399Y-120871637D01*
X152769359Y-121056444D01*
X152810986Y-121140376D01*
X152853970Y-121227046D01*
X152853971Y-121227047D01*
X152853972Y-121227049D01*
X152874801Y-121252963D01*
X152901458Y-121317547D01*
X152888966Y-121386291D01*
X152874801Y-121408333D01*
X152854395Y-121433720D01*
X152769830Y-121604228D01*
X152723897Y-121788925D01*
X152721000Y-121831653D01*
X152721000Y-122032750D01*
X153537314Y-122032750D01*
X153511507Y-122072906D01*
X153471000Y-122210861D01*
X153471000Y-122354639D01*
X153511507Y-122492594D01*
X153537314Y-122532750D01*
X152721000Y-122532750D01*
X152721000Y-122733846D01*
X152723897Y-122776574D01*
X152769831Y-122961273D01*
X152854390Y-123131772D01*
X152854392Y-123131775D01*
X152973632Y-123280116D01*
X152973633Y-123280117D01*
X153121974Y-123399357D01*
X153121977Y-123399359D01*
X153292476Y-123483918D01*
X153477175Y-123529852D01*
X153519903Y-123532750D01*
X154221000Y-123532750D01*
X154221000Y-122782750D01*
X154721000Y-122782750D01*
X154721000Y-123532750D01*
X155422097Y-123532750D01*
X155464824Y-123529852D01*
X155649523Y-123483918D01*
X155820022Y-123399359D01*
X155820025Y-123399357D01*
X155968366Y-123280117D01*
X155968367Y-123280116D01*
X156087607Y-123131775D01*
X156087609Y-123131772D01*
X156172168Y-122961273D01*
X156218102Y-122776574D01*
X156221000Y-122733846D01*
X156221000Y-122532750D01*
X155404686Y-122532750D01*
X155430493Y-122492594D01*
X155471000Y-122354639D01*
X155471000Y-122210861D01*
X155430493Y-122072906D01*
X155404686Y-122032750D01*
X156221000Y-122032750D01*
X156221000Y-121856051D01*
X167058290Y-121856051D01*
X167078885Y-122091454D01*
X167078887Y-122091464D01*
X167140043Y-122319706D01*
X167140045Y-122319710D01*
X167140046Y-122319714D01*
X167212550Y-122475198D01*
X167239914Y-122533881D01*
X167239916Y-122533885D01*
X167303274Y-122624369D01*
X167375454Y-122727452D01*
X167542548Y-122894546D01*
X167590721Y-122928277D01*
X167736114Y-123030083D01*
X167736116Y-123030084D01*
X167736119Y-123030086D01*
X167950286Y-123129954D01*
X168178541Y-123191114D01*
X168339370Y-123205185D01*
X168413948Y-123211710D01*
X168413949Y-123211710D01*
X168413950Y-123211710D01*
X168453183Y-123208277D01*
X168649357Y-123191114D01*
X168877612Y-123129954D01*
X169091779Y-123030086D01*
X169285350Y-122894546D01*
X169452444Y-122727452D01*
X169587984Y-122533881D01*
X169687852Y-122319714D01*
X169749012Y-122091459D01*
X169769608Y-121856051D01*
X169765841Y-121813002D01*
X169779607Y-121744505D01*
X169828221Y-121694322D01*
X169896249Y-121678387D01*
X169940881Y-121689402D01*
X170067540Y-121747246D01*
X170067541Y-121747246D01*
X170067543Y-121747247D01*
X170210000Y-121767728D01*
X170352457Y-121747247D01*
X170483373Y-121687459D01*
X170530056Y-121649840D01*
X171799838Y-120380056D01*
X171837459Y-120333373D01*
X171897247Y-120202457D01*
X171917728Y-120060000D01*
X171897247Y-119917543D01*
X171881865Y-119883862D01*
X171837460Y-119786629D01*
X171837459Y-119786628D01*
X171837459Y-119786627D01*
X171799840Y-119739944D01*
X171799835Y-119739939D01*
X171799831Y-119739934D01*
X170726291Y-118666396D01*
X170692806Y-118605073D01*
X170697790Y-118535382D01*
X170739661Y-118479448D01*
X170805126Y-118455031D01*
X170839748Y-118457424D01*
X170925507Y-118475653D01*
X170925508Y-118475653D01*
X171114797Y-118475653D01*
X171114799Y-118475653D01*
X171299956Y-118436297D01*
X171387627Y-118397262D01*
X171456875Y-118387977D01*
X171520152Y-118417605D01*
X171557366Y-118476740D01*
X171558459Y-118480867D01*
X171585219Y-118589439D01*
X171664272Y-118740062D01*
X171678662Y-118756305D01*
X171777080Y-118867396D01*
X171867327Y-118929689D01*
X171917077Y-118964030D01*
X171917078Y-118964030D01*
X171917079Y-118964031D01*
X172018367Y-119002444D01*
X172064260Y-119019849D01*
X172076137Y-119024353D01*
X172152037Y-119033569D01*
X172202635Y-119039713D01*
X172202637Y-119039713D01*
X172287383Y-119039713D01*
X172329547Y-119034593D01*
X172413881Y-119024353D01*
X172572939Y-118964031D01*
X172712938Y-118867396D01*
X172825743Y-118740065D01*
X172904799Y-118589438D01*
X172945509Y-118424269D01*
X172945509Y-118254157D01*
X172904799Y-118088988D01*
X172889911Y-118060622D01*
X172825745Y-117938363D01*
X172760424Y-117864631D01*
X172712938Y-117811030D01*
X172631332Y-117754701D01*
X172572940Y-117714395D01*
X172413883Y-117654073D01*
X172413877Y-117654072D01*
X172287383Y-117638713D01*
X172287381Y-117638713D01*
X172202637Y-117638713D01*
X172202635Y-117638713D01*
X172076134Y-117654073D01*
X172075616Y-117654201D01*
X172075224Y-117654183D01*
X172068692Y-117654977D01*
X172068560Y-117653890D01*
X172005814Y-117651127D01*
X171948755Y-117610804D01*
X171922629Y-117546766D01*
X171905827Y-117386897D01*
X171847332Y-117206869D01*
X171752686Y-117042937D01*
X171626024Y-116902265D01*
X171624487Y-116901148D01*
X171472887Y-116791004D01*
X171472882Y-116791001D01*
X171299960Y-116714010D01*
X171299955Y-116714008D01*
X171154154Y-116683018D01*
X171114799Y-116674653D01*
X171114798Y-116674653D01*
X171055606Y-116674653D01*
X170988567Y-116654968D01*
X170967925Y-116638334D01*
X170941819Y-116612228D01*
X170908334Y-116550905D01*
X170905500Y-116524547D01*
X170905500Y-115622967D01*
X170925185Y-115555928D01*
X170937350Y-115539995D01*
X170955891Y-115519402D01*
X171012533Y-115456496D01*
X171034144Y-115419065D01*
X174549713Y-115419065D01*
X174558938Y-115456494D01*
X174590423Y-115584235D01*
X174669476Y-115734858D01*
X174698239Y-115767325D01*
X174782284Y-115862192D01*
X174872531Y-115924485D01*
X174922281Y-115958826D01*
X174922282Y-115958826D01*
X174922283Y-115958827D01*
X175081341Y-116019149D01*
X175157241Y-116028365D01*
X175207839Y-116034509D01*
X175207841Y-116034509D01*
X175292587Y-116034509D01*
X175334751Y-116029389D01*
X175419085Y-116019149D01*
X175578143Y-115958827D01*
X175718142Y-115862192D01*
X175830947Y-115734861D01*
X175910003Y-115584234D01*
X175950713Y-115419065D01*
X175950713Y-115248953D01*
X175910003Y-115083784D01*
X175909563Y-115082946D01*
X175830949Y-114933159D01*
X175805293Y-114904200D01*
X175718142Y-114805826D01*
X175623212Y-114740300D01*
X175578144Y-114709191D01*
X175419087Y-114648869D01*
X175419081Y-114648868D01*
X175292587Y-114633509D01*
X175292585Y-114633509D01*
X175207841Y-114633509D01*
X175207839Y-114633509D01*
X175081344Y-114648868D01*
X175081338Y-114648869D01*
X174922281Y-114709191D01*
X174782285Y-114805825D01*
X174782284Y-114805826D01*
X174777045Y-114811740D01*
X174669476Y-114933159D01*
X174590423Y-115083782D01*
X174556311Y-115222182D01*
X174549713Y-115248953D01*
X174549713Y-115419065D01*
X171034144Y-115419065D01*
X171107179Y-115292564D01*
X171165674Y-115112536D01*
X171185460Y-114924280D01*
X171165674Y-114736024D01*
X171110625Y-114566601D01*
X171107181Y-114556002D01*
X171107180Y-114556001D01*
X171107179Y-114555996D01*
X171012533Y-114392064D01*
X170885871Y-114251392D01*
X170885870Y-114251391D01*
X170732734Y-114140131D01*
X170732729Y-114140128D01*
X170559807Y-114063137D01*
X170559802Y-114063135D01*
X170414001Y-114032145D01*
X170374646Y-114023780D01*
X170185354Y-114023780D01*
X170152897Y-114030678D01*
X170000197Y-114063135D01*
X170000192Y-114063137D01*
X169827270Y-114140128D01*
X169827265Y-114140131D01*
X169674129Y-114251391D01*
X169547466Y-114392065D01*
X169452821Y-114555995D01*
X169452818Y-114556002D01*
X169394327Y-114736020D01*
X169394326Y-114736024D01*
X169374540Y-114924280D01*
X169394326Y-115112536D01*
X169394327Y-115112539D01*
X169452818Y-115292557D01*
X169452821Y-115292564D01*
X169547467Y-115456496D01*
X169580183Y-115492830D01*
X169622650Y-115539995D01*
X169652880Y-115602986D01*
X169654500Y-115622967D01*
X169654500Y-116752255D01*
X169652775Y-116767872D01*
X169653061Y-116767899D01*
X169652326Y-116775665D01*
X169654439Y-116842872D01*
X169654500Y-116846767D01*
X169654500Y-116874357D01*
X169655003Y-116878335D01*
X169655918Y-116889967D01*
X169657290Y-116933624D01*
X169657291Y-116933627D01*
X169662880Y-116952867D01*
X169666824Y-116971911D01*
X169667366Y-116976196D01*
X169669336Y-116991792D01*
X169685414Y-117032403D01*
X169689197Y-117043452D01*
X169701381Y-117085388D01*
X169711580Y-117102634D01*
X169720138Y-117120103D01*
X169727514Y-117138732D01*
X169753181Y-117174060D01*
X169759593Y-117183821D01*
X169781828Y-117221417D01*
X169781833Y-117221424D01*
X169795990Y-117235580D01*
X169808628Y-117250376D01*
X169820405Y-117266586D01*
X169820406Y-117266587D01*
X169854057Y-117294425D01*
X169862698Y-117302288D01*
X170081191Y-117520782D01*
X170114676Y-117582105D01*
X170116831Y-117595501D01*
X170123334Y-117657372D01*
X170134479Y-117763409D01*
X170134480Y-117763412D01*
X170192971Y-117943430D01*
X170192974Y-117943437D01*
X170287619Y-118107368D01*
X170323372Y-118147076D01*
X170353602Y-118210068D01*
X170344976Y-118279403D01*
X170300235Y-118333069D01*
X170233582Y-118354026D01*
X170213577Y-118352786D01*
X170210002Y-118352272D01*
X170210000Y-118352272D01*
X170067544Y-118372752D01*
X170067540Y-118372753D01*
X169936629Y-118432539D01*
X169889934Y-118470168D01*
X168620165Y-119739940D01*
X168620156Y-119739950D01*
X168582540Y-119786626D01*
X168522753Y-119917540D01*
X168522752Y-119917544D01*
X168502272Y-120060000D01*
X168522752Y-120202455D01*
X168522753Y-120202460D01*
X168580597Y-120329118D01*
X168590541Y-120398277D01*
X168561516Y-120461833D01*
X168502738Y-120499607D01*
X168456996Y-120504158D01*
X168413951Y-120500392D01*
X168413948Y-120500392D01*
X168178545Y-120520987D01*
X168178535Y-120520989D01*
X167950293Y-120582145D01*
X167950284Y-120582149D01*
X167736120Y-120682015D01*
X167736118Y-120682016D01*
X167542546Y-120817556D01*
X167375454Y-120984648D01*
X167239914Y-121178220D01*
X167239913Y-121178222D01*
X167140047Y-121392386D01*
X167140043Y-121392395D01*
X167078887Y-121620637D01*
X167078885Y-121620647D01*
X167058290Y-121856050D01*
X167058290Y-121856051D01*
X156221000Y-121856051D01*
X156221000Y-121831653D01*
X156218102Y-121788925D01*
X156172168Y-121604226D01*
X156087609Y-121433728D01*
X156067199Y-121408337D01*
X156040539Y-121343753D01*
X156053029Y-121275009D01*
X156067192Y-121252968D01*
X156088030Y-121227046D01*
X156172641Y-121056443D01*
X156218600Y-120871639D01*
X156221500Y-120828873D01*
X156221499Y-119926628D01*
X156218600Y-119883861D01*
X156172641Y-119699057D01*
X156102042Y-119556706D01*
X156088032Y-119528457D01*
X156088030Y-119528454D01*
X155968722Y-119380028D01*
X155968721Y-119380027D01*
X155820295Y-119260719D01*
X155820292Y-119260717D01*
X155649697Y-119176110D01*
X155464892Y-119130150D01*
X155439229Y-119128410D01*
X155422123Y-119127250D01*
X155422121Y-119127250D01*
X155345500Y-119127250D01*
X155278461Y-119107565D01*
X155232706Y-119054761D01*
X155221500Y-119003250D01*
X155221500Y-115000000D01*
X159049540Y-115000000D01*
X159069326Y-115188256D01*
X159069327Y-115188259D01*
X159127818Y-115368277D01*
X159127821Y-115368284D01*
X159222467Y-115532216D01*
X159272276Y-115587534D01*
X159349129Y-115672888D01*
X159502265Y-115784148D01*
X159502270Y-115784151D01*
X159675192Y-115861142D01*
X159675197Y-115861144D01*
X159860354Y-115900500D01*
X159860355Y-115900500D01*
X160049644Y-115900500D01*
X160049646Y-115900500D01*
X160234803Y-115861144D01*
X160407730Y-115784151D01*
X160560871Y-115672888D01*
X160687533Y-115532216D01*
X160782179Y-115368284D01*
X160840674Y-115188256D01*
X160860460Y-115000000D01*
X160850391Y-114904199D01*
X160862961Y-114835470D01*
X160886031Y-114803558D01*
X160962660Y-114726929D01*
X161023983Y-114693444D01*
X161093675Y-114698428D01*
X161149608Y-114740300D01*
X161174025Y-114805764D01*
X161174341Y-114814610D01*
X161174341Y-114815000D01*
X161194936Y-115050403D01*
X161194938Y-115050413D01*
X161256094Y-115278655D01*
X161256096Y-115278659D01*
X161256097Y-115278663D01*
X161297885Y-115368277D01*
X161355965Y-115492830D01*
X161355967Y-115492834D01*
X161447088Y-115622967D01*
X161491505Y-115686401D01*
X161658599Y-115853495D01*
X161725729Y-115900500D01*
X161852165Y-115989032D01*
X161852167Y-115989033D01*
X161852170Y-115989035D01*
X162066337Y-116088903D01*
X162066343Y-116088904D01*
X162066344Y-116088905D01*
X162121285Y-116103626D01*
X162294592Y-116150063D01*
X162482918Y-116166539D01*
X162529999Y-116170659D01*
X162530000Y-116170659D01*
X162530001Y-116170659D01*
X162569234Y-116167226D01*
X162765408Y-116150063D01*
X162993663Y-116088903D01*
X163207830Y-115989035D01*
X163401401Y-115853495D01*
X163568495Y-115686401D01*
X163704035Y-115492830D01*
X163803903Y-115278663D01*
X163865063Y-115050408D01*
X163885659Y-114815000D01*
X163865063Y-114579592D01*
X163803903Y-114351337D01*
X163704035Y-114137171D01*
X163690459Y-114117783D01*
X163568496Y-113943600D01*
X163566085Y-113941189D01*
X163446567Y-113821671D01*
X163413084Y-113760351D01*
X163418068Y-113690659D01*
X163459939Y-113634725D01*
X163490915Y-113617810D01*
X163622331Y-113568796D01*
X163737546Y-113482546D01*
X163823796Y-113367331D01*
X163874091Y-113232483D01*
X163880500Y-113172873D01*
X163880499Y-111377128D01*
X163874091Y-111317517D01*
X163839211Y-111224000D01*
X163823797Y-111182671D01*
X163823793Y-111182664D01*
X163737547Y-111067455D01*
X163737544Y-111067452D01*
X163622335Y-110981206D01*
X163622328Y-110981202D01*
X163487482Y-110930908D01*
X163487483Y-110930908D01*
X163427883Y-110924501D01*
X163427881Y-110924500D01*
X163427873Y-110924500D01*
X163427864Y-110924500D01*
X161632129Y-110924500D01*
X161632123Y-110924501D01*
X161572516Y-110930908D01*
X161437671Y-110981202D01*
X161437664Y-110981206D01*
X161322455Y-111067452D01*
X161322452Y-111067455D01*
X161236206Y-111182664D01*
X161236202Y-111182671D01*
X161185908Y-111317517D01*
X161179501Y-111377116D01*
X161179501Y-111377123D01*
X161179500Y-111377135D01*
X161179500Y-112689546D01*
X161159815Y-112756585D01*
X161143181Y-112777227D01*
X159836233Y-114084174D01*
X159774910Y-114117659D01*
X159774334Y-114117783D01*
X159675196Y-114138856D01*
X159675192Y-114138857D01*
X159502270Y-114215848D01*
X159502265Y-114215851D01*
X159349129Y-114327111D01*
X159222466Y-114467785D01*
X159127821Y-114631715D01*
X159127818Y-114631722D01*
X159069327Y-114811740D01*
X159069326Y-114811744D01*
X159049540Y-115000000D01*
X155221500Y-115000000D01*
X155221500Y-112173500D01*
X155241185Y-112106461D01*
X155293989Y-112060706D01*
X155345500Y-112049500D01*
X156047295Y-112049500D01*
X156065265Y-112050809D01*
X156089023Y-112054289D01*
X156138369Y-112049971D01*
X156149176Y-112049500D01*
X156154704Y-112049500D01*
X156154709Y-112049500D01*
X156185556Y-112045893D01*
X156189030Y-112045539D01*
X156263797Y-112038999D01*
X156263805Y-112038996D01*
X156270866Y-112037539D01*
X156270878Y-112037598D01*
X156278243Y-112035965D01*
X156278229Y-112035906D01*
X156285249Y-112034241D01*
X156285255Y-112034241D01*
X156355779Y-112008572D01*
X156359117Y-112007412D01*
X156430334Y-111983814D01*
X156430342Y-111983808D01*
X156436882Y-111980760D01*
X156436908Y-111980816D01*
X156443690Y-111977532D01*
X156443663Y-111977478D01*
X156450113Y-111974238D01*
X156450117Y-111974237D01*
X156512837Y-111932984D01*
X156515732Y-111931140D01*
X156579656Y-111891712D01*
X156579662Y-111891705D01*
X156585325Y-111887229D01*
X156585362Y-111887277D01*
X156591204Y-111882518D01*
X156591164Y-111882471D01*
X156596686Y-111877835D01*
X156596696Y-111877830D01*
X156648185Y-111823253D01*
X156650632Y-111820734D01*
X161736312Y-106735055D01*
X171399500Y-106735055D01*
X171440210Y-106900226D01*
X171519263Y-107050849D01*
X171543479Y-107078183D01*
X171632071Y-107178183D01*
X171714587Y-107235140D01*
X171772068Y-107274817D01*
X171772069Y-107274817D01*
X171772070Y-107274818D01*
X171856983Y-107307021D01*
X171926165Y-107333258D01*
X171931128Y-107335140D01*
X172007028Y-107344356D01*
X172057626Y-107350500D01*
X172057628Y-107350500D01*
X172142374Y-107350500D01*
X172184538Y-107345380D01*
X172268872Y-107335140D01*
X172427930Y-107274818D01*
X172567929Y-107178183D01*
X172680734Y-107050852D01*
X172759790Y-106900225D01*
X172800500Y-106735056D01*
X172800500Y-106564944D01*
X172759790Y-106399775D01*
X172741984Y-106365848D01*
X172680736Y-106249150D01*
X172661560Y-106227505D01*
X172567929Y-106121817D01*
X172518177Y-106087475D01*
X172427931Y-106025182D01*
X172268874Y-105964860D01*
X172268868Y-105964859D01*
X172142374Y-105949500D01*
X172142372Y-105949500D01*
X172057628Y-105949500D01*
X172057626Y-105949500D01*
X171931131Y-105964859D01*
X171931125Y-105964860D01*
X171772068Y-106025182D01*
X171632072Y-106121816D01*
X171519263Y-106249150D01*
X171440210Y-106399773D01*
X171399500Y-106564944D01*
X171399500Y-106735055D01*
X161736312Y-106735055D01*
X163714548Y-104756819D01*
X163775871Y-104723334D01*
X163802229Y-104720500D01*
X172140663Y-104720500D01*
X172207702Y-104740185D01*
X172213548Y-104744182D01*
X172227265Y-104754148D01*
X172227270Y-104754151D01*
X172400192Y-104831142D01*
X172400197Y-104831144D01*
X172585354Y-104870500D01*
X172585355Y-104870500D01*
X172774644Y-104870500D01*
X172774646Y-104870500D01*
X172959803Y-104831144D01*
X173132730Y-104754151D01*
X173285871Y-104642888D01*
X173412533Y-104502216D01*
X173507179Y-104338284D01*
X173565674Y-104158256D01*
X173585460Y-103970000D01*
X173565674Y-103781744D01*
X173507179Y-103601716D01*
X173412533Y-103437784D01*
X173285871Y-103297112D01*
X173282638Y-103294763D01*
X173132734Y-103185851D01*
X173132729Y-103185848D01*
X172959807Y-103108857D01*
X172959802Y-103108855D01*
X172814001Y-103077865D01*
X172774646Y-103069500D01*
X172585354Y-103069500D01*
X172552897Y-103076398D01*
X172400197Y-103108855D01*
X172400192Y-103108857D01*
X172227270Y-103185848D01*
X172227265Y-103185851D01*
X172213548Y-103195818D01*
X172147742Y-103219298D01*
X172140663Y-103219500D01*
X163503705Y-103219500D01*
X163485735Y-103218191D01*
X163461972Y-103214710D01*
X163415642Y-103218764D01*
X163412632Y-103219028D01*
X163401826Y-103219500D01*
X163396282Y-103219500D01*
X163365488Y-103223099D01*
X163361905Y-103223465D01*
X163287200Y-103230001D01*
X163280134Y-103231461D01*
X163280122Y-103231404D01*
X163272753Y-103233038D01*
X163272767Y-103233095D01*
X163265743Y-103234759D01*
X163195245Y-103260417D01*
X163191845Y-103261598D01*
X163120665Y-103285186D01*
X163120663Y-103285186D01*
X163120660Y-103285188D01*
X163114123Y-103288236D01*
X163114098Y-103288184D01*
X163107310Y-103291470D01*
X163107336Y-103291521D01*
X163100884Y-103294761D01*
X163038236Y-103335965D01*
X163035196Y-103337902D01*
X162971347Y-103377285D01*
X162965682Y-103381765D01*
X162965646Y-103381719D01*
X162959798Y-103386484D01*
X162959835Y-103386528D01*
X162954310Y-103391164D01*
X162902848Y-103445709D01*
X162900336Y-103448294D01*
X158903493Y-107445138D01*
X158842170Y-107478623D01*
X158772478Y-107473639D01*
X158716545Y-107431767D01*
X158692128Y-107366303D01*
X158702533Y-107307021D01*
X158717072Y-107274366D01*
X158805053Y-107076759D01*
X158902238Y-106777652D01*
X158967626Y-106470026D01*
X159000500Y-106157250D01*
X159000500Y-106000000D01*
X159000500Y-105999500D01*
X159000500Y-102235055D01*
X171399500Y-102235055D01*
X171440210Y-102400226D01*
X171519263Y-102550849D01*
X171519266Y-102550852D01*
X171632071Y-102678183D01*
X171714587Y-102735140D01*
X171772068Y-102774817D01*
X171772069Y-102774817D01*
X171772070Y-102774818D01*
X171931128Y-102835140D01*
X172007028Y-102844356D01*
X172057626Y-102850500D01*
X172057628Y-102850500D01*
X172142374Y-102850500D01*
X172184538Y-102845380D01*
X172268872Y-102835140D01*
X172427930Y-102774818D01*
X172567929Y-102678183D01*
X172680734Y-102550852D01*
X172759790Y-102400225D01*
X172800500Y-102235056D01*
X172800500Y-102064944D01*
X172759790Y-101899775D01*
X172759789Y-101899773D01*
X172680736Y-101749150D01*
X172661560Y-101727505D01*
X172567929Y-101621817D01*
X172518177Y-101587475D01*
X172427931Y-101525182D01*
X172268874Y-101464860D01*
X172268868Y-101464859D01*
X172142374Y-101449500D01*
X172142372Y-101449500D01*
X172057628Y-101449500D01*
X172057626Y-101449500D01*
X171931131Y-101464859D01*
X171931125Y-101464860D01*
X171772068Y-101525182D01*
X171632072Y-101621816D01*
X171519263Y-101749150D01*
X171440210Y-101899773D01*
X171399500Y-102064944D01*
X171399500Y-102235055D01*
X159000500Y-102235055D01*
X159000500Y-96582786D01*
X159020185Y-96515747D01*
X159072989Y-96469992D01*
X159142147Y-96460048D01*
X159205703Y-96489073D01*
X159240682Y-96539453D01*
X159275633Y-96633162D01*
X159275635Y-96633166D01*
X159412770Y-96884309D01*
X159412775Y-96884317D01*
X159584254Y-97113387D01*
X159584270Y-97113405D01*
X159786594Y-97315729D01*
X159786612Y-97315745D01*
X160015682Y-97487224D01*
X160015690Y-97487229D01*
X160266833Y-97624364D01*
X160266832Y-97624364D01*
X160266836Y-97624365D01*
X160266839Y-97624367D01*
X160534954Y-97724369D01*
X160534960Y-97724370D01*
X160534962Y-97724371D01*
X160814566Y-97785195D01*
X160814568Y-97785195D01*
X160814572Y-97785196D01*
X161068220Y-97803337D01*
X161099999Y-97805610D01*
X161100000Y-97805610D01*
X161100001Y-97805610D01*
X161128595Y-97803564D01*
X161385428Y-97785196D01*
X161559786Y-97747267D01*
X161665037Y-97724371D01*
X161665037Y-97724370D01*
X161665046Y-97724369D01*
X161933161Y-97624367D01*
X162184315Y-97487226D01*
X162413395Y-97315739D01*
X162615739Y-97113395D01*
X162787226Y-96884315D01*
X162924367Y-96633161D01*
X163024369Y-96365046D01*
X163055547Y-96221722D01*
X163085195Y-96085433D01*
X163085195Y-96085432D01*
X163085196Y-96085428D01*
X163105192Y-95805848D01*
X163105610Y-95800001D01*
X166494390Y-95800001D01*
X166514804Y-96085433D01*
X166575628Y-96365037D01*
X166575630Y-96365043D01*
X166575631Y-96365046D01*
X166611065Y-96460048D01*
X166675635Y-96633166D01*
X166812770Y-96884309D01*
X166812775Y-96884317D01*
X166984254Y-97113387D01*
X166984270Y-97113405D01*
X167186594Y-97315729D01*
X167186612Y-97315745D01*
X167415682Y-97487224D01*
X167415690Y-97487229D01*
X167666833Y-97624364D01*
X167666832Y-97624364D01*
X167666836Y-97624365D01*
X167666839Y-97624367D01*
X167934954Y-97724369D01*
X167934960Y-97724370D01*
X167934962Y-97724371D01*
X168214566Y-97785195D01*
X168214568Y-97785195D01*
X168214572Y-97785196D01*
X168468220Y-97803337D01*
X168499999Y-97805610D01*
X168500000Y-97805610D01*
X168500001Y-97805610D01*
X168528595Y-97803564D01*
X168785428Y-97785196D01*
X168959786Y-97747267D01*
X169065037Y-97724371D01*
X169065037Y-97724370D01*
X169065046Y-97724369D01*
X169333161Y-97624367D01*
X169584315Y-97487226D01*
X169813395Y-97315739D01*
X170015739Y-97113395D01*
X170187226Y-96884315D01*
X170324367Y-96633161D01*
X170424369Y-96365046D01*
X170455547Y-96221722D01*
X170485195Y-96085433D01*
X170485195Y-96085432D01*
X170485196Y-96085428D01*
X170505192Y-95805848D01*
X170505610Y-95800001D01*
X170505610Y-95800000D01*
X170505610Y-95799998D01*
X170500506Y-95728642D01*
X170515357Y-95660371D01*
X170564762Y-95610965D01*
X170633035Y-95596113D01*
X170697075Y-95619479D01*
X170717265Y-95634148D01*
X170717270Y-95634151D01*
X170890191Y-95711142D01*
X170890194Y-95711142D01*
X170890197Y-95711144D01*
X170924221Y-95718375D01*
X170955329Y-95724988D01*
X171016811Y-95758180D01*
X171017230Y-95758597D01*
X172334267Y-97075634D01*
X172346048Y-97089266D01*
X172360389Y-97108529D01*
X172360390Y-97108530D01*
X172398343Y-97140376D01*
X172406319Y-97147686D01*
X172410220Y-97151588D01*
X172434543Y-97170820D01*
X172437304Y-97173069D01*
X172474302Y-97204114D01*
X172494789Y-97221305D01*
X172500818Y-97225270D01*
X172500785Y-97225319D01*
X172507143Y-97229369D01*
X172507175Y-97229319D01*
X172513317Y-97233107D01*
X172513319Y-97233108D01*
X172513323Y-97233111D01*
X172581315Y-97264816D01*
X172584560Y-97266388D01*
X172651565Y-97300039D01*
X172651567Y-97300040D01*
X172651569Y-97300040D01*
X172658361Y-97302513D01*
X172658340Y-97302570D01*
X172665455Y-97305043D01*
X172665475Y-97304986D01*
X172672323Y-97307254D01*
X172672328Y-97307257D01*
X172745852Y-97322437D01*
X172749286Y-97323199D01*
X172794563Y-97333931D01*
X172822274Y-97340499D01*
X172822275Y-97340499D01*
X172822279Y-97340500D01*
X172822283Y-97340500D01*
X172829452Y-97341338D01*
X172829444Y-97341397D01*
X172836945Y-97342164D01*
X172836951Y-97342105D01*
X172844140Y-97342734D01*
X172844144Y-97342733D01*
X172844145Y-97342734D01*
X172919131Y-97340552D01*
X172922738Y-97340500D01*
X173540663Y-97340500D01*
X173607702Y-97360185D01*
X173613548Y-97364182D01*
X173627265Y-97374148D01*
X173627270Y-97374151D01*
X173800192Y-97451142D01*
X173800197Y-97451144D01*
X173985354Y-97490500D01*
X173985355Y-97490500D01*
X174174644Y-97490500D01*
X174174646Y-97490500D01*
X174359803Y-97451144D01*
X174532730Y-97374151D01*
X174685871Y-97262888D01*
X174812533Y-97122216D01*
X174907179Y-96958284D01*
X174965674Y-96778256D01*
X174985460Y-96590000D01*
X174965674Y-96401744D01*
X174907179Y-96221716D01*
X174812533Y-96057784D01*
X174685871Y-95917112D01*
X174685870Y-95917111D01*
X174532734Y-95805851D01*
X174532729Y-95805848D01*
X174359807Y-95728857D01*
X174359802Y-95728855D01*
X174214001Y-95697865D01*
X174174646Y-95689500D01*
X173985354Y-95689500D01*
X173952897Y-95696398D01*
X173800197Y-95728855D01*
X173800192Y-95728857D01*
X173627270Y-95805848D01*
X173627265Y-95805851D01*
X173613548Y-95815818D01*
X173547742Y-95839298D01*
X173540663Y-95839500D01*
X173272229Y-95839500D01*
X173205190Y-95819815D01*
X173184548Y-95803181D01*
X172082770Y-94701402D01*
X172052521Y-94652041D01*
X172009061Y-94518284D01*
X171997181Y-94481721D01*
X171997178Y-94481715D01*
X171902533Y-94317784D01*
X171775871Y-94177112D01*
X171775870Y-94177111D01*
X171622734Y-94065851D01*
X171622729Y-94065848D01*
X171449807Y-93988857D01*
X171449802Y-93988855D01*
X171304001Y-93957865D01*
X171264646Y-93949500D01*
X171075354Y-93949500D01*
X171042897Y-93956398D01*
X170890197Y-93988855D01*
X170890192Y-93988857D01*
X170717270Y-94065848D01*
X170717265Y-94065851D01*
X170564129Y-94177111D01*
X170437466Y-94317785D01*
X170342821Y-94481715D01*
X170342819Y-94481719D01*
X170316609Y-94562386D01*
X170277171Y-94620061D01*
X170212812Y-94647259D01*
X170143966Y-94635344D01*
X170099411Y-94598377D01*
X170015745Y-94486612D01*
X170015729Y-94486594D01*
X169813405Y-94284270D01*
X169813387Y-94284254D01*
X169584317Y-94112775D01*
X169584309Y-94112770D01*
X169333166Y-93975635D01*
X169333167Y-93975635D01*
X169127309Y-93898854D01*
X169065046Y-93875631D01*
X169065043Y-93875630D01*
X169065037Y-93875628D01*
X168785433Y-93814804D01*
X168500001Y-93794390D01*
X168499999Y-93794390D01*
X168214566Y-93814804D01*
X167934962Y-93875628D01*
X167666833Y-93975635D01*
X167415690Y-94112770D01*
X167415682Y-94112775D01*
X167186612Y-94284254D01*
X167186594Y-94284270D01*
X166984270Y-94486594D01*
X166984254Y-94486612D01*
X166812775Y-94715682D01*
X166812770Y-94715690D01*
X166675635Y-94966833D01*
X166575628Y-95234962D01*
X166514804Y-95514566D01*
X166494390Y-95799998D01*
X166494390Y-95800001D01*
X163105610Y-95800001D01*
X163105610Y-95799998D01*
X163097707Y-95689500D01*
X163085196Y-95514572D01*
X163063442Y-95414572D01*
X163024371Y-95234962D01*
X163024370Y-95234960D01*
X163024369Y-95234954D01*
X162924367Y-94966839D01*
X162920931Y-94960547D01*
X162787229Y-94715690D01*
X162787224Y-94715682D01*
X162615745Y-94486612D01*
X162615729Y-94486594D01*
X162413405Y-94284270D01*
X162413387Y-94284254D01*
X162184317Y-94112775D01*
X162184309Y-94112770D01*
X161933166Y-93975635D01*
X161933167Y-93975635D01*
X161727309Y-93898854D01*
X161665046Y-93875631D01*
X161665043Y-93875630D01*
X161665037Y-93875628D01*
X161385433Y-93814804D01*
X161100001Y-93794390D01*
X161099999Y-93794390D01*
X160814566Y-93814804D01*
X160534962Y-93875628D01*
X160266833Y-93975635D01*
X160015690Y-94112770D01*
X160015682Y-94112775D01*
X159786612Y-94284254D01*
X159786594Y-94284270D01*
X159584270Y-94486594D01*
X159584254Y-94486612D01*
X159412775Y-94715682D01*
X159412770Y-94715690D01*
X159275635Y-94966833D01*
X159275633Y-94966839D01*
X159252073Y-95030007D01*
X159240682Y-95060547D01*
X159198810Y-95116480D01*
X159133346Y-95140897D01*
X159065073Y-95126045D01*
X159015668Y-95076640D01*
X159000500Y-95017213D01*
X159000500Y-93842754D01*
X158997598Y-93815140D01*
X158967626Y-93529974D01*
X158902238Y-93222348D01*
X158805053Y-92923241D01*
X158677134Y-92635932D01*
X158677131Y-92635928D01*
X158677130Y-92635924D01*
X158519887Y-92363571D01*
X158519884Y-92363566D01*
X158335032Y-92109139D01*
X158335025Y-92109130D01*
X158238463Y-92001888D01*
X158124586Y-91875414D01*
X158000885Y-91764033D01*
X157890869Y-91664974D01*
X157890860Y-91664967D01*
X157636433Y-91480115D01*
X157636428Y-91480112D01*
X157364075Y-91322869D01*
X157364068Y-91322866D01*
X157222465Y-91259820D01*
X157076759Y-91194947D01*
X157076754Y-91194945D01*
X157076751Y-91194944D01*
X156777649Y-91097761D01*
X156777647Y-91097760D01*
X156512415Y-91041384D01*
X156470026Y-91032374D01*
X156157250Y-90999500D01*
X156000099Y-90999500D01*
X153809461Y-90999500D01*
X153742422Y-90979815D01*
X153696667Y-90927011D01*
X153686723Y-90857853D01*
X153715748Y-90794297D01*
X153769198Y-90758219D01*
X153795042Y-90749346D01*
X153854810Y-90728828D01*
X154073509Y-90610474D01*
X154269744Y-90457738D01*
X154438164Y-90274785D01*
X154574173Y-90066607D01*
X154674063Y-89838881D01*
X154735108Y-89597821D01*
X154736374Y-89582544D01*
X154755643Y-89350005D01*
X154755643Y-89349994D01*
X154735109Y-89102187D01*
X154735107Y-89102175D01*
X154674063Y-88861118D01*
X154574173Y-88633393D01*
X154438166Y-88425217D01*
X154416557Y-88401744D01*
X154269744Y-88242262D01*
X154073509Y-88089526D01*
X154073507Y-88089525D01*
X154073506Y-88089524D01*
X153854811Y-87971172D01*
X153854802Y-87971169D01*
X153619616Y-87890429D01*
X153374335Y-87849500D01*
X153125665Y-87849500D01*
X152880383Y-87890429D01*
X152645197Y-87971169D01*
X152645188Y-87971172D01*
X152426493Y-88089524D01*
X152230257Y-88242261D01*
X152061833Y-88425217D01*
X151925826Y-88633393D01*
X151825936Y-88861118D01*
X151764892Y-89102175D01*
X151764890Y-89102187D01*
X151744357Y-89349994D01*
X151744357Y-89350005D01*
X151764890Y-89597812D01*
X151764892Y-89597824D01*
X151825936Y-89838881D01*
X151925826Y-90066606D01*
X152061833Y-90274782D01*
X152061836Y-90274785D01*
X152230256Y-90457738D01*
X152426491Y-90610474D01*
X152426493Y-90610475D01*
X152623640Y-90717166D01*
X152645190Y-90728828D01*
X152671214Y-90737762D01*
X152730802Y-90758219D01*
X152787817Y-90798604D01*
X152813948Y-90863404D01*
X152800897Y-90932044D01*
X152752808Y-90982731D01*
X152690539Y-90999500D01*
X147309461Y-90999500D01*
X147242422Y-90979815D01*
X147196667Y-90927011D01*
X147186723Y-90857853D01*
X147215748Y-90794297D01*
X147269198Y-90758219D01*
X147295042Y-90749346D01*
X147354810Y-90728828D01*
X147573509Y-90610474D01*
X147769744Y-90457738D01*
X147938164Y-90274785D01*
X148074173Y-90066607D01*
X148174063Y-89838881D01*
X148235108Y-89597821D01*
X148236374Y-89582544D01*
X148255643Y-89350005D01*
X148255643Y-89349994D01*
X148235109Y-89102187D01*
X148235107Y-89102175D01*
X148174063Y-88861118D01*
X148074173Y-88633393D01*
X147938166Y-88425217D01*
X147916557Y-88401744D01*
X147769744Y-88242262D01*
X147573509Y-88089526D01*
X147573507Y-88089525D01*
X147573506Y-88089524D01*
X147354811Y-87971172D01*
X147354802Y-87971169D01*
X147119616Y-87890429D01*
X146874335Y-87849500D01*
X146625665Y-87849500D01*
X146380383Y-87890429D01*
X146145197Y-87971169D01*
X146145188Y-87971172D01*
X145926493Y-88089524D01*
X145730257Y-88242261D01*
X145561833Y-88425217D01*
X145425826Y-88633393D01*
X145325936Y-88861118D01*
X145264892Y-89102175D01*
X145264890Y-89102187D01*
X145244357Y-89349994D01*
X145244357Y-89350005D01*
X145264890Y-89597812D01*
X145264892Y-89597824D01*
X145325936Y-89838881D01*
X145425826Y-90066606D01*
X145561833Y-90274782D01*
X145561836Y-90274785D01*
X145730256Y-90457738D01*
X145926491Y-90610474D01*
X145926493Y-90610475D01*
X146123640Y-90717166D01*
X146145190Y-90728828D01*
X146171214Y-90737762D01*
X146230802Y-90758219D01*
X146287817Y-90798604D01*
X146313948Y-90863404D01*
X146300897Y-90932044D01*
X146252808Y-90982731D01*
X146190539Y-90999500D01*
X144000500Y-90999500D01*
X144000000Y-90999500D01*
X143842750Y-90999500D01*
X143529974Y-91032374D01*
X143529970Y-91032374D01*
X143529968Y-91032375D01*
X143222352Y-91097760D01*
X143222350Y-91097761D01*
X142923248Y-91194944D01*
X142635931Y-91322866D01*
X142635924Y-91322869D01*
X142363571Y-91480112D01*
X142363566Y-91480115D01*
X142109139Y-91664967D01*
X142109130Y-91664974D01*
X141875414Y-91875414D01*
X141664974Y-92109130D01*
X141664967Y-92109139D01*
X141480115Y-92363566D01*
X141480112Y-92363571D01*
X141322869Y-92635924D01*
X141322866Y-92635931D01*
X141194944Y-92923248D01*
X141097761Y-93222350D01*
X141097760Y-93222352D01*
X141039520Y-93496354D01*
X141032374Y-93529974D01*
X141002438Y-93814804D01*
X140999500Y-93842754D01*
X140999500Y-94917213D01*
X140979815Y-94984252D01*
X140927011Y-95030007D01*
X140857853Y-95039951D01*
X140794297Y-95010926D01*
X140759318Y-94960547D01*
X140749472Y-94934148D01*
X140724367Y-94866839D01*
X140671628Y-94770256D01*
X140587229Y-94615690D01*
X140587224Y-94615682D01*
X140415745Y-94386612D01*
X140415729Y-94386594D01*
X140213405Y-94184270D01*
X140213387Y-94184254D01*
X139984317Y-94012775D01*
X139984309Y-94012770D01*
X139733166Y-93875635D01*
X139733167Y-93875635D01*
X139570973Y-93815140D01*
X139465046Y-93775631D01*
X139465043Y-93775630D01*
X139465037Y-93775628D01*
X139185433Y-93714804D01*
X138900001Y-93694390D01*
X138899999Y-93694390D01*
X138614566Y-93714804D01*
X138334962Y-93775628D01*
X138066833Y-93875635D01*
X137815690Y-94012770D01*
X137815682Y-94012775D01*
X137586612Y-94184254D01*
X137586594Y-94184270D01*
X137384270Y-94386594D01*
X137384254Y-94386612D01*
X137212775Y-94615682D01*
X137212770Y-94615690D01*
X137075635Y-94866833D01*
X136975628Y-95134962D01*
X136914804Y-95414566D01*
X136894390Y-95699998D01*
X136894390Y-95700001D01*
X136914804Y-95985433D01*
X136975628Y-96265037D01*
X136975630Y-96265043D01*
X136975631Y-96265046D01*
X137026617Y-96401744D01*
X137075635Y-96533166D01*
X137212770Y-96784309D01*
X137212775Y-96784317D01*
X137384254Y-97013387D01*
X137384270Y-97013405D01*
X137586594Y-97215729D01*
X137586612Y-97215745D01*
X137815682Y-97387224D01*
X137815690Y-97387229D01*
X138066833Y-97524364D01*
X138066832Y-97524364D01*
X138066836Y-97524365D01*
X138066839Y-97524367D01*
X138334954Y-97624369D01*
X138334960Y-97624370D01*
X138334962Y-97624371D01*
X138614566Y-97685195D01*
X138614568Y-97685195D01*
X138614572Y-97685196D01*
X138868220Y-97703337D01*
X138899999Y-97705610D01*
X138900000Y-97705610D01*
X138900001Y-97705610D01*
X138928595Y-97703564D01*
X139185428Y-97685196D01*
X139465046Y-97624369D01*
X139733161Y-97524367D01*
X139984315Y-97387226D01*
X140213395Y-97215739D01*
X140415739Y-97013395D01*
X140587226Y-96784315D01*
X140724367Y-96533161D01*
X140759318Y-96439452D01*
X140801189Y-96383519D01*
X140866654Y-96359102D01*
X140934927Y-96373954D01*
X140984332Y-96423359D01*
X140999500Y-96482786D01*
X140999500Y-105999500D01*
X140999500Y-106000000D01*
X140999500Y-106157250D01*
X141027279Y-106421547D01*
X141032375Y-106470031D01*
X141097760Y-106777647D01*
X141097761Y-106777649D01*
X141194944Y-107076751D01*
X141194945Y-107076754D01*
X141194947Y-107076759D01*
X141282928Y-107274366D01*
X141322866Y-107364068D01*
X141322869Y-107364075D01*
X141480112Y-107636428D01*
X141480115Y-107636433D01*
X141664967Y-107890860D01*
X141664974Y-107890869D01*
X141764033Y-108000885D01*
X141875414Y-108124586D01*
X141991448Y-108229063D01*
X142109130Y-108335025D01*
X142109139Y-108335032D01*
X142363566Y-108519884D01*
X142363571Y-108519887D01*
X142635924Y-108677130D01*
X142635928Y-108677131D01*
X142635932Y-108677134D01*
X142923241Y-108805053D01*
X142930982Y-108807568D01*
X142988658Y-108847005D01*
X143015857Y-108911363D01*
X143003944Y-108980210D01*
X142956701Y-109031686D01*
X142892666Y-109049500D01*
X137163705Y-109049500D01*
X137145735Y-109048191D01*
X137121972Y-109044710D01*
X137074843Y-109048834D01*
X137072630Y-109049028D01*
X137061824Y-109049500D01*
X137056284Y-109049500D01*
X137025501Y-109053098D01*
X137021916Y-109053464D01*
X136947199Y-109060001D01*
X136940132Y-109061460D01*
X136940120Y-109061404D01*
X136932763Y-109063035D01*
X136932777Y-109063092D01*
X136925740Y-109064760D01*
X136855231Y-109090421D01*
X136851830Y-109091603D01*
X136780668Y-109115184D01*
X136774126Y-109118235D01*
X136774101Y-109118183D01*
X136767308Y-109121471D01*
X136767334Y-109121522D01*
X136760886Y-109124760D01*
X136698228Y-109165970D01*
X136695191Y-109167905D01*
X136631344Y-109207288D01*
X136625677Y-109211769D01*
X136625641Y-109211723D01*
X136619798Y-109216484D01*
X136619835Y-109216528D01*
X136614310Y-109221164D01*
X136614304Y-109221169D01*
X136614304Y-109221170D01*
X136590733Y-109246153D01*
X136562848Y-109275709D01*
X136560336Y-109278294D01*
X135875450Y-109963181D01*
X135814127Y-109996666D01*
X135787769Y-109999500D01*
X135312229Y-109999500D01*
X135245190Y-109979815D01*
X135224548Y-109963181D01*
X132739990Y-107478623D01*
X130245729Y-104984361D01*
X130233949Y-104970730D01*
X130219610Y-104951470D01*
X130181651Y-104919619D01*
X130173686Y-104912318D01*
X130169780Y-104908411D01*
X130145443Y-104889168D01*
X130142647Y-104886890D01*
X130085214Y-104838698D01*
X130079180Y-104834729D01*
X130079212Y-104834680D01*
X130072853Y-104830628D01*
X130072822Y-104830679D01*
X130066680Y-104826891D01*
X130066678Y-104826890D01*
X130066677Y-104826889D01*
X129998688Y-104795184D01*
X129995447Y-104793615D01*
X129964530Y-104778088D01*
X129928433Y-104759960D01*
X129928431Y-104759959D01*
X129928430Y-104759959D01*
X129921645Y-104757489D01*
X129921665Y-104757433D01*
X129914549Y-104754959D01*
X129914531Y-104755015D01*
X129907674Y-104752743D01*
X129834210Y-104737573D01*
X129830693Y-104736793D01*
X129757718Y-104719499D01*
X129750547Y-104718661D01*
X129750553Y-104718601D01*
X129743055Y-104717835D01*
X129743050Y-104717895D01*
X129735860Y-104717265D01*
X129660870Y-104719448D01*
X129657263Y-104719500D01*
X129499337Y-104719500D01*
X129432298Y-104699815D01*
X129426452Y-104695818D01*
X129412734Y-104685851D01*
X129412729Y-104685848D01*
X129239807Y-104608857D01*
X129239802Y-104608855D01*
X129094001Y-104577865D01*
X129054646Y-104569500D01*
X128865354Y-104569500D01*
X128832897Y-104576398D01*
X128680197Y-104608855D01*
X128680192Y-104608857D01*
X128507270Y-104685848D01*
X128507265Y-104685851D01*
X128354129Y-104797111D01*
X128227466Y-104937785D01*
X128132821Y-105101715D01*
X128132818Y-105101722D01*
X128074327Y-105281740D01*
X128074326Y-105281744D01*
X128054540Y-105470000D01*
X128074326Y-105658256D01*
X128083725Y-105687183D01*
X128085721Y-105757022D01*
X128049641Y-105816855D01*
X127986940Y-105847684D01*
X127965794Y-105849500D01*
X127957626Y-105849500D01*
X127831131Y-105864859D01*
X127831125Y-105864860D01*
X127672068Y-105925182D01*
X127532072Y-106021816D01*
X127419263Y-106149150D01*
X127340210Y-106299773D01*
X127299500Y-106464944D01*
X127299500Y-106635055D01*
X119544436Y-106635055D01*
X119544436Y-102135055D01*
X127299500Y-102135055D01*
X127340210Y-102300226D01*
X127419263Y-102450849D01*
X127419266Y-102450852D01*
X127532071Y-102578183D01*
X127622318Y-102640476D01*
X127672068Y-102674817D01*
X127672069Y-102674817D01*
X127672070Y-102674818D01*
X127831128Y-102735140D01*
X127907028Y-102744356D01*
X127957626Y-102750500D01*
X127957628Y-102750500D01*
X128042374Y-102750500D01*
X128084538Y-102745380D01*
X128168872Y-102735140D01*
X128327930Y-102674818D01*
X128467929Y-102578183D01*
X128580734Y-102450852D01*
X128607306Y-102400225D01*
X128659789Y-102300226D01*
X128659790Y-102300225D01*
X128700500Y-102135056D01*
X128700500Y-101964944D01*
X128659790Y-101799775D01*
X128633219Y-101749148D01*
X128580736Y-101649150D01*
X128556520Y-101621816D01*
X128467929Y-101521817D01*
X128385412Y-101464859D01*
X128327931Y-101425182D01*
X128168874Y-101364860D01*
X128168868Y-101364859D01*
X128042374Y-101349500D01*
X128042372Y-101349500D01*
X127957628Y-101349500D01*
X127957626Y-101349500D01*
X127831131Y-101364859D01*
X127831125Y-101364860D01*
X127672068Y-101425182D01*
X127532072Y-101521816D01*
X127419263Y-101649150D01*
X127340210Y-101799773D01*
X127299500Y-101964944D01*
X127299500Y-102135055D01*
X119544436Y-102135055D01*
X119544436Y-98400001D01*
X119964532Y-98400001D01*
X119984364Y-98626686D01*
X119984366Y-98626697D01*
X120043258Y-98846488D01*
X120043261Y-98846497D01*
X120139431Y-99052732D01*
X120139432Y-99052734D01*
X120269954Y-99239141D01*
X120430858Y-99400045D01*
X120430861Y-99400047D01*
X120617266Y-99530568D01*
X120823504Y-99626739D01*
X121043308Y-99685635D01*
X121205230Y-99699801D01*
X121269998Y-99705468D01*
X121270000Y-99705468D01*
X121270002Y-99705468D01*
X121326673Y-99700509D01*
X121496692Y-99685635D01*
X121716496Y-99626739D01*
X121922734Y-99530568D01*
X122109139Y-99400047D01*
X122270047Y-99239139D01*
X122400568Y-99052734D01*
X122496739Y-98846496D01*
X122555635Y-98626692D01*
X122575468Y-98400000D01*
X122555635Y-98173308D01*
X122496739Y-97953504D01*
X122400568Y-97747266D01*
X122270047Y-97560861D01*
X122270045Y-97560858D01*
X122109141Y-97399954D01*
X121922734Y-97269432D01*
X121922732Y-97269431D01*
X121716497Y-97173261D01*
X121716488Y-97173258D01*
X121496697Y-97114366D01*
X121496693Y-97114365D01*
X121496692Y-97114365D01*
X121496691Y-97114364D01*
X121496686Y-97114364D01*
X121270002Y-97094532D01*
X121269998Y-97094532D01*
X121043313Y-97114364D01*
X121043302Y-97114366D01*
X120823511Y-97173258D01*
X120823502Y-97173261D01*
X120617267Y-97269431D01*
X120617265Y-97269432D01*
X120430858Y-97399954D01*
X120269954Y-97560858D01*
X120139432Y-97747265D01*
X120139431Y-97747267D01*
X120043261Y-97953502D01*
X120043258Y-97953511D01*
X119984366Y-98173302D01*
X119984364Y-98173313D01*
X119964532Y-98399998D01*
X119964532Y-98400001D01*
X119544436Y-98400001D01*
X119544436Y-95700001D01*
X129494390Y-95700001D01*
X129514804Y-95985433D01*
X129575628Y-96265037D01*
X129575630Y-96265043D01*
X129575631Y-96265046D01*
X129626617Y-96401744D01*
X129675635Y-96533166D01*
X129812770Y-96784309D01*
X129812775Y-96784317D01*
X129984254Y-97013387D01*
X129984270Y-97013405D01*
X130186594Y-97215729D01*
X130186612Y-97215745D01*
X130415682Y-97387224D01*
X130415690Y-97387229D01*
X130666833Y-97524364D01*
X130666832Y-97524364D01*
X130666836Y-97524365D01*
X130666839Y-97524367D01*
X130934954Y-97624369D01*
X130934960Y-97624370D01*
X130934962Y-97624371D01*
X131214566Y-97685195D01*
X131214568Y-97685195D01*
X131214572Y-97685196D01*
X131468220Y-97703337D01*
X131499999Y-97705610D01*
X131500000Y-97705610D01*
X131500001Y-97705610D01*
X131528595Y-97703564D01*
X131785428Y-97685196D01*
X132065046Y-97624369D01*
X132333161Y-97524367D01*
X132584315Y-97387226D01*
X132813395Y-97215739D01*
X133015739Y-97013395D01*
X133187226Y-96784315D01*
X133324367Y-96533161D01*
X133424369Y-96265046D01*
X133485196Y-95985428D01*
X133505610Y-95700000D01*
X133485196Y-95414572D01*
X133446124Y-95234962D01*
X133424371Y-95134962D01*
X133424370Y-95134960D01*
X133424369Y-95134954D01*
X133324367Y-94866839D01*
X133271628Y-94770256D01*
X133187229Y-94615690D01*
X133187224Y-94615682D01*
X133015745Y-94386612D01*
X133015729Y-94386594D01*
X132813405Y-94184270D01*
X132813387Y-94184254D01*
X132584317Y-94012775D01*
X132584309Y-94012770D01*
X132333166Y-93875635D01*
X132333167Y-93875635D01*
X132170973Y-93815140D01*
X132065046Y-93775631D01*
X132065043Y-93775630D01*
X132065037Y-93775628D01*
X131785433Y-93714804D01*
X131500001Y-93694390D01*
X131499999Y-93694390D01*
X131214566Y-93714804D01*
X130934962Y-93775628D01*
X130666833Y-93875635D01*
X130415690Y-94012770D01*
X130415682Y-94012775D01*
X130186612Y-94184254D01*
X130186594Y-94184270D01*
X129984270Y-94386594D01*
X129984254Y-94386612D01*
X129812775Y-94615682D01*
X129812770Y-94615690D01*
X129675635Y-94866833D01*
X129575628Y-95134962D01*
X129514804Y-95414566D01*
X129494390Y-95699998D01*
X129494390Y-95700001D01*
X119544436Y-95700001D01*
X119544436Y-89458179D01*
X119544532Y-89453311D01*
X119546127Y-89412712D01*
X119549042Y-89338527D01*
X119561511Y-89052366D01*
X119562250Y-89043229D01*
X119583436Y-88864244D01*
X119583626Y-88862725D01*
X119583838Y-88861118D01*
X119589252Y-88820000D01*
X121014540Y-88820000D01*
X121034326Y-89008256D01*
X121034327Y-89008259D01*
X121092818Y-89188277D01*
X121092821Y-89188284D01*
X121143915Y-89276782D01*
X121152887Y-89292321D01*
X121169500Y-89354321D01*
X121169500Y-91399797D01*
X121168191Y-91417766D01*
X121164710Y-91441528D01*
X121169028Y-91490871D01*
X121169500Y-91501679D01*
X121169500Y-91507214D01*
X121173098Y-91537998D01*
X121173464Y-91541586D01*
X121180000Y-91616294D01*
X121181461Y-91623370D01*
X121181403Y-91623381D01*
X121183034Y-91630740D01*
X121183092Y-91630727D01*
X121184757Y-91637752D01*
X121184758Y-91637757D01*
X121184759Y-91637758D01*
X121207522Y-91700302D01*
X121210400Y-91708208D01*
X121211582Y-91711610D01*
X121235182Y-91782829D01*
X121238236Y-91789377D01*
X121238182Y-91789401D01*
X121241470Y-91796191D01*
X121241521Y-91796166D01*
X121244761Y-91802617D01*
X121285979Y-91865287D01*
X121287889Y-91868285D01*
X121318972Y-91918677D01*
X121327289Y-91932161D01*
X121331766Y-91937822D01*
X121331719Y-91937859D01*
X121336482Y-91943705D01*
X121336528Y-91943667D01*
X121341173Y-91949202D01*
X121395707Y-92000652D01*
X121398295Y-92003166D01*
X123037686Y-93642557D01*
X123071171Y-93703880D01*
X123066187Y-93773572D01*
X123063289Y-93780664D01*
X123062821Y-93781713D01*
X123008304Y-93949500D01*
X123004326Y-93961744D01*
X122984540Y-94150000D01*
X123004326Y-94338256D01*
X123004327Y-94338259D01*
X123062818Y-94518277D01*
X123062821Y-94518284D01*
X123157467Y-94682216D01*
X123236739Y-94770256D01*
X123284129Y-94822888D01*
X123437265Y-94934148D01*
X123437270Y-94934151D01*
X123610192Y-95011142D01*
X123610197Y-95011144D01*
X123795354Y-95050500D01*
X123795355Y-95050500D01*
X123984644Y-95050500D01*
X123984646Y-95050500D01*
X124169803Y-95011144D01*
X124342730Y-94934151D01*
X124495871Y-94822888D01*
X124622533Y-94682216D01*
X124717179Y-94518284D01*
X124775674Y-94338256D01*
X124795460Y-94150000D01*
X124776274Y-93967458D01*
X124788843Y-93898732D01*
X124836575Y-93847708D01*
X124899595Y-93830500D01*
X124972374Y-93830500D01*
X125014538Y-93825380D01*
X125098872Y-93815140D01*
X125257930Y-93754818D01*
X125397929Y-93658183D01*
X125510734Y-93530852D01*
X125589790Y-93380225D01*
X125630500Y-93215056D01*
X125630500Y-93044944D01*
X125589790Y-92879775D01*
X125589789Y-92879773D01*
X125510736Y-92729150D01*
X125430076Y-92638104D01*
X125397929Y-92601817D01*
X125299409Y-92533813D01*
X125257931Y-92505182D01*
X125098874Y-92444860D01*
X125098868Y-92444859D01*
X124972374Y-92429500D01*
X124972372Y-92429500D01*
X124887628Y-92429500D01*
X124887626Y-92429500D01*
X124761131Y-92444859D01*
X124761125Y-92444860D01*
X124602068Y-92505182D01*
X124462069Y-92601818D01*
X124388582Y-92684768D01*
X124329393Y-92721895D01*
X124259527Y-92721127D01*
X124208086Y-92690222D01*
X123467066Y-91949202D01*
X122706819Y-91188954D01*
X122673334Y-91127631D01*
X122670500Y-91101273D01*
X122670500Y-89694500D01*
X122690185Y-89627461D01*
X122742989Y-89581706D01*
X122794500Y-89570500D01*
X122844213Y-89570500D01*
X122862183Y-89571809D01*
X122885941Y-89575289D01*
X122935287Y-89570971D01*
X122946094Y-89570500D01*
X122951622Y-89570500D01*
X122951627Y-89570500D01*
X122982474Y-89566893D01*
X122985948Y-89566539D01*
X123060715Y-89559999D01*
X123060723Y-89559996D01*
X123067784Y-89558539D01*
X123067796Y-89558598D01*
X123075161Y-89556965D01*
X123075147Y-89556906D01*
X123082167Y-89555241D01*
X123082173Y-89555241D01*
X123152697Y-89529572D01*
X123156035Y-89528412D01*
X123227252Y-89504814D01*
X123227260Y-89504808D01*
X123233800Y-89501760D01*
X123233826Y-89501816D01*
X123240608Y-89498532D01*
X123240581Y-89498478D01*
X123247031Y-89495238D01*
X123247035Y-89495237D01*
X123309755Y-89453984D01*
X123312650Y-89452140D01*
X123376574Y-89412712D01*
X123376580Y-89412705D01*
X123382243Y-89408229D01*
X123382280Y-89408277D01*
X123388122Y-89403518D01*
X123388082Y-89403471D01*
X123393604Y-89398835D01*
X123393614Y-89398830D01*
X123445103Y-89344253D01*
X123447550Y-89341734D01*
X124043335Y-88745949D01*
X124104656Y-88712466D01*
X124174348Y-88717450D01*
X124230281Y-88759322D01*
X124251411Y-88803956D01*
X124270210Y-88880227D01*
X124349263Y-89030849D01*
X124363963Y-89047442D01*
X124462071Y-89158183D01*
X124505680Y-89188284D01*
X124602068Y-89254817D01*
X124602069Y-89254817D01*
X124602070Y-89254818D01*
X124649654Y-89272864D01*
X124750369Y-89311060D01*
X124761128Y-89315140D01*
X124837028Y-89324356D01*
X124887626Y-89330500D01*
X124887628Y-89330500D01*
X124972374Y-89330500D01*
X125014538Y-89325380D01*
X125098872Y-89315140D01*
X125257930Y-89254818D01*
X125397929Y-89158183D01*
X125510734Y-89030852D01*
X125522594Y-89008256D01*
X125569734Y-88918438D01*
X125589790Y-88880225D01*
X125630500Y-88715056D01*
X125630500Y-88544944D01*
X125589790Y-88379775D01*
X125573317Y-88348389D01*
X125510736Y-88229150D01*
X125448855Y-88159301D01*
X125397929Y-88101817D01*
X125322435Y-88049707D01*
X125257931Y-88005182D01*
X125093713Y-87942903D01*
X125038010Y-87900725D01*
X125013953Y-87835128D01*
X125029180Y-87766937D01*
X125049999Y-87739284D01*
X125221520Y-87567763D01*
X137575787Y-87567763D01*
X137605413Y-87837013D01*
X137605415Y-87837024D01*
X137671428Y-88089526D01*
X137673928Y-88099088D01*
X137779870Y-88348390D01*
X137846431Y-88457454D01*
X137920979Y-88579605D01*
X137920986Y-88579615D01*
X138094253Y-88787819D01*
X138094259Y-88787824D01*
X138255649Y-88932429D01*
X138295998Y-88968582D01*
X138521910Y-89118044D01*
X138767176Y-89233020D01*
X138767183Y-89233022D01*
X138767185Y-89233023D01*
X139026557Y-89311057D01*
X139026564Y-89311058D01*
X139026569Y-89311060D01*
X139294561Y-89350500D01*
X139294566Y-89350500D01*
X139497629Y-89350500D01*
X139497631Y-89350500D01*
X139497636Y-89350499D01*
X139497648Y-89350499D01*
X139535191Y-89347750D01*
X139700156Y-89335677D01*
X139812758Y-89310593D01*
X139964546Y-89276782D01*
X139964548Y-89276781D01*
X139964553Y-89276780D01*
X140217558Y-89180014D01*
X140453777Y-89047441D01*
X140668177Y-88881888D01*
X140856186Y-88686881D01*
X141013799Y-88466579D01*
X141105724Y-88287784D01*
X141137649Y-88225690D01*
X141137651Y-88225684D01*
X141137656Y-88225675D01*
X141225118Y-87969305D01*
X141274319Y-87702933D01*
X141284212Y-87432235D01*
X141254586Y-87162982D01*
X141186072Y-86900912D01*
X141080130Y-86651610D01*
X140939018Y-86420390D01*
X140933621Y-86413905D01*
X140765746Y-86212180D01*
X140765740Y-86212175D01*
X140564002Y-86031418D01*
X140338092Y-85881957D01*
X140338090Y-85881956D01*
X140092824Y-85766980D01*
X140092819Y-85766978D01*
X140092814Y-85766976D01*
X139833442Y-85688942D01*
X139833428Y-85688939D01*
X139717791Y-85671921D01*
X139565439Y-85649500D01*
X139362369Y-85649500D01*
X139362351Y-85649500D01*
X139159844Y-85664323D01*
X139159831Y-85664325D01*
X138895453Y-85723217D01*
X138895446Y-85723220D01*
X138642439Y-85819987D01*
X138406226Y-85952557D01*
X138191822Y-86118112D01*
X138003822Y-86313109D01*
X138003816Y-86313116D01*
X137846202Y-86533419D01*
X137846199Y-86533424D01*
X137722350Y-86774309D01*
X137722343Y-86774327D01*
X137634884Y-87030685D01*
X137634881Y-87030699D01*
X137625552Y-87081206D01*
X137588341Y-87282669D01*
X137585681Y-87297068D01*
X137585680Y-87297075D01*
X137575787Y-87567763D01*
X125221520Y-87567763D01*
X129033310Y-83755973D01*
X129094631Y-83722490D01*
X129164323Y-83727474D01*
X129213138Y-83760682D01*
X129224127Y-83772886D01*
X129224130Y-83772889D01*
X129377265Y-83884148D01*
X129377270Y-83884151D01*
X129550191Y-83961142D01*
X129550194Y-83961142D01*
X129550197Y-83961144D01*
X129662033Y-83984915D01*
X129723515Y-84018107D01*
X129723934Y-84018524D01*
X130389762Y-84684352D01*
X130423247Y-84745675D01*
X130421856Y-84804126D01*
X130394938Y-84904586D01*
X130394936Y-84904596D01*
X130374341Y-85139999D01*
X130374341Y-85140000D01*
X130394936Y-85375403D01*
X130394938Y-85375413D01*
X130456094Y-85603655D01*
X130456096Y-85603659D01*
X130456097Y-85603663D01*
X130511846Y-85723217D01*
X130555965Y-85817830D01*
X130555967Y-85817834D01*
X130629138Y-85922332D01*
X130691505Y-86011401D01*
X130858599Y-86178495D01*
X130930482Y-86228828D01*
X131052165Y-86314032D01*
X131052167Y-86314033D01*
X131052170Y-86314035D01*
X131266337Y-86413903D01*
X131266343Y-86413904D01*
X131266344Y-86413905D01*
X131290547Y-86420390D01*
X131494592Y-86475063D01*
X131682918Y-86491539D01*
X131729999Y-86495659D01*
X131730000Y-86495659D01*
X131730001Y-86495659D01*
X131769234Y-86492226D01*
X131965408Y-86475063D01*
X132193663Y-86413903D01*
X132407830Y-86314035D01*
X132601401Y-86178495D01*
X132768495Y-86011401D01*
X132904035Y-85817830D01*
X133003903Y-85603663D01*
X133065063Y-85375408D01*
X133085659Y-85140000D01*
X133065063Y-84904592D01*
X133050437Y-84850005D01*
X145244357Y-84850005D01*
X145264890Y-85097812D01*
X145264892Y-85097824D01*
X145325936Y-85338881D01*
X145425826Y-85566606D01*
X145561833Y-85774782D01*
X145561836Y-85774785D01*
X145730256Y-85957738D01*
X145926491Y-86110474D01*
X146145190Y-86228828D01*
X146380386Y-86309571D01*
X146625665Y-86350500D01*
X146874335Y-86350500D01*
X147119614Y-86309571D01*
X147354810Y-86228828D01*
X147573509Y-86110474D01*
X147769744Y-85957738D01*
X147882732Y-85835000D01*
X148644341Y-85835000D01*
X148664936Y-86070403D01*
X148664938Y-86070413D01*
X148726094Y-86298655D01*
X148726096Y-86298659D01*
X148726097Y-86298663D01*
X148782861Y-86420394D01*
X148825965Y-86512830D01*
X148825967Y-86512834D01*
X148854377Y-86553407D01*
X148961501Y-86706396D01*
X148961506Y-86706402D01*
X149083430Y-86828326D01*
X149116915Y-86889649D01*
X149111931Y-86959341D01*
X149070059Y-87015274D01*
X149039083Y-87032189D01*
X148907669Y-87081203D01*
X148907664Y-87081206D01*
X148792455Y-87167452D01*
X148792452Y-87167455D01*
X148706206Y-87282664D01*
X148706202Y-87282671D01*
X148655908Y-87417517D01*
X148649501Y-87477116D01*
X148649501Y-87477123D01*
X148649500Y-87477135D01*
X148649500Y-89272870D01*
X148649501Y-89272876D01*
X148655908Y-89332483D01*
X148706202Y-89467328D01*
X148706206Y-89467335D01*
X148792452Y-89582544D01*
X148792455Y-89582547D01*
X148907664Y-89668793D01*
X148907671Y-89668797D01*
X149042517Y-89719091D01*
X149042516Y-89719091D01*
X149049444Y-89719835D01*
X149102127Y-89725500D01*
X150897872Y-89725499D01*
X150957483Y-89719091D01*
X151092331Y-89668796D01*
X151207546Y-89582546D01*
X151293796Y-89467331D01*
X151344091Y-89332483D01*
X151350500Y-89272873D01*
X151350499Y-87567763D01*
X158725787Y-87567763D01*
X158755413Y-87837013D01*
X158755415Y-87837024D01*
X158821428Y-88089526D01*
X158823928Y-88099088D01*
X158929870Y-88348390D01*
X158996431Y-88457454D01*
X159070979Y-88579605D01*
X159070986Y-88579615D01*
X159244253Y-88787819D01*
X159244259Y-88787824D01*
X159405649Y-88932429D01*
X159445998Y-88968582D01*
X159671910Y-89118044D01*
X159917176Y-89233020D01*
X159917183Y-89233022D01*
X159917185Y-89233023D01*
X160176557Y-89311057D01*
X160176564Y-89311058D01*
X160176569Y-89311060D01*
X160444561Y-89350500D01*
X160444566Y-89350500D01*
X160647629Y-89350500D01*
X160647631Y-89350500D01*
X160647636Y-89350499D01*
X160647648Y-89350499D01*
X160685191Y-89347750D01*
X160850156Y-89335677D01*
X160962758Y-89310593D01*
X161114546Y-89276782D01*
X161114548Y-89276781D01*
X161114553Y-89276780D01*
X161367558Y-89180014D01*
X161603777Y-89047441D01*
X161818177Y-88881888D01*
X162006186Y-88686881D01*
X162163799Y-88466579D01*
X162255724Y-88287784D01*
X162287649Y-88225690D01*
X162287651Y-88225684D01*
X162287656Y-88225675D01*
X162375118Y-87969305D01*
X162424319Y-87702933D01*
X162434212Y-87432235D01*
X162404586Y-87162982D01*
X162336072Y-86900912D01*
X162230130Y-86651610D01*
X162089018Y-86420390D01*
X162083621Y-86413905D01*
X161915746Y-86212180D01*
X161915740Y-86212175D01*
X161714002Y-86031418D01*
X161488092Y-85881957D01*
X161488090Y-85881956D01*
X161242824Y-85766980D01*
X161242819Y-85766978D01*
X161242814Y-85766976D01*
X160983442Y-85688942D01*
X160983428Y-85688939D01*
X160867791Y-85671921D01*
X160715439Y-85649500D01*
X160512369Y-85649500D01*
X160512351Y-85649500D01*
X160309844Y-85664323D01*
X160309831Y-85664325D01*
X160045453Y-85723217D01*
X160045446Y-85723220D01*
X159792439Y-85819987D01*
X159556226Y-85952557D01*
X159341822Y-86118112D01*
X159153822Y-86313109D01*
X159153816Y-86313116D01*
X158996202Y-86533419D01*
X158996199Y-86533424D01*
X158872350Y-86774309D01*
X158872343Y-86774327D01*
X158784884Y-87030685D01*
X158784881Y-87030699D01*
X158775552Y-87081206D01*
X158738341Y-87282669D01*
X158735681Y-87297068D01*
X158735680Y-87297075D01*
X158725787Y-87567763D01*
X151350499Y-87567763D01*
X151350499Y-87477128D01*
X151344091Y-87417517D01*
X151322878Y-87360643D01*
X151293797Y-87282671D01*
X151293793Y-87282664D01*
X151207547Y-87167455D01*
X151207544Y-87167452D01*
X151092335Y-87081206D01*
X151092328Y-87081202D01*
X150960917Y-87032189D01*
X150904983Y-86990318D01*
X150880566Y-86924853D01*
X150895418Y-86856580D01*
X150916563Y-86828332D01*
X151038495Y-86706401D01*
X151174035Y-86512830D01*
X151273903Y-86298663D01*
X151335063Y-86070408D01*
X151355659Y-85835000D01*
X151335063Y-85599592D01*
X151274994Y-85375408D01*
X151273905Y-85371344D01*
X151273904Y-85371343D01*
X151273903Y-85371337D01*
X151174035Y-85157171D01*
X151142525Y-85112169D01*
X151038494Y-84963597D01*
X150871402Y-84796506D01*
X150871395Y-84796501D01*
X150677834Y-84660967D01*
X150677830Y-84660965D01*
X150677828Y-84660964D01*
X150463663Y-84561097D01*
X150463659Y-84561096D01*
X150463655Y-84561094D01*
X150235413Y-84499938D01*
X150235403Y-84499936D01*
X150000001Y-84479341D01*
X149999999Y-84479341D01*
X149764596Y-84499936D01*
X149764586Y-84499938D01*
X149536344Y-84561094D01*
X149536335Y-84561098D01*
X149322171Y-84660964D01*
X149322169Y-84660965D01*
X149128597Y-84796505D01*
X148961505Y-84963597D01*
X148825965Y-85157169D01*
X148825964Y-85157171D01*
X148726098Y-85371335D01*
X148726094Y-85371344D01*
X148664938Y-85599586D01*
X148664936Y-85599596D01*
X148644341Y-85834999D01*
X148644341Y-85835000D01*
X147882732Y-85835000D01*
X147938164Y-85774785D01*
X148074173Y-85566607D01*
X148174063Y-85338881D01*
X148235108Y-85097821D01*
X148237707Y-85066454D01*
X148255643Y-84850005D01*
X148255643Y-84849994D01*
X148235109Y-84602187D01*
X148235107Y-84602175D01*
X148174063Y-84361118D01*
X148074173Y-84133393D01*
X147938166Y-83925217D01*
X147853909Y-83833690D01*
X147769744Y-83742262D01*
X147573509Y-83589526D01*
X147573507Y-83589525D01*
X147573506Y-83589524D01*
X147354811Y-83471172D01*
X147354802Y-83471169D01*
X147119616Y-83390429D01*
X146874335Y-83349500D01*
X146625665Y-83349500D01*
X146380383Y-83390429D01*
X146145197Y-83471169D01*
X146145188Y-83471172D01*
X145926493Y-83589524D01*
X145730257Y-83742261D01*
X145561833Y-83925217D01*
X145425826Y-84133393D01*
X145325936Y-84361118D01*
X145264892Y-84602175D01*
X145264890Y-84602187D01*
X145244357Y-84849994D01*
X145244357Y-84850005D01*
X133050437Y-84850005D01*
X133003903Y-84676337D01*
X132904035Y-84462171D01*
X132900843Y-84457613D01*
X132768496Y-84268600D01*
X132715514Y-84215618D01*
X132646567Y-84146671D01*
X132613084Y-84085351D01*
X132618068Y-84015659D01*
X132659939Y-83959725D01*
X132690915Y-83942810D01*
X132822331Y-83893796D01*
X132937546Y-83807546D01*
X133023796Y-83692331D01*
X133074091Y-83557483D01*
X133080500Y-83497873D01*
X133080499Y-81702128D01*
X133074091Y-81642517D01*
X133068479Y-81627471D01*
X133023797Y-81507671D01*
X133023793Y-81507664D01*
X132937547Y-81392455D01*
X132937544Y-81392452D01*
X132822335Y-81306206D01*
X132822328Y-81306202D01*
X132687482Y-81255908D01*
X132687483Y-81255908D01*
X132627883Y-81249501D01*
X132627881Y-81249500D01*
X132627873Y-81249500D01*
X132627865Y-81249500D01*
X130948285Y-81249500D01*
X130881246Y-81229815D01*
X130835491Y-81177011D01*
X130830354Y-81163818D01*
X130797181Y-81061721D01*
X130797178Y-81061715D01*
X130747487Y-80975647D01*
X130702533Y-80897784D01*
X130575871Y-80757112D01*
X130571307Y-80753796D01*
X130422734Y-80645851D01*
X130422729Y-80645848D01*
X130249807Y-80568857D01*
X130249802Y-80568855D01*
X130101027Y-80537233D01*
X130064646Y-80529500D01*
X129875354Y-80529500D01*
X129842897Y-80536398D01*
X129690197Y-80568855D01*
X129690192Y-80568857D01*
X129517270Y-80645848D01*
X129517265Y-80645851D01*
X129364129Y-80757111D01*
X129237466Y-80897785D01*
X129142821Y-81061715D01*
X129142818Y-81061722D01*
X129088202Y-81229815D01*
X129084326Y-81241744D01*
X129077551Y-81306206D01*
X129064540Y-81430000D01*
X129074717Y-81526829D01*
X129062147Y-81595559D01*
X129039077Y-81627471D01*
X128614499Y-82052050D01*
X128553176Y-82085535D01*
X128483485Y-82080551D01*
X128427551Y-82038680D01*
X128403134Y-81973215D01*
X128414478Y-81918917D01*
X128412122Y-81918024D01*
X128414780Y-81911014D01*
X128414780Y-81911013D01*
X128414781Y-81911012D01*
X128455491Y-81745843D01*
X128455491Y-81575731D01*
X128414781Y-81410562D01*
X128405276Y-81392452D01*
X128335727Y-81259937D01*
X128282627Y-81200000D01*
X128222920Y-81132604D01*
X128173168Y-81098262D01*
X128082922Y-81035969D01*
X127923865Y-80975647D01*
X127923859Y-80975646D01*
X127797365Y-80960287D01*
X127797363Y-80960287D01*
X127712619Y-80960287D01*
X127712617Y-80960287D01*
X127586122Y-80975646D01*
X127586116Y-80975647D01*
X127427059Y-81035969D01*
X127287063Y-81132603D01*
X127174254Y-81259937D01*
X127095201Y-81410560D01*
X127054491Y-81575731D01*
X127054491Y-81745842D01*
X127095201Y-81911013D01*
X127174254Y-82061636D01*
X127195427Y-82085535D01*
X127287062Y-82188970D01*
X127309809Y-82204671D01*
X127427059Y-82285604D01*
X127427060Y-82285604D01*
X127427061Y-82285605D01*
X127472918Y-82302996D01*
X127571426Y-82340355D01*
X127586119Y-82345927D01*
X127662019Y-82355143D01*
X127712617Y-82361287D01*
X127712619Y-82361287D01*
X127797365Y-82361287D01*
X127839529Y-82356167D01*
X127923863Y-82345927D01*
X128022912Y-82308362D01*
X128092573Y-82302996D01*
X128154079Y-82336143D01*
X128187901Y-82397281D01*
X128183299Y-82466999D01*
X128154562Y-82511986D01*
X125609294Y-85057254D01*
X125547971Y-85090739D01*
X125478279Y-85085755D01*
X125422346Y-85043883D01*
X125397929Y-84978419D01*
X125409282Y-84924124D01*
X125406918Y-84923228D01*
X125409576Y-84916218D01*
X125409576Y-84916217D01*
X125409577Y-84916216D01*
X125450287Y-84751047D01*
X125450287Y-84580935D01*
X125409577Y-84415766D01*
X125380896Y-84361119D01*
X125330523Y-84265141D01*
X125298821Y-84229357D01*
X125217716Y-84137808D01*
X125165122Y-84101505D01*
X125077718Y-84041173D01*
X124918661Y-83980851D01*
X124918655Y-83980850D01*
X124792161Y-83965491D01*
X124792159Y-83965491D01*
X124707415Y-83965491D01*
X124707413Y-83965491D01*
X124580918Y-83980850D01*
X124580912Y-83980851D01*
X124421855Y-84041173D01*
X124281859Y-84137807D01*
X124169050Y-84265141D01*
X124089997Y-84415764D01*
X124054177Y-84561094D01*
X124049287Y-84580935D01*
X124049287Y-84751047D01*
X124062370Y-84804126D01*
X124089997Y-84916217D01*
X124169050Y-85066840D01*
X124190223Y-85090739D01*
X124281858Y-85194174D01*
X124314565Y-85216750D01*
X124421855Y-85290808D01*
X124421856Y-85290808D01*
X124421857Y-85290809D01*
X124481866Y-85313567D01*
X124579886Y-85350741D01*
X124580915Y-85351131D01*
X124656815Y-85360347D01*
X124707413Y-85366491D01*
X124707415Y-85366491D01*
X124792161Y-85366491D01*
X124834325Y-85361371D01*
X124918659Y-85351131D01*
X125017708Y-85313566D01*
X125087370Y-85308200D01*
X125148876Y-85341348D01*
X125182698Y-85402486D01*
X125178096Y-85472204D01*
X125149359Y-85517190D01*
X122633369Y-88033181D01*
X122572046Y-88066666D01*
X122545688Y-88069500D01*
X122459337Y-88069500D01*
X122392298Y-88049815D01*
X122386452Y-88045818D01*
X122372734Y-88035851D01*
X122372729Y-88035848D01*
X122199807Y-87958857D01*
X122199802Y-87958855D01*
X122054001Y-87927865D01*
X122014646Y-87919500D01*
X121825354Y-87919500D01*
X121792897Y-87926398D01*
X121640197Y-87958855D01*
X121640192Y-87958857D01*
X121467270Y-88035848D01*
X121467265Y-88035851D01*
X121314129Y-88147111D01*
X121187466Y-88287785D01*
X121092821Y-88451715D01*
X121092818Y-88451722D01*
X121036665Y-88624545D01*
X121034326Y-88631744D01*
X121014540Y-88820000D01*
X119589252Y-88820000D01*
X119612933Y-88640134D01*
X119614245Y-88632185D01*
X119651458Y-88445114D01*
X119651958Y-88442737D01*
X119698365Y-88233416D01*
X119700061Y-88226676D01*
X119752875Y-88039420D01*
X119753905Y-88035968D01*
X119817308Y-87834889D01*
X119819189Y-87829388D01*
X119887049Y-87645453D01*
X119888744Y-87641121D01*
X119969060Y-87447227D01*
X119970956Y-87442893D01*
X120053042Y-87264838D01*
X120055575Y-87259675D01*
X120152930Y-87072664D01*
X120154669Y-87069444D01*
X120249712Y-86899737D01*
X120253285Y-86893760D01*
X120368483Y-86712938D01*
X120369822Y-86710887D01*
X120475791Y-86552298D01*
X120480480Y-86545753D01*
X120617238Y-86367532D01*
X120618028Y-86366517D01*
X120729706Y-86224856D01*
X120735626Y-86217894D01*
X120924163Y-86012146D01*
X121007949Y-85921509D01*
X121011258Y-85918069D01*
X128089327Y-78840000D01*
X131264341Y-78840000D01*
X131284936Y-79075403D01*
X131284938Y-79075413D01*
X131346094Y-79303655D01*
X131346096Y-79303659D01*
X131346097Y-79303663D01*
X131442284Y-79509936D01*
X131445965Y-79517830D01*
X131445967Y-79517834D01*
X131528857Y-79636212D01*
X131581505Y-79711401D01*
X131748599Y-79878495D01*
X131845384Y-79946265D01*
X131942165Y-80014032D01*
X131942167Y-80014033D01*
X131942170Y-80014035D01*
X132156337Y-80113903D01*
X132384592Y-80175063D01*
X132572918Y-80191539D01*
X132619999Y-80195659D01*
X132620000Y-80195659D01*
X132620001Y-80195659D01*
X132659234Y-80192226D01*
X132855408Y-80175063D01*
X133083663Y-80113903D01*
X133297830Y-80014035D01*
X133491401Y-79878495D01*
X133658495Y-79711401D01*
X133788425Y-79525842D01*
X133843002Y-79482217D01*
X133912500Y-79475023D01*
X133974855Y-79506546D01*
X133991575Y-79525842D01*
X134121500Y-79711395D01*
X134121505Y-79711401D01*
X134288599Y-79878495D01*
X134385384Y-79946265D01*
X134482165Y-80014032D01*
X134482167Y-80014033D01*
X134482170Y-80014035D01*
X134696337Y-80113903D01*
X134924592Y-80175063D01*
X135112918Y-80191539D01*
X135159999Y-80195659D01*
X135160000Y-80195659D01*
X135160001Y-80195659D01*
X135199234Y-80192226D01*
X135395408Y-80175063D01*
X135623663Y-80113903D01*
X135837830Y-80014035D01*
X136031401Y-79878495D01*
X136198495Y-79711401D01*
X136328425Y-79525842D01*
X136383002Y-79482217D01*
X136452500Y-79475023D01*
X136514855Y-79506546D01*
X136531575Y-79525842D01*
X136661500Y-79711395D01*
X136661505Y-79711401D01*
X136828599Y-79878495D01*
X136925384Y-79946265D01*
X137022165Y-80014032D01*
X137022167Y-80014033D01*
X137022170Y-80014035D01*
X137236337Y-80113903D01*
X137464592Y-80175063D01*
X137652918Y-80191539D01*
X137699999Y-80195659D01*
X137700000Y-80195659D01*
X137700001Y-80195659D01*
X137739234Y-80192226D01*
X137935408Y-80175063D01*
X138163663Y-80113903D01*
X138377830Y-80014035D01*
X138571401Y-79878495D01*
X138738495Y-79711401D01*
X138868425Y-79525842D01*
X138923002Y-79482217D01*
X138992500Y-79475023D01*
X139054855Y-79506546D01*
X139071575Y-79525842D01*
X139201500Y-79711395D01*
X139201505Y-79711401D01*
X139368599Y-79878495D01*
X139465384Y-79946265D01*
X139562165Y-80014032D01*
X139562167Y-80014033D01*
X139562170Y-80014035D01*
X139776337Y-80113903D01*
X140004592Y-80175063D01*
X140192918Y-80191539D01*
X140239999Y-80195659D01*
X140240000Y-80195659D01*
X140240001Y-80195659D01*
X140279234Y-80192226D01*
X140475408Y-80175063D01*
X140703663Y-80113903D01*
X140917830Y-80014035D01*
X141111401Y-79878495D01*
X141278495Y-79711401D01*
X141408425Y-79525842D01*
X141463002Y-79482217D01*
X141532500Y-79475023D01*
X141594855Y-79506546D01*
X141611575Y-79525842D01*
X141741500Y-79711395D01*
X141741505Y-79711401D01*
X141908599Y-79878495D01*
X142005384Y-79946265D01*
X142102165Y-80014032D01*
X142102167Y-80014033D01*
X142102170Y-80014035D01*
X142316337Y-80113903D01*
X142544592Y-80175063D01*
X142732918Y-80191539D01*
X142779999Y-80195659D01*
X142780000Y-80195659D01*
X142780001Y-80195659D01*
X142819234Y-80192226D01*
X143015408Y-80175063D01*
X143243663Y-80113903D01*
X143457830Y-80014035D01*
X143651401Y-79878495D01*
X143818495Y-79711401D01*
X143948425Y-79525842D01*
X144003002Y-79482217D01*
X144072500Y-79475023D01*
X144134855Y-79506546D01*
X144151575Y-79525842D01*
X144281500Y-79711395D01*
X144281505Y-79711401D01*
X144448599Y-79878495D01*
X144545384Y-79946265D01*
X144642165Y-80014032D01*
X144642167Y-80014033D01*
X144642170Y-80014035D01*
X144856337Y-80113903D01*
X145084592Y-80175063D01*
X145272918Y-80191539D01*
X145319999Y-80195659D01*
X145320000Y-80195659D01*
X145320001Y-80195659D01*
X145359234Y-80192226D01*
X145555408Y-80175063D01*
X145783663Y-80113903D01*
X145997830Y-80014035D01*
X146191401Y-79878495D01*
X146358495Y-79711401D01*
X146488425Y-79525842D01*
X146543002Y-79482217D01*
X146612500Y-79475023D01*
X146674855Y-79506546D01*
X146691575Y-79525842D01*
X146821500Y-79711395D01*
X146821505Y-79711401D01*
X146988599Y-79878495D01*
X147085384Y-79946265D01*
X147182165Y-80014032D01*
X147182167Y-80014033D01*
X147182170Y-80014035D01*
X147396337Y-80113903D01*
X147624592Y-80175063D01*
X147812918Y-80191539D01*
X147859999Y-80195659D01*
X147860000Y-80195659D01*
X147860001Y-80195659D01*
X147899234Y-80192226D01*
X148095408Y-80175063D01*
X148323663Y-80113903D01*
X148537830Y-80014035D01*
X148731401Y-79878495D01*
X148853329Y-79756566D01*
X148914648Y-79723084D01*
X148984340Y-79728068D01*
X149040274Y-79769939D01*
X149057189Y-79800917D01*
X149106202Y-79932328D01*
X149106206Y-79932335D01*
X149192452Y-80047544D01*
X149192455Y-80047547D01*
X149307664Y-80133793D01*
X149307671Y-80133797D01*
X149442517Y-80184091D01*
X149442516Y-80184091D01*
X149449444Y-80184835D01*
X149502127Y-80190500D01*
X151297872Y-80190499D01*
X151357483Y-80184091D01*
X151492331Y-80133796D01*
X151607546Y-80047546D01*
X151693796Y-79932331D01*
X151744091Y-79797483D01*
X151750500Y-79737873D01*
X151750499Y-78644578D01*
X151770184Y-78577540D01*
X151822987Y-78531785D01*
X151892146Y-78521841D01*
X151955702Y-78550866D01*
X151967366Y-78563427D01*
X151967521Y-78563282D01*
X151972474Y-78568532D01*
X152010418Y-78600371D01*
X152018394Y-78607680D01*
X152022300Y-78611586D01*
X152046625Y-78630820D01*
X152049386Y-78633069D01*
X152086384Y-78664114D01*
X152106871Y-78681305D01*
X152112900Y-78685270D01*
X152112867Y-78685319D01*
X152119225Y-78689369D01*
X152119257Y-78689319D01*
X152125399Y-78693107D01*
X152125401Y-78693108D01*
X152125405Y-78693111D01*
X152193397Y-78724816D01*
X152196642Y-78726388D01*
X152263647Y-78760039D01*
X152263649Y-78760040D01*
X152263651Y-78760040D01*
X152270443Y-78762513D01*
X152270422Y-78762570D01*
X152277537Y-78765043D01*
X152277557Y-78764986D01*
X152284405Y-78767254D01*
X152284410Y-78767257D01*
X152357934Y-78782437D01*
X152361368Y-78783199D01*
X152406645Y-78793931D01*
X152434356Y-78800499D01*
X152434357Y-78800499D01*
X152434361Y-78800500D01*
X152434365Y-78800500D01*
X152441534Y-78801338D01*
X152441526Y-78801397D01*
X152449027Y-78802164D01*
X152449033Y-78802105D01*
X152456222Y-78802734D01*
X152456226Y-78802733D01*
X152456227Y-78802734D01*
X152531213Y-78800552D01*
X152534820Y-78800500D01*
X152777770Y-78800500D01*
X152844809Y-78820185D01*
X152865451Y-78836819D01*
X153721312Y-79692680D01*
X154495294Y-80466661D01*
X154528779Y-80527984D01*
X154523795Y-80597676D01*
X154481923Y-80653609D01*
X154458049Y-80667621D01*
X154327270Y-80725848D01*
X154327265Y-80725851D01*
X154313548Y-80735818D01*
X154247742Y-80759298D01*
X154240663Y-80759500D01*
X152647447Y-80759500D01*
X152597011Y-80748779D01*
X152529806Y-80718857D01*
X152529802Y-80718855D01*
X152375377Y-80686032D01*
X152344646Y-80679500D01*
X152155354Y-80679500D01*
X152124623Y-80686032D01*
X151970197Y-80718855D01*
X151970192Y-80718857D01*
X151797270Y-80795848D01*
X151797265Y-80795851D01*
X151644129Y-80907111D01*
X151517466Y-81047785D01*
X151422821Y-81211715D01*
X151422818Y-81211722D01*
X151365459Y-81388256D01*
X151364326Y-81391744D01*
X151344540Y-81580000D01*
X151364326Y-81768256D01*
X151364327Y-81768259D01*
X151422818Y-81948277D01*
X151422821Y-81948284D01*
X151517467Y-82112216D01*
X151642913Y-82251537D01*
X151644129Y-82252888D01*
X151797265Y-82364148D01*
X151797270Y-82364151D01*
X151970192Y-82441142D01*
X151970197Y-82441144D01*
X152007697Y-82449115D01*
X152069179Y-82482307D01*
X152102955Y-82543470D01*
X152105237Y-82583361D01*
X152104540Y-82589995D01*
X152104540Y-82589997D01*
X152104540Y-82590000D01*
X152124326Y-82778256D01*
X152124327Y-82778259D01*
X152182818Y-82958277D01*
X152182821Y-82958284D01*
X152277467Y-83122216D01*
X152285001Y-83130583D01*
X152404129Y-83262888D01*
X152512095Y-83341330D01*
X152554761Y-83396660D01*
X152560740Y-83466273D01*
X152528134Y-83528068D01*
X152498229Y-83550702D01*
X152426496Y-83589522D01*
X152426494Y-83589523D01*
X152230257Y-83742261D01*
X152061833Y-83925217D01*
X151925826Y-84133393D01*
X151825936Y-84361118D01*
X151764892Y-84602175D01*
X151764890Y-84602187D01*
X151744357Y-84849994D01*
X151744357Y-84850005D01*
X151764890Y-85097812D01*
X151764892Y-85097824D01*
X151825936Y-85338881D01*
X151925826Y-85566606D01*
X152061833Y-85774782D01*
X152061836Y-85774785D01*
X152230256Y-85957738D01*
X152426491Y-86110474D01*
X152645190Y-86228828D01*
X152880386Y-86309571D01*
X153125665Y-86350500D01*
X153374335Y-86350500D01*
X153619614Y-86309571D01*
X153854810Y-86228828D01*
X154073509Y-86110474D01*
X154269744Y-85957738D01*
X154438164Y-85774785D01*
X154574173Y-85566607D01*
X154574175Y-85566603D01*
X154581595Y-85549689D01*
X154626551Y-85496203D01*
X154693287Y-85475514D01*
X154695150Y-85475500D01*
X158167257Y-85475500D01*
X158182877Y-85477224D01*
X158182904Y-85476939D01*
X158190660Y-85477671D01*
X158190667Y-85477673D01*
X158257873Y-85475561D01*
X158261768Y-85475500D01*
X158289346Y-85475500D01*
X158289350Y-85475500D01*
X158293324Y-85474997D01*
X158304963Y-85474080D01*
X158348627Y-85472709D01*
X158367869Y-85467117D01*
X158386912Y-85463174D01*
X158406792Y-85460664D01*
X158447401Y-85444585D01*
X158458444Y-85440803D01*
X158500390Y-85428618D01*
X158517629Y-85418422D01*
X158535103Y-85409862D01*
X158553727Y-85402488D01*
X158553727Y-85402487D01*
X158553732Y-85402486D01*
X158589083Y-85376800D01*
X158598814Y-85370408D01*
X158636420Y-85348170D01*
X158650589Y-85333999D01*
X158665379Y-85321368D01*
X158681587Y-85309594D01*
X158709438Y-85275926D01*
X158717279Y-85267309D01*
X161786692Y-82197898D01*
X163040170Y-82197898D01*
X163060650Y-82340353D01*
X163060651Y-82340357D01*
X163120437Y-82471268D01*
X163120438Y-82471269D01*
X163120439Y-82471271D01*
X163158058Y-82517954D01*
X163158061Y-82517957D01*
X163158066Y-82517963D01*
X164229628Y-83589522D01*
X164427842Y-83787736D01*
X164427846Y-83787739D01*
X164427848Y-83787741D01*
X164474524Y-83825357D01*
X164605438Y-83885144D01*
X164605439Y-83885144D01*
X164605441Y-83885145D01*
X164747898Y-83905626D01*
X164890355Y-83885145D01*
X165017016Y-83827299D01*
X165086174Y-83817356D01*
X165149730Y-83846380D01*
X165187505Y-83905158D01*
X165192056Y-83950901D01*
X165188290Y-83993946D01*
X165188290Y-83993949D01*
X165208885Y-84229352D01*
X165208887Y-84229362D01*
X165270043Y-84457604D01*
X165270045Y-84457608D01*
X165270046Y-84457612D01*
X165364871Y-84660964D01*
X165369914Y-84671779D01*
X165369916Y-84671783D01*
X165425739Y-84751506D01*
X165505454Y-84865350D01*
X165672548Y-85032444D01*
X165721671Y-85066840D01*
X165866114Y-85167981D01*
X165866116Y-85167982D01*
X165866119Y-85167984D01*
X166080286Y-85267852D01*
X166080292Y-85267853D01*
X166080293Y-85267854D01*
X166135234Y-85282575D01*
X166308541Y-85329012D01*
X166496867Y-85345488D01*
X166543948Y-85349608D01*
X166543949Y-85349608D01*
X166543950Y-85349608D01*
X166583183Y-85346175D01*
X166779357Y-85329012D01*
X166880048Y-85302032D01*
X166949898Y-85303695D01*
X167007760Y-85342858D01*
X167035264Y-85407086D01*
X167031916Y-85453899D01*
X167004939Y-85554583D01*
X167004936Y-85554596D01*
X166984341Y-85789999D01*
X166984341Y-85790000D01*
X167004936Y-86025403D01*
X167004938Y-86025413D01*
X167066094Y-86253655D01*
X167066096Y-86253659D01*
X167066097Y-86253663D01*
X167140818Y-86413903D01*
X167165965Y-86467830D01*
X167165967Y-86467834D01*
X167274281Y-86622521D01*
X167301505Y-86661401D01*
X167468599Y-86828495D01*
X167532866Y-86873495D01*
X167662165Y-86964032D01*
X167662167Y-86964033D01*
X167662170Y-86964035D01*
X167876337Y-87063903D01*
X167876343Y-87063904D01*
X167876344Y-87063905D01*
X167909034Y-87072664D01*
X168104592Y-87125063D01*
X168292918Y-87141539D01*
X168339999Y-87145659D01*
X168340000Y-87145659D01*
X168340001Y-87145659D01*
X168379234Y-87142226D01*
X168575408Y-87125063D01*
X168676103Y-87098082D01*
X168745950Y-87099745D01*
X168803813Y-87138907D01*
X168831317Y-87203136D01*
X168827969Y-87249950D01*
X168800990Y-87350638D01*
X168800988Y-87350648D01*
X168780393Y-87586051D01*
X168780393Y-87586052D01*
X168800988Y-87821455D01*
X168800990Y-87821465D01*
X168862146Y-88049707D01*
X168862148Y-88049711D01*
X168862149Y-88049715D01*
X168951935Y-88242261D01*
X168962017Y-88263882D01*
X168962019Y-88263886D01*
X169017842Y-88343609D01*
X169097557Y-88457453D01*
X169264651Y-88624547D01*
X169286912Y-88640134D01*
X169458217Y-88760084D01*
X169458219Y-88760085D01*
X169458222Y-88760087D01*
X169672389Y-88859955D01*
X169672395Y-88859956D01*
X169672396Y-88859957D01*
X169700742Y-88867552D01*
X169900644Y-88921115D01*
X170088970Y-88937591D01*
X170136051Y-88941711D01*
X170136052Y-88941711D01*
X170136053Y-88941711D01*
X170175286Y-88938278D01*
X170371460Y-88921115D01*
X170472151Y-88894135D01*
X170542001Y-88895798D01*
X170599863Y-88934961D01*
X170627367Y-88999189D01*
X170624019Y-89046002D01*
X170597042Y-89146686D01*
X170597039Y-89146699D01*
X170576444Y-89382102D01*
X170576444Y-89382103D01*
X170597039Y-89617506D01*
X170597041Y-89617516D01*
X170658197Y-89845758D01*
X170658199Y-89845762D01*
X170658200Y-89845766D01*
X170758068Y-90059933D01*
X170758070Y-90059937D01*
X170813893Y-90139660D01*
X170893608Y-90253504D01*
X171060702Y-90420598D01*
X171157487Y-90488368D01*
X171254268Y-90556135D01*
X171254270Y-90556136D01*
X171254273Y-90556138D01*
X171468440Y-90656006D01*
X171696695Y-90717166D01*
X171885021Y-90733642D01*
X171932102Y-90737762D01*
X171932103Y-90737762D01*
X171932104Y-90737762D01*
X171971337Y-90734329D01*
X172167511Y-90717166D01*
X172268202Y-90690186D01*
X172338052Y-90691849D01*
X172395914Y-90731012D01*
X172423418Y-90795240D01*
X172420070Y-90842053D01*
X172393093Y-90942737D01*
X172393090Y-90942750D01*
X172372495Y-91178153D01*
X172372495Y-91178154D01*
X172393090Y-91413557D01*
X172393092Y-91413567D01*
X172454248Y-91641809D01*
X172454250Y-91641813D01*
X172454251Y-91641817D01*
X172529235Y-91802620D01*
X172554119Y-91855984D01*
X172554121Y-91855988D01*
X172612928Y-91939972D01*
X172689659Y-92049555D01*
X172856753Y-92216649D01*
X172885729Y-92236938D01*
X173050319Y-92352186D01*
X173050321Y-92352187D01*
X173050324Y-92352189D01*
X173264491Y-92452057D01*
X173492746Y-92513217D01*
X173681072Y-92529693D01*
X173728153Y-92533813D01*
X173728154Y-92533813D01*
X173728155Y-92533813D01*
X173767388Y-92530380D01*
X173963562Y-92513217D01*
X174064253Y-92486237D01*
X174134103Y-92487900D01*
X174191965Y-92527063D01*
X174219469Y-92591291D01*
X174216121Y-92638104D01*
X174189144Y-92738788D01*
X174189141Y-92738801D01*
X174168546Y-92974204D01*
X174168546Y-92974205D01*
X174189141Y-93209608D01*
X174189143Y-93209618D01*
X174250299Y-93437860D01*
X174250301Y-93437864D01*
X174250302Y-93437868D01*
X174301404Y-93547456D01*
X174350170Y-93652035D01*
X174350172Y-93652039D01*
X174440974Y-93781716D01*
X174485710Y-93845606D01*
X174652804Y-94012700D01*
X174749589Y-94080470D01*
X174846370Y-94148237D01*
X174846372Y-94148238D01*
X174846375Y-94148240D01*
X175060542Y-94248108D01*
X175288797Y-94309268D01*
X175477123Y-94325744D01*
X175524204Y-94329864D01*
X175524205Y-94329864D01*
X175524206Y-94329864D01*
X175563439Y-94326431D01*
X175759613Y-94309268D01*
X175860308Y-94282287D01*
X175930155Y-94283950D01*
X175988018Y-94323112D01*
X176015522Y-94387341D01*
X176012174Y-94434155D01*
X175985195Y-94534843D01*
X175985193Y-94534853D01*
X175964598Y-94770256D01*
X175964598Y-94770257D01*
X175985193Y-95005660D01*
X175985195Y-95005670D01*
X176046351Y-95233912D01*
X176046353Y-95233916D01*
X176046354Y-95233920D01*
X176046840Y-95234962D01*
X176146222Y-95448087D01*
X176146224Y-95448091D01*
X176192771Y-95514566D01*
X176281762Y-95641658D01*
X176448856Y-95808752D01*
X176492769Y-95839500D01*
X176642422Y-95944289D01*
X176642424Y-95944290D01*
X176642427Y-95944292D01*
X176856594Y-96044160D01*
X177084849Y-96105320D01*
X177273175Y-96121796D01*
X177320256Y-96125916D01*
X177320257Y-96125916D01*
X177320258Y-96125916D01*
X177359491Y-96122483D01*
X177555665Y-96105320D01*
X177783920Y-96044160D01*
X177998087Y-95944292D01*
X178191658Y-95808752D01*
X178358752Y-95641658D01*
X178494292Y-95448087D01*
X178594160Y-95233920D01*
X178655320Y-95005665D01*
X178675916Y-94770257D01*
X178655320Y-94534849D01*
X178597158Y-94317784D01*
X178594162Y-94306601D01*
X178594161Y-94306600D01*
X178594160Y-94306594D01*
X178494292Y-94092428D01*
X178475682Y-94065849D01*
X178358751Y-93898854D01*
X178191659Y-93731763D01*
X178191652Y-93731758D01*
X177998091Y-93596224D01*
X177998087Y-93596222D01*
X177893508Y-93547456D01*
X177783920Y-93496354D01*
X177783916Y-93496353D01*
X177783912Y-93496351D01*
X177555670Y-93435195D01*
X177555660Y-93435193D01*
X177320258Y-93414598D01*
X177320256Y-93414598D01*
X177084853Y-93435193D01*
X177084843Y-93435195D01*
X176984155Y-93462174D01*
X176914305Y-93460511D01*
X176856442Y-93421348D01*
X176828939Y-93357119D01*
X176832286Y-93310310D01*
X176859268Y-93209613D01*
X176879864Y-92974205D01*
X176859268Y-92738797D01*
X176798108Y-92510542D01*
X176698240Y-92296376D01*
X176656622Y-92236938D01*
X176562699Y-92102802D01*
X176395607Y-91935711D01*
X176395600Y-91935706D01*
X176390537Y-91932161D01*
X176356726Y-91908486D01*
X176202039Y-91800172D01*
X176202035Y-91800170D01*
X176164847Y-91782829D01*
X175987868Y-91700302D01*
X175987864Y-91700301D01*
X175987860Y-91700299D01*
X175759618Y-91639143D01*
X175759608Y-91639141D01*
X175524206Y-91618546D01*
X175524204Y-91618546D01*
X175288801Y-91639141D01*
X175288788Y-91639144D01*
X175188104Y-91666121D01*
X175118254Y-91664458D01*
X175060392Y-91625294D01*
X175032889Y-91561066D01*
X175036237Y-91514253D01*
X175039606Y-91501679D01*
X175063217Y-91413562D01*
X175083813Y-91178154D01*
X175063217Y-90942746D01*
X175002057Y-90714491D01*
X174902189Y-90500325D01*
X174872370Y-90457738D01*
X174766648Y-90306751D01*
X174599556Y-90139660D01*
X174599549Y-90139655D01*
X174405988Y-90004121D01*
X174405984Y-90004119D01*
X174301403Y-89955352D01*
X174191817Y-89904251D01*
X174191813Y-89904250D01*
X174191809Y-89904248D01*
X173963567Y-89843092D01*
X173963557Y-89843090D01*
X173728155Y-89822495D01*
X173728153Y-89822495D01*
X173492750Y-89843090D01*
X173492737Y-89843093D01*
X173392053Y-89870070D01*
X173322203Y-89868407D01*
X173264341Y-89829243D01*
X173236838Y-89765015D01*
X173240186Y-89718202D01*
X173253425Y-89668793D01*
X173267166Y-89617511D01*
X173287762Y-89382103D01*
X173267166Y-89146695D01*
X173206006Y-88918440D01*
X173106138Y-88704274D01*
X173093960Y-88686881D01*
X172970597Y-88510700D01*
X172803505Y-88343609D01*
X172803498Y-88343604D01*
X172609937Y-88208070D01*
X172609933Y-88208068D01*
X172505352Y-88159301D01*
X172395766Y-88108200D01*
X172395762Y-88108199D01*
X172395758Y-88108197D01*
X172167516Y-88047041D01*
X172167506Y-88047039D01*
X171932104Y-88026444D01*
X171932102Y-88026444D01*
X171696699Y-88047039D01*
X171696686Y-88047042D01*
X171596002Y-88074019D01*
X171526152Y-88072356D01*
X171468290Y-88033192D01*
X171440787Y-87968964D01*
X171444135Y-87922151D01*
X171471115Y-87821460D01*
X171491711Y-87586052D01*
X171471115Y-87350644D01*
X171414381Y-87138907D01*
X171409957Y-87122396D01*
X171409956Y-87122395D01*
X171409955Y-87122389D01*
X171310087Y-86908223D01*
X171304972Y-86900917D01*
X171174546Y-86714649D01*
X171007454Y-86547558D01*
X171007447Y-86547553D01*
X171006387Y-86546811D01*
X170963982Y-86517118D01*
X170813886Y-86412019D01*
X170813882Y-86412017D01*
X170599715Y-86312149D01*
X170599711Y-86312148D01*
X170599707Y-86312146D01*
X170371465Y-86250990D01*
X170371455Y-86250988D01*
X170136053Y-86230393D01*
X170136051Y-86230393D01*
X169900648Y-86250988D01*
X169900638Y-86250990D01*
X169799950Y-86277969D01*
X169730100Y-86276306D01*
X169672237Y-86237143D01*
X169644734Y-86172914D01*
X169648081Y-86126105D01*
X169675063Y-86025408D01*
X169695659Y-85790000D01*
X169675063Y-85554592D01*
X169624558Y-85366102D01*
X169613905Y-85326344D01*
X169613904Y-85326343D01*
X169613903Y-85326337D01*
X169514035Y-85112171D01*
X169503990Y-85097824D01*
X169378494Y-84918597D01*
X169211402Y-84751506D01*
X169211395Y-84751501D01*
X169210190Y-84750657D01*
X174542102Y-84750657D01*
X174582812Y-84915828D01*
X174661865Y-85066451D01*
X174689649Y-85097812D01*
X174774673Y-85193785D01*
X174864920Y-85256078D01*
X174914670Y-85290419D01*
X174914671Y-85290419D01*
X174914672Y-85290420D01*
X175073730Y-85350742D01*
X175149630Y-85359958D01*
X175200228Y-85366102D01*
X175200230Y-85366102D01*
X175284976Y-85366102D01*
X175327140Y-85360982D01*
X175411474Y-85350742D01*
X175570532Y-85290420D01*
X175710531Y-85193785D01*
X175823336Y-85066454D01*
X175835183Y-85043883D01*
X175898037Y-84924124D01*
X175902392Y-84915827D01*
X175943102Y-84750658D01*
X175943102Y-84580546D01*
X175902392Y-84415377D01*
X175873915Y-84361119D01*
X175823338Y-84264752D01*
X175770238Y-84204815D01*
X175710531Y-84137419D01*
X175635098Y-84085351D01*
X175570533Y-84040784D01*
X175411476Y-83980462D01*
X175411470Y-83980461D01*
X175284976Y-83965102D01*
X175284974Y-83965102D01*
X175200230Y-83965102D01*
X175200228Y-83965102D01*
X175073733Y-83980461D01*
X175073727Y-83980462D01*
X174914670Y-84040784D01*
X174774674Y-84137418D01*
X174661865Y-84264752D01*
X174582812Y-84415375D01*
X174542102Y-84580546D01*
X174542102Y-84750657D01*
X169210190Y-84750657D01*
X169017834Y-84615967D01*
X169017830Y-84615965D01*
X168913249Y-84567198D01*
X168803663Y-84516097D01*
X168803659Y-84516096D01*
X168803655Y-84516094D01*
X168575413Y-84454938D01*
X168575403Y-84454936D01*
X168340001Y-84434341D01*
X168339999Y-84434341D01*
X168104596Y-84454936D01*
X168104583Y-84454939D01*
X168003899Y-84481916D01*
X167934049Y-84480253D01*
X167876187Y-84441089D01*
X167848684Y-84376861D01*
X167852032Y-84330048D01*
X167879012Y-84229357D01*
X167899608Y-83993949D01*
X167879012Y-83758541D01*
X167817852Y-83530286D01*
X167717984Y-83316120D01*
X167588071Y-83130583D01*
X167582443Y-83122546D01*
X167415351Y-82955455D01*
X167415344Y-82955450D01*
X167221783Y-82819916D01*
X167221779Y-82819914D01*
X167007612Y-82720046D01*
X167007608Y-82720045D01*
X167007604Y-82720043D01*
X166779362Y-82658887D01*
X166779352Y-82658885D01*
X166543950Y-82638290D01*
X166543947Y-82638290D01*
X166500901Y-82642056D01*
X166432401Y-82628289D01*
X166382218Y-82579674D01*
X166366285Y-82511645D01*
X166377300Y-82467016D01*
X166389117Y-82441142D01*
X166435145Y-82340355D01*
X166455626Y-82197898D01*
X166435145Y-82055441D01*
X166433596Y-82052050D01*
X166375358Y-81924527D01*
X166375357Y-81924526D01*
X166375357Y-81924525D01*
X166337738Y-81877842D01*
X166337733Y-81877837D01*
X166337729Y-81877832D01*
X165067957Y-80608063D01*
X165067951Y-80608058D01*
X165067139Y-80607403D01*
X165021271Y-80570438D01*
X164890357Y-80510651D01*
X164890353Y-80510650D01*
X164747898Y-80490170D01*
X164605442Y-80510650D01*
X164605438Y-80510651D01*
X164474527Y-80570437D01*
X164427832Y-80608066D01*
X163158063Y-81877838D01*
X163158054Y-81877848D01*
X163120438Y-81924524D01*
X163060651Y-82055438D01*
X163060650Y-82055442D01*
X163040170Y-82197898D01*
X161786692Y-82197898D01*
X161847771Y-82136819D01*
X161909094Y-82103334D01*
X161935452Y-82100500D01*
X161994644Y-82100500D01*
X161994646Y-82100500D01*
X162179803Y-82061144D01*
X162352730Y-81984151D01*
X162505871Y-81872888D01*
X162632533Y-81732216D01*
X162727179Y-81568284D01*
X162785674Y-81388256D01*
X162803321Y-81220344D01*
X162829904Y-81155734D01*
X162838951Y-81145638D01*
X163727204Y-80257385D01*
X163745191Y-80242507D01*
X163749728Y-80239424D01*
X163751937Y-80237923D01*
X163788622Y-80196311D01*
X163793924Y-80190665D01*
X163805120Y-80179471D01*
X163805120Y-80179469D01*
X163810482Y-80174109D01*
X163810497Y-80174091D01*
X165152771Y-78831819D01*
X165214094Y-78798334D01*
X165240452Y-78795500D01*
X167174773Y-78795500D01*
X167241812Y-78815185D01*
X167276348Y-78848377D01*
X167411505Y-79041401D01*
X167578599Y-79208495D01*
X167771624Y-79343653D01*
X167815248Y-79398228D01*
X167824500Y-79445226D01*
X167824500Y-80327255D01*
X167822775Y-80342872D01*
X167823061Y-80342899D01*
X167822326Y-80350665D01*
X167824439Y-80417872D01*
X167824500Y-80421767D01*
X167824500Y-80449357D01*
X167825003Y-80453335D01*
X167825918Y-80464967D01*
X167827290Y-80508624D01*
X167827291Y-80508627D01*
X167832880Y-80527867D01*
X167836824Y-80546911D01*
X167837265Y-80550395D01*
X167839336Y-80566792D01*
X167855414Y-80607403D01*
X167859197Y-80618452D01*
X167871381Y-80660388D01*
X167881580Y-80677634D01*
X167890138Y-80695103D01*
X167897514Y-80713732D01*
X167923181Y-80749060D01*
X167929593Y-80758821D01*
X167951828Y-80796417D01*
X167951833Y-80796424D01*
X167965990Y-80810580D01*
X167978628Y-80825376D01*
X167990405Y-80841586D01*
X167990406Y-80841587D01*
X168024057Y-80869425D01*
X168032698Y-80877288D01*
X170024595Y-82869186D01*
X170034420Y-82881449D01*
X170034641Y-82881267D01*
X170039609Y-82887272D01*
X170088620Y-82933297D01*
X170091419Y-82936010D01*
X170110920Y-82955512D01*
X170110924Y-82955515D01*
X170110927Y-82955518D01*
X170114100Y-82957979D01*
X170122972Y-82965557D01*
X170154816Y-82995460D01*
X170172374Y-83005112D01*
X170188631Y-83015791D01*
X170204462Y-83028071D01*
X170234201Y-83040940D01*
X170244550Y-83045419D01*
X170255039Y-83050558D01*
X170278855Y-83063650D01*
X170293306Y-83071595D01*
X170305921Y-83074833D01*
X170312703Y-83076575D01*
X170331117Y-83082879D01*
X170349502Y-83090836D01*
X170392659Y-83097671D01*
X170404054Y-83100030D01*
X170446379Y-83110898D01*
X170466414Y-83110898D01*
X170485811Y-83112424D01*
X170505594Y-83115558D01*
X170549073Y-83111448D01*
X170560742Y-83110898D01*
X171258205Y-83110898D01*
X171325244Y-83130583D01*
X171370999Y-83183387D01*
X171376136Y-83196579D01*
X171410217Y-83301470D01*
X171410219Y-83301474D01*
X171504865Y-83465406D01*
X171626053Y-83599999D01*
X171631527Y-83606078D01*
X171784663Y-83717338D01*
X171784668Y-83717341D01*
X171957590Y-83794332D01*
X171957595Y-83794334D01*
X172142752Y-83833690D01*
X172142753Y-83833690D01*
X172332042Y-83833690D01*
X172332044Y-83833690D01*
X172517201Y-83794334D01*
X172690128Y-83717341D01*
X172843269Y-83606078D01*
X172969931Y-83465406D01*
X173064577Y-83301474D01*
X173123072Y-83121446D01*
X173142858Y-82933190D01*
X173123072Y-82744934D01*
X173064577Y-82564906D01*
X172969931Y-82400974D01*
X172843269Y-82260302D01*
X172831202Y-82251535D01*
X172788538Y-82196207D01*
X172782559Y-82126594D01*
X172811273Y-82068991D01*
X172818132Y-82061250D01*
X172821181Y-82055442D01*
X172864337Y-81973215D01*
X172897188Y-81910623D01*
X172937898Y-81745454D01*
X172937898Y-81575342D01*
X172897188Y-81410173D01*
X172885685Y-81388256D01*
X172818134Y-81259548D01*
X172791793Y-81229815D01*
X172705327Y-81132215D01*
X172655575Y-81097873D01*
X172565329Y-81035580D01*
X172406272Y-80975258D01*
X172406266Y-80975257D01*
X172279772Y-80959898D01*
X172279770Y-80959898D01*
X172195026Y-80959898D01*
X172195024Y-80959898D01*
X172068529Y-80975257D01*
X172068523Y-80975258D01*
X171909466Y-81035580D01*
X171769470Y-81132214D01*
X171656661Y-81259548D01*
X171577608Y-81410171D01*
X171536898Y-81575342D01*
X171536898Y-81735898D01*
X171517213Y-81802937D01*
X171464409Y-81848692D01*
X171412898Y-81859898D01*
X170835850Y-81859898D01*
X170768811Y-81840213D01*
X170748169Y-81823579D01*
X170610975Y-81686385D01*
X170577490Y-81625062D01*
X170582474Y-81555370D01*
X170610975Y-81511023D01*
X170733742Y-81388256D01*
X171835889Y-80286107D01*
X171873510Y-80239424D01*
X171933298Y-80108508D01*
X171953779Y-79966051D01*
X171933298Y-79823594D01*
X171929282Y-79814801D01*
X171873511Y-79692680D01*
X171873510Y-79692679D01*
X171873510Y-79692678D01*
X171835891Y-79645995D01*
X171835886Y-79645990D01*
X171835882Y-79645985D01*
X170566110Y-78376216D01*
X170566104Y-78376211D01*
X170555875Y-78367967D01*
X170519424Y-78338591D01*
X170388510Y-78278804D01*
X170388506Y-78278803D01*
X170246051Y-78258323D01*
X170103595Y-78278803D01*
X170103587Y-78278805D01*
X169976931Y-78336648D01*
X169907773Y-78346592D01*
X169844217Y-78317567D01*
X169806443Y-78258789D01*
X169801892Y-78213049D01*
X169805659Y-78170000D01*
X169785063Y-77934592D01*
X169723903Y-77706337D01*
X169624035Y-77492171D01*
X169623652Y-77491623D01*
X169488494Y-77298597D01*
X169321402Y-77131506D01*
X169321395Y-77131501D01*
X169127834Y-76995967D01*
X169127830Y-76995965D01*
X169127828Y-76995964D01*
X168913663Y-76896097D01*
X168913659Y-76896096D01*
X168913655Y-76896094D01*
X168685413Y-76834938D01*
X168685403Y-76834936D01*
X168450001Y-76814341D01*
X168449999Y-76814341D01*
X168214596Y-76834936D01*
X168214586Y-76834938D01*
X167986344Y-76896094D01*
X167986335Y-76896098D01*
X167772171Y-76995964D01*
X167772169Y-76995965D01*
X167578597Y-77131505D01*
X167411505Y-77298597D01*
X167276348Y-77491623D01*
X167221771Y-77535248D01*
X167174773Y-77544500D01*
X165012743Y-77544500D01*
X164997122Y-77542775D01*
X164997095Y-77543061D01*
X164989333Y-77542326D01*
X164922113Y-77544439D01*
X164918219Y-77544500D01*
X164890650Y-77544500D01*
X164886673Y-77545002D01*
X164875042Y-77545917D01*
X164831374Y-77547289D01*
X164831368Y-77547290D01*
X164812126Y-77552880D01*
X164793087Y-77556823D01*
X164773217Y-77559334D01*
X164773203Y-77559337D01*
X164732598Y-77575413D01*
X164721554Y-77579194D01*
X164679614Y-77591379D01*
X164679610Y-77591381D01*
X164662366Y-77601579D01*
X164644905Y-77610133D01*
X164626274Y-77617510D01*
X164626262Y-77617517D01*
X164590933Y-77643185D01*
X164581173Y-77649596D01*
X164543580Y-77671829D01*
X164529414Y-77685995D01*
X164514624Y-77698627D01*
X164498414Y-77710404D01*
X164498411Y-77710407D01*
X164470573Y-77744058D01*
X164462711Y-77752697D01*
X163847181Y-78368228D01*
X163785858Y-78401713D01*
X163716167Y-78396729D01*
X163660233Y-78354858D01*
X163635816Y-78289393D01*
X163635500Y-78280547D01*
X163635500Y-74778687D01*
X163655185Y-74711648D01*
X163667350Y-74695715D01*
X163690836Y-74669631D01*
X163742533Y-74612216D01*
X163837179Y-74448284D01*
X163895674Y-74268256D01*
X163915460Y-74080000D01*
X163895674Y-73891744D01*
X163837179Y-73711716D01*
X163742533Y-73547784D01*
X163615871Y-73407112D01*
X163615870Y-73407111D01*
X163462734Y-73295851D01*
X163462729Y-73295848D01*
X163289807Y-73218857D01*
X163289802Y-73218855D01*
X163144001Y-73187865D01*
X163104646Y-73179500D01*
X162915354Y-73179500D01*
X162882897Y-73186398D01*
X162730197Y-73218855D01*
X162730192Y-73218857D01*
X162557270Y-73295848D01*
X162557265Y-73295851D01*
X162404129Y-73407111D01*
X162277466Y-73547785D01*
X162182821Y-73711715D01*
X162182818Y-73711722D01*
X162124327Y-73891740D01*
X162124326Y-73891744D01*
X162104540Y-74080000D01*
X162124326Y-74268256D01*
X162124327Y-74268259D01*
X162182818Y-74448277D01*
X162182821Y-74448284D01*
X162277467Y-74612216D01*
X162292073Y-74628437D01*
X162352650Y-74695715D01*
X162382880Y-74758706D01*
X162384500Y-74778687D01*
X162384500Y-79357255D01*
X162382775Y-79372872D01*
X162383061Y-79372899D01*
X162382326Y-79380665D01*
X162384439Y-79447872D01*
X162384500Y-79451767D01*
X162384500Y-79479357D01*
X162385003Y-79483335D01*
X162385918Y-79494967D01*
X162387290Y-79538624D01*
X162388105Y-79541431D01*
X162392880Y-79557867D01*
X162396824Y-79576911D01*
X162399336Y-79596792D01*
X162415414Y-79637403D01*
X162419197Y-79648453D01*
X162432001Y-79692525D01*
X162431802Y-79762395D01*
X162400606Y-79814801D01*
X161987680Y-80227727D01*
X161926357Y-80261212D01*
X161856665Y-80256228D01*
X161812318Y-80227727D01*
X161725307Y-80140716D01*
X161706256Y-80116156D01*
X161701732Y-80108506D01*
X161685283Y-80080692D01*
X161685279Y-80080688D01*
X161685276Y-80080684D01*
X161671118Y-80066526D01*
X161658483Y-80051733D01*
X161646706Y-80035525D01*
X161613058Y-80007689D01*
X161604417Y-79999826D01*
X161240803Y-79636212D01*
X161230980Y-79623950D01*
X161230759Y-79624134D01*
X161225786Y-79618122D01*
X161176776Y-79572099D01*
X161173977Y-79569386D01*
X161154477Y-79549885D01*
X161154471Y-79549880D01*
X161151286Y-79547409D01*
X161142434Y-79539848D01*
X161110582Y-79509938D01*
X161110580Y-79509936D01*
X161110577Y-79509935D01*
X161093029Y-79500288D01*
X161076763Y-79489604D01*
X161060932Y-79477324D01*
X161020849Y-79459978D01*
X161010363Y-79454841D01*
X160972094Y-79433803D01*
X160972092Y-79433802D01*
X160952693Y-79428822D01*
X160934281Y-79422518D01*
X160915898Y-79414562D01*
X160915892Y-79414560D01*
X160872760Y-79407729D01*
X160861322Y-79405361D01*
X160819020Y-79394500D01*
X160819019Y-79394500D01*
X160798984Y-79394500D01*
X160779586Y-79392973D01*
X160772162Y-79391797D01*
X160759805Y-79389840D01*
X160759804Y-79389840D01*
X160716325Y-79393950D01*
X160704656Y-79394500D01*
X158467952Y-79394500D01*
X158400913Y-79374815D01*
X158380271Y-79358181D01*
X151524553Y-72502462D01*
X151514730Y-72490200D01*
X151514509Y-72490384D01*
X151509536Y-72484372D01*
X151460526Y-72438349D01*
X151457727Y-72435636D01*
X151438227Y-72416135D01*
X151438221Y-72416130D01*
X151435036Y-72413659D01*
X151426184Y-72406098D01*
X151394332Y-72376188D01*
X151394330Y-72376186D01*
X151394327Y-72376185D01*
X151376779Y-72366538D01*
X151360513Y-72355854D01*
X151344682Y-72343574D01*
X151304599Y-72326228D01*
X151294113Y-72321091D01*
X151255844Y-72300053D01*
X151255842Y-72300052D01*
X151236443Y-72295072D01*
X151218031Y-72288768D01*
X151199648Y-72280812D01*
X151199642Y-72280810D01*
X151156510Y-72273979D01*
X151145072Y-72271611D01*
X151102770Y-72260750D01*
X151102769Y-72260750D01*
X151082734Y-72260750D01*
X151063336Y-72259223D01*
X151055912Y-72258047D01*
X151043555Y-72256090D01*
X151043554Y-72256090D01*
X151000075Y-72260200D01*
X150988406Y-72260750D01*
X150933748Y-72260750D01*
X150866709Y-72241065D01*
X150841600Y-72219724D01*
X150835873Y-72213364D01*
X150835869Y-72213360D01*
X150682734Y-72102101D01*
X150682729Y-72102098D01*
X150509807Y-72025107D01*
X150509802Y-72025105D01*
X150364001Y-71994115D01*
X150324646Y-71985750D01*
X150324645Y-71985750D01*
X150169091Y-71985750D01*
X150138252Y-71981854D01*
X150126440Y-71978821D01*
X150108032Y-71972518D01*
X150089648Y-71964562D01*
X150089642Y-71964560D01*
X150046510Y-71957729D01*
X150035072Y-71955361D01*
X149992770Y-71944500D01*
X149992769Y-71944500D01*
X149972734Y-71944500D01*
X149953336Y-71942973D01*
X149945912Y-71941797D01*
X149933555Y-71939840D01*
X149933554Y-71939840D01*
X149890075Y-71943950D01*
X149878406Y-71944500D01*
X147124187Y-71944500D01*
X147057148Y-71924815D01*
X147032039Y-71903475D01*
X147030277Y-71901518D01*
X146877142Y-71790259D01*
X146877137Y-71790256D01*
X146704215Y-71713265D01*
X146704210Y-71713263D01*
X146542577Y-71678908D01*
X146519054Y-71673908D01*
X146329762Y-71673908D01*
X146306239Y-71678908D01*
X146144605Y-71713263D01*
X146144600Y-71713265D01*
X145971678Y-71790256D01*
X145971673Y-71790259D01*
X145818538Y-71901518D01*
X145816777Y-71903475D01*
X145815475Y-71904277D01*
X145813707Y-71905869D01*
X145813415Y-71905545D01*
X145757289Y-71940122D01*
X145724629Y-71944500D01*
X143404685Y-71944500D01*
X143337646Y-71924815D01*
X143320597Y-71910326D01*
X143320109Y-71910869D01*
X143315277Y-71906518D01*
X143162142Y-71795259D01*
X143162137Y-71795256D01*
X142989215Y-71718265D01*
X142989210Y-71718263D01*
X142843409Y-71687273D01*
X142804054Y-71678908D01*
X142614762Y-71678908D01*
X142582305Y-71685806D01*
X142429605Y-71718263D01*
X142429600Y-71718265D01*
X142256678Y-71795256D01*
X142256673Y-71795259D01*
X142103538Y-71906518D01*
X142098707Y-71910869D01*
X142097127Y-71909114D01*
X142046780Y-71940125D01*
X142014131Y-71944500D01*
X139553748Y-71944500D01*
X139486709Y-71924815D01*
X139461600Y-71903474D01*
X139455873Y-71897114D01*
X139455869Y-71897110D01*
X139302734Y-71785851D01*
X139302729Y-71785848D01*
X139129807Y-71708857D01*
X139129802Y-71708855D01*
X138965384Y-71673908D01*
X138944646Y-71669500D01*
X138755354Y-71669500D01*
X138734616Y-71673908D01*
X138570197Y-71708855D01*
X138570192Y-71708857D01*
X138397270Y-71785848D01*
X138397265Y-71785851D01*
X138244129Y-71897111D01*
X138117466Y-72037785D01*
X138022821Y-72201715D01*
X138022818Y-72201722D01*
X137966132Y-72376185D01*
X137964326Y-72381744D01*
X137944540Y-72570000D01*
X137964326Y-72758256D01*
X137964327Y-72758259D01*
X138022818Y-72938277D01*
X138022821Y-72938284D01*
X138117467Y-73102216D01*
X138222491Y-73218857D01*
X138244129Y-73242888D01*
X138397265Y-73354148D01*
X138397270Y-73354151D01*
X138570192Y-73431142D01*
X138570197Y-73431144D01*
X138755354Y-73470500D01*
X138755355Y-73470500D01*
X138944644Y-73470500D01*
X138944646Y-73470500D01*
X139129803Y-73431144D01*
X139302730Y-73354151D01*
X139455871Y-73242888D01*
X139461597Y-73236529D01*
X139461600Y-73236526D01*
X139521087Y-73199879D01*
X139553748Y-73195500D01*
X141997190Y-73195500D01*
X142064229Y-73215185D01*
X142089338Y-73236526D01*
X142095066Y-73242888D01*
X142103537Y-73252296D01*
X142103538Y-73252297D01*
X142256673Y-73363556D01*
X142256678Y-73363559D01*
X142429600Y-73440550D01*
X142429605Y-73440552D01*
X142614762Y-73479908D01*
X142614763Y-73479908D01*
X142804052Y-73479908D01*
X142804054Y-73479908D01*
X142989211Y-73440552D01*
X143162138Y-73363559D01*
X143315279Y-73252296D01*
X143329476Y-73236528D01*
X143388961Y-73199880D01*
X143421626Y-73195500D01*
X145716692Y-73195500D01*
X145783731Y-73215185D01*
X145808841Y-73236527D01*
X145814568Y-73242888D01*
X145818538Y-73247297D01*
X145971673Y-73358556D01*
X145971678Y-73358559D01*
X146144600Y-73435550D01*
X146144605Y-73435552D01*
X146329762Y-73474908D01*
X146329763Y-73474908D01*
X146519052Y-73474908D01*
X146519054Y-73474908D01*
X146704211Y-73435552D01*
X146877138Y-73358559D01*
X147030279Y-73247296D01*
X147039973Y-73236529D01*
X147099458Y-73199880D01*
X147132124Y-73195500D01*
X149297146Y-73195500D01*
X149364185Y-73215185D01*
X149404533Y-73257500D01*
X149497465Y-73418464D01*
X149624129Y-73559138D01*
X149777265Y-73670398D01*
X149777267Y-73670399D01*
X149777270Y-73670401D01*
X149807256Y-73683751D01*
X149860491Y-73729000D01*
X149880813Y-73795849D01*
X149861768Y-73863073D01*
X149831132Y-73896296D01*
X149804058Y-73916563D01*
X149717899Y-74031656D01*
X149717895Y-74031663D01*
X149667653Y-74166370D01*
X149667651Y-74166377D01*
X149661250Y-74225905D01*
X149661250Y-74473750D01*
X150357697Y-74473750D01*
X150357697Y-74473749D01*
X150461250Y-74370197D01*
X150792883Y-74038563D01*
X150854206Y-74005078D01*
X150923897Y-74010062D01*
X150957361Y-74031568D01*
X150967064Y-74031568D01*
X151015575Y-74005078D01*
X151085267Y-74010061D01*
X151129616Y-74038563D01*
X151727122Y-74636069D01*
X151760607Y-74697392D01*
X151755623Y-74767084D01*
X151727122Y-74811431D01*
X151211250Y-75327302D01*
X151211250Y-75673750D01*
X151809078Y-75673750D01*
X151809094Y-75673749D01*
X151868622Y-75667348D01*
X151868629Y-75667346D01*
X152003336Y-75617104D01*
X152003343Y-75617100D01*
X152118437Y-75530940D01*
X152118440Y-75530937D01*
X152204600Y-75415843D01*
X152204604Y-75415836D01*
X152254846Y-75281129D01*
X152256630Y-75273582D01*
X152259423Y-75274241D01*
X152280963Y-75222204D01*
X152338346Y-75182341D01*
X152408170Y-75179830D01*
X152465214Y-75212304D01*
X155135426Y-77882517D01*
X157656697Y-80403788D01*
X157666522Y-80416051D01*
X157666743Y-80415869D01*
X157671711Y-80421874D01*
X157671713Y-80421876D01*
X157671714Y-80421877D01*
X157700977Y-80449357D01*
X157720722Y-80467899D01*
X157723521Y-80470612D01*
X157743022Y-80490114D01*
X157743026Y-80490117D01*
X157743029Y-80490120D01*
X157746202Y-80492581D01*
X157755074Y-80500159D01*
X157786918Y-80530062D01*
X157804476Y-80539714D01*
X157820733Y-80550393D01*
X157836564Y-80562673D01*
X157866303Y-80575542D01*
X157876652Y-80580021D01*
X157887141Y-80585160D01*
X157909908Y-80597676D01*
X157925408Y-80606197D01*
X157932688Y-80608066D01*
X157944805Y-80611177D01*
X157963219Y-80617481D01*
X157981604Y-80625438D01*
X158024761Y-80632273D01*
X158036156Y-80634632D01*
X158078481Y-80645500D01*
X158098516Y-80645500D01*
X158117913Y-80647026D01*
X158137696Y-80650160D01*
X158181175Y-80646050D01*
X158192844Y-80645500D01*
X160429548Y-80645500D01*
X160496587Y-80665185D01*
X160517223Y-80681813D01*
X160648921Y-80813512D01*
X160667967Y-80838066D01*
X160688941Y-80873530D01*
X160688946Y-80873537D01*
X160703103Y-80887693D01*
X160715741Y-80902489D01*
X160727518Y-80918699D01*
X160727519Y-80918700D01*
X160761170Y-80946538D01*
X160769800Y-80954390D01*
X160927728Y-81112319D01*
X160961212Y-81173641D01*
X160956228Y-81243333D01*
X160927727Y-81287680D01*
X158337869Y-83877539D01*
X158276546Y-83911024D01*
X158206854Y-83906040D01*
X158150921Y-83864168D01*
X158126504Y-83798704D01*
X158126866Y-83776906D01*
X158145460Y-83600000D01*
X158125674Y-83411744D01*
X158067179Y-83231716D01*
X158046893Y-83196579D01*
X158007113Y-83127677D01*
X157990500Y-83065677D01*
X157990500Y-82213705D01*
X157991809Y-82195735D01*
X157992800Y-82188970D01*
X157995289Y-82171977D01*
X157990972Y-82122630D01*
X157990500Y-82111822D01*
X157990500Y-82106296D01*
X157990500Y-82106291D01*
X157986901Y-82075509D01*
X157986536Y-82071929D01*
X157979999Y-81997201D01*
X157978539Y-81990129D01*
X157978597Y-81990116D01*
X157976965Y-81982757D01*
X157976906Y-81982772D01*
X157975241Y-81975751D01*
X157975241Y-81975745D01*
X157949569Y-81905212D01*
X157948421Y-81901909D01*
X157924814Y-81830666D01*
X157924810Y-81830659D01*
X157921760Y-81824118D01*
X157921815Y-81824091D01*
X157918533Y-81817313D01*
X157918480Y-81817340D01*
X157915235Y-81810880D01*
X157874025Y-81748223D01*
X157872086Y-81745181D01*
X157864088Y-81732214D01*
X157832712Y-81681345D01*
X157832711Y-81681344D01*
X157832710Y-81681342D01*
X157828234Y-81675682D01*
X157828281Y-81675644D01*
X157823519Y-81669799D01*
X157823474Y-81669838D01*
X157818831Y-81664305D01*
X157764272Y-81612831D01*
X157761685Y-81610318D01*
X153715729Y-77564361D01*
X153703949Y-77550730D01*
X153689610Y-77531470D01*
X153651651Y-77499619D01*
X153643686Y-77492318D01*
X153639780Y-77488411D01*
X153615443Y-77469168D01*
X153612647Y-77466890D01*
X153555214Y-77418698D01*
X153549180Y-77414729D01*
X153549212Y-77414680D01*
X153542853Y-77410628D01*
X153542822Y-77410679D01*
X153536680Y-77406891D01*
X153536678Y-77406890D01*
X153536677Y-77406889D01*
X153468688Y-77375184D01*
X153465447Y-77373615D01*
X153434530Y-77358088D01*
X153398433Y-77339960D01*
X153398431Y-77339959D01*
X153398430Y-77339959D01*
X153391645Y-77337489D01*
X153391665Y-77337433D01*
X153384549Y-77334959D01*
X153384531Y-77335015D01*
X153377674Y-77332743D01*
X153304210Y-77317573D01*
X153300693Y-77316793D01*
X153227718Y-77299499D01*
X153220547Y-77298661D01*
X153220553Y-77298601D01*
X153213055Y-77297835D01*
X153213050Y-77297895D01*
X153205860Y-77297265D01*
X153130870Y-77299448D01*
X153127263Y-77299500D01*
X152884311Y-77299500D01*
X152817272Y-77279815D01*
X152796630Y-77263181D01*
X152407446Y-76873997D01*
X152017811Y-76484361D01*
X152006031Y-76470730D01*
X151991692Y-76451470D01*
X151953733Y-76419619D01*
X151945768Y-76412318D01*
X151941862Y-76408411D01*
X151917525Y-76389168D01*
X151914729Y-76386890D01*
X151857296Y-76338698D01*
X151851262Y-76334729D01*
X151851294Y-76334680D01*
X151844935Y-76330628D01*
X151844904Y-76330679D01*
X151838762Y-76326891D01*
X151838760Y-76326890D01*
X151838759Y-76326889D01*
X151770770Y-76295184D01*
X151767529Y-76293615D01*
X151736612Y-76278088D01*
X151700515Y-76259960D01*
X151700513Y-76259959D01*
X151700512Y-76259959D01*
X151693727Y-76257489D01*
X151693747Y-76257433D01*
X151686631Y-76254959D01*
X151686613Y-76255015D01*
X151679756Y-76252743D01*
X151606292Y-76237573D01*
X151602775Y-76236793D01*
X151529800Y-76219499D01*
X151522629Y-76218661D01*
X151522635Y-76218601D01*
X151515137Y-76217835D01*
X151515132Y-76217895D01*
X151507942Y-76217265D01*
X151432952Y-76219448D01*
X151429345Y-76219500D01*
X148779337Y-76219500D01*
X148712298Y-76199815D01*
X148706452Y-76195818D01*
X148692734Y-76185851D01*
X148692729Y-76185848D01*
X148519807Y-76108857D01*
X148519802Y-76108855D01*
X148374001Y-76077865D01*
X148334646Y-76069500D01*
X148334645Y-76069500D01*
X148278295Y-76069500D01*
X148211256Y-76049815D01*
X148193411Y-76035892D01*
X148146776Y-75992099D01*
X148143977Y-75989386D01*
X148124477Y-75969885D01*
X148124471Y-75969880D01*
X148121286Y-75967409D01*
X148112434Y-75959848D01*
X148080582Y-75929938D01*
X148080580Y-75929936D01*
X148080577Y-75929935D01*
X148063029Y-75920288D01*
X148046763Y-75909604D01*
X148030935Y-75897326D01*
X148026122Y-75894480D01*
X147978440Y-75843409D01*
X147965939Y-75774667D01*
X147992587Y-75710078D01*
X148049924Y-75670150D01*
X148085791Y-75664312D01*
X148085786Y-75664209D01*
X148085775Y-75664106D01*
X148085780Y-75664105D01*
X148085771Y-75663927D01*
X148089094Y-75663749D01*
X148148622Y-75657348D01*
X148148629Y-75657346D01*
X148283336Y-75607104D01*
X148283343Y-75607100D01*
X148398437Y-75520940D01*
X148398440Y-75520937D01*
X148484600Y-75405843D01*
X148484604Y-75405836D01*
X148534846Y-75271129D01*
X148534848Y-75271122D01*
X148541249Y-75211594D01*
X148541250Y-75211577D01*
X148541250Y-74973750D01*
X149661250Y-74973750D01*
X149661250Y-75221594D01*
X149667651Y-75281122D01*
X149667653Y-75281129D01*
X149717895Y-75415836D01*
X149717899Y-75415843D01*
X149804059Y-75530937D01*
X149804062Y-75530940D01*
X149919156Y-75617100D01*
X149919163Y-75617104D01*
X150053870Y-75667346D01*
X150053877Y-75667348D01*
X150113405Y-75673749D01*
X150113422Y-75673750D01*
X150711250Y-75673750D01*
X150711250Y-75327303D01*
X150357697Y-74973750D01*
X149661250Y-74973750D01*
X148541250Y-74973750D01*
X148541250Y-74963750D01*
X147844802Y-74963750D01*
X147409616Y-75398936D01*
X147348293Y-75432421D01*
X147278601Y-75427437D01*
X147245140Y-75405932D01*
X147235435Y-75405932D01*
X147186920Y-75432422D01*
X147117228Y-75427436D01*
X147072883Y-75398936D01*
X146637697Y-74963750D01*
X145941250Y-74963750D01*
X145941250Y-75211594D01*
X145947651Y-75271122D01*
X145947653Y-75271129D01*
X145997895Y-75405836D01*
X145997899Y-75405843D01*
X146084059Y-75520937D01*
X146084062Y-75520940D01*
X146177962Y-75591234D01*
X146219833Y-75647167D01*
X146224817Y-75716859D01*
X146191331Y-75778182D01*
X146130008Y-75811666D01*
X146103651Y-75814500D01*
X145036705Y-75814500D01*
X144969666Y-75794815D01*
X144963827Y-75790824D01*
X144924355Y-75762145D01*
X144895945Y-75741504D01*
X144773421Y-75686952D01*
X144720184Y-75641701D01*
X144699863Y-75574852D01*
X144718909Y-75507629D01*
X144724591Y-75499361D01*
X144794602Y-75405839D01*
X144794604Y-75405836D01*
X144844846Y-75271129D01*
X144844848Y-75271122D01*
X144851249Y-75211594D01*
X144851250Y-75211577D01*
X144851250Y-74963750D01*
X144154802Y-74963750D01*
X143719616Y-75398936D01*
X143658293Y-75432421D01*
X143588601Y-75427437D01*
X143555140Y-75405932D01*
X143545435Y-75405932D01*
X143496920Y-75432422D01*
X143427228Y-75427436D01*
X143382883Y-75398936D01*
X142947697Y-74963750D01*
X142251250Y-74963750D01*
X142251250Y-75211594D01*
X142257651Y-75271122D01*
X142257653Y-75271129D01*
X142307895Y-75405836D01*
X142307899Y-75405843D01*
X142394059Y-75520937D01*
X142394062Y-75520940D01*
X142487962Y-75591234D01*
X142529833Y-75647167D01*
X142534817Y-75716859D01*
X142501331Y-75778182D01*
X142440008Y-75811666D01*
X142413651Y-75814500D01*
X141423830Y-75814500D01*
X141356791Y-75794815D01*
X141350945Y-75790818D01*
X141251927Y-75718877D01*
X141251922Y-75718874D01*
X141073059Y-75639238D01*
X141073913Y-75637318D01*
X141024353Y-75603433D01*
X140997152Y-75539075D01*
X141009063Y-75470228D01*
X141021077Y-75450623D01*
X141054602Y-75405839D01*
X141054604Y-75405836D01*
X141104846Y-75271129D01*
X141104848Y-75271122D01*
X141111249Y-75211594D01*
X141111250Y-75211577D01*
X141111250Y-74963750D01*
X140414802Y-74963750D01*
X139979616Y-75398936D01*
X139918293Y-75432421D01*
X139848601Y-75427437D01*
X139815140Y-75405932D01*
X139805435Y-75405932D01*
X139756920Y-75432422D01*
X139687228Y-75427436D01*
X139642883Y-75398936D01*
X139207697Y-74963750D01*
X138511250Y-74963750D01*
X138511250Y-75211594D01*
X138517651Y-75271122D01*
X138517653Y-75271129D01*
X138567895Y-75405836D01*
X138567899Y-75405843D01*
X138654059Y-75520937D01*
X138654062Y-75520940D01*
X138747962Y-75591234D01*
X138789833Y-75647167D01*
X138794817Y-75716859D01*
X138761331Y-75778182D01*
X138700008Y-75811666D01*
X138673651Y-75814500D01*
X137506258Y-75814500D01*
X137439219Y-75794815D01*
X137414109Y-75773473D01*
X137385871Y-75742112D01*
X137385864Y-75742106D01*
X137232734Y-75630851D01*
X137232729Y-75630848D01*
X137059807Y-75553857D01*
X137059805Y-75553856D01*
X136995331Y-75540151D01*
X136941426Y-75513865D01*
X136938182Y-75511144D01*
X136930182Y-75503814D01*
X136926277Y-75499908D01*
X136901940Y-75480665D01*
X136899144Y-75478387D01*
X136841711Y-75430195D01*
X136835677Y-75426226D01*
X136835709Y-75426177D01*
X136829350Y-75422125D01*
X136829319Y-75422176D01*
X136823177Y-75418388D01*
X136823175Y-75418387D01*
X136823174Y-75418386D01*
X136755185Y-75386681D01*
X136751944Y-75385112D01*
X136721027Y-75369585D01*
X136684930Y-75351457D01*
X136684928Y-75351456D01*
X136684927Y-75351456D01*
X136678142Y-75348986D01*
X136678162Y-75348930D01*
X136671046Y-75346456D01*
X136671028Y-75346512D01*
X136664171Y-75344240D01*
X136590707Y-75329070D01*
X136587190Y-75328290D01*
X136514215Y-75310996D01*
X136507044Y-75310158D01*
X136507050Y-75310098D01*
X136499552Y-75309332D01*
X136499547Y-75309392D01*
X136492357Y-75308762D01*
X136417367Y-75310945D01*
X136413760Y-75310997D01*
X135832154Y-75310997D01*
X135765115Y-75291312D01*
X135759269Y-75287315D01*
X135612734Y-75180851D01*
X135612729Y-75180848D01*
X135439807Y-75103857D01*
X135439802Y-75103855D01*
X135294001Y-75072865D01*
X135254646Y-75064500D01*
X135065354Y-75064500D01*
X135032897Y-75071398D01*
X134880197Y-75103855D01*
X134880192Y-75103857D01*
X134707270Y-75180848D01*
X134707265Y-75180851D01*
X134554129Y-75292111D01*
X134427466Y-75432785D01*
X134332821Y-75596715D01*
X134332818Y-75596722D01*
X134275389Y-75773473D01*
X134274326Y-75776744D01*
X134254540Y-75965000D01*
X134274326Y-76153256D01*
X134274327Y-76153259D01*
X134332818Y-76333277D01*
X134332821Y-76333284D01*
X134427467Y-76497216D01*
X134554129Y-76637888D01*
X134707265Y-76749148D01*
X134707270Y-76749151D01*
X134880192Y-76826142D01*
X134880197Y-76826144D01*
X135065354Y-76865500D01*
X135065355Y-76865500D01*
X135254644Y-76865500D01*
X135254646Y-76865500D01*
X135439803Y-76826144D01*
X135447498Y-76822718D01*
X135497935Y-76811997D01*
X135897807Y-76811997D01*
X135964846Y-76831682D01*
X136005193Y-76873996D01*
X136047467Y-76947216D01*
X136091361Y-76995965D01*
X136174129Y-77087888D01*
X136327265Y-77199148D01*
X136327270Y-77199151D01*
X136500192Y-77276142D01*
X136500197Y-77276144D01*
X136685354Y-77315500D01*
X136685355Y-77315500D01*
X136874644Y-77315500D01*
X136874646Y-77315500D01*
X137059803Y-77276144D01*
X137232730Y-77199151D01*
X137384090Y-77089182D01*
X137449896Y-77065702D01*
X137456975Y-77065500D01*
X140038696Y-77065500D01*
X140105735Y-77085185D01*
X140130846Y-77106528D01*
X140193316Y-77175909D01*
X140193323Y-77175915D01*
X140309088Y-77260023D01*
X140351754Y-77315353D01*
X140357733Y-77384966D01*
X140325127Y-77446761D01*
X140264289Y-77481118D01*
X140245343Y-77483292D01*
X140245394Y-77483869D01*
X140004596Y-77504936D01*
X140004586Y-77504938D01*
X139776344Y-77566094D01*
X139776335Y-77566098D01*
X139562171Y-77665964D01*
X139562169Y-77665965D01*
X139368597Y-77801505D01*
X139201505Y-77968597D01*
X139071575Y-78154158D01*
X139016998Y-78197783D01*
X138947500Y-78204977D01*
X138885145Y-78173454D01*
X138868425Y-78154158D01*
X138738494Y-77968597D01*
X138571402Y-77801506D01*
X138571395Y-77801501D01*
X138377834Y-77665967D01*
X138377830Y-77665965D01*
X138377826Y-77665963D01*
X138163663Y-77566097D01*
X138163659Y-77566096D01*
X138163655Y-77566094D01*
X137935413Y-77504938D01*
X137935403Y-77504936D01*
X137700001Y-77484341D01*
X137699999Y-77484341D01*
X137464596Y-77504936D01*
X137464586Y-77504938D01*
X137236344Y-77566094D01*
X137236335Y-77566098D01*
X137022171Y-77665964D01*
X137022169Y-77665965D01*
X136828597Y-77801505D01*
X136661505Y-77968597D01*
X136531575Y-78154158D01*
X136476998Y-78197783D01*
X136407500Y-78204977D01*
X136345145Y-78173454D01*
X136328425Y-78154158D01*
X136198494Y-77968597D01*
X136031402Y-77801506D01*
X136031395Y-77801501D01*
X135837834Y-77665967D01*
X135837830Y-77665965D01*
X135837826Y-77665963D01*
X135623663Y-77566097D01*
X135623659Y-77566096D01*
X135623655Y-77566094D01*
X135395413Y-77504938D01*
X135395403Y-77504936D01*
X135160001Y-77484341D01*
X135159999Y-77484341D01*
X134924596Y-77504936D01*
X134924586Y-77504938D01*
X134696344Y-77566094D01*
X134696335Y-77566098D01*
X134482171Y-77665964D01*
X134482169Y-77665965D01*
X134288597Y-77801505D01*
X134121505Y-77968597D01*
X133991575Y-78154158D01*
X133936998Y-78197783D01*
X133867500Y-78204977D01*
X133805145Y-78173454D01*
X133788425Y-78154158D01*
X133658494Y-77968597D01*
X133491402Y-77801506D01*
X133491395Y-77801501D01*
X133297834Y-77665967D01*
X133297830Y-77665965D01*
X133297826Y-77665963D01*
X133083663Y-77566097D01*
X133083659Y-77566096D01*
X133083655Y-77566094D01*
X132855413Y-77504938D01*
X132855403Y-77504936D01*
X132620001Y-77484341D01*
X132619999Y-77484341D01*
X132384596Y-77504936D01*
X132384586Y-77504938D01*
X132156344Y-77566094D01*
X132156335Y-77566098D01*
X131942171Y-77665964D01*
X131942169Y-77665965D01*
X131748597Y-77801505D01*
X131581505Y-77968597D01*
X131445965Y-78162169D01*
X131445964Y-78162171D01*
X131346098Y-78376335D01*
X131346094Y-78376344D01*
X131284938Y-78604586D01*
X131284936Y-78604596D01*
X131264341Y-78839999D01*
X131264341Y-78840000D01*
X128089327Y-78840000D01*
X132197037Y-74732290D01*
X139182299Y-74732290D01*
X139212793Y-74799063D01*
X139274547Y-74838750D01*
X139329222Y-74838750D01*
X139381683Y-74823346D01*
X139429754Y-74767869D01*
X139434870Y-74732290D01*
X140182299Y-74732290D01*
X140212793Y-74799063D01*
X140274547Y-74838750D01*
X140329222Y-74838750D01*
X140381683Y-74823346D01*
X140429754Y-74767869D01*
X140434870Y-74732290D01*
X142922299Y-74732290D01*
X142952793Y-74799063D01*
X143014547Y-74838750D01*
X143069222Y-74838750D01*
X143121683Y-74823346D01*
X143169754Y-74767869D01*
X143174870Y-74732290D01*
X143922299Y-74732290D01*
X143952793Y-74799063D01*
X144014547Y-74838750D01*
X144069222Y-74838750D01*
X144121683Y-74823346D01*
X144169754Y-74767869D01*
X144174870Y-74732290D01*
X146612299Y-74732290D01*
X146642793Y-74799063D01*
X146704547Y-74838750D01*
X146759222Y-74838750D01*
X146811683Y-74823346D01*
X146859754Y-74767869D01*
X146864870Y-74732290D01*
X147612299Y-74732290D01*
X147642793Y-74799063D01*
X147704547Y-74838750D01*
X147759222Y-74838750D01*
X147811683Y-74823346D01*
X147859754Y-74767869D01*
X147863432Y-74742290D01*
X150332299Y-74742290D01*
X150362793Y-74809063D01*
X150424547Y-74848750D01*
X150479222Y-74848750D01*
X150531683Y-74833346D01*
X150579754Y-74777869D01*
X150584870Y-74742290D01*
X151332299Y-74742290D01*
X151362793Y-74809063D01*
X151424547Y-74848750D01*
X151479222Y-74848750D01*
X151531683Y-74833346D01*
X151579754Y-74777869D01*
X151590201Y-74705210D01*
X151559707Y-74638437D01*
X151497953Y-74598750D01*
X151443278Y-74598750D01*
X151390817Y-74614154D01*
X151342746Y-74669631D01*
X151332299Y-74742290D01*
X150584870Y-74742290D01*
X150590201Y-74705210D01*
X150559707Y-74638437D01*
X150497953Y-74598750D01*
X150443278Y-74598750D01*
X150390817Y-74614154D01*
X150342746Y-74669631D01*
X150332299Y-74742290D01*
X147863432Y-74742290D01*
X147870201Y-74695210D01*
X147839707Y-74628437D01*
X147777953Y-74588750D01*
X147723278Y-74588750D01*
X147670817Y-74604154D01*
X147622746Y-74659631D01*
X147612299Y-74732290D01*
X146864870Y-74732290D01*
X146870201Y-74695210D01*
X146839707Y-74628437D01*
X146777953Y-74588750D01*
X146723278Y-74588750D01*
X146670817Y-74604154D01*
X146622746Y-74659631D01*
X146612299Y-74732290D01*
X144174870Y-74732290D01*
X144180201Y-74695210D01*
X144149707Y-74628437D01*
X144087953Y-74588750D01*
X144033278Y-74588750D01*
X143980817Y-74604154D01*
X143932746Y-74659631D01*
X143922299Y-74732290D01*
X143174870Y-74732290D01*
X143180201Y-74695210D01*
X143149707Y-74628437D01*
X143087953Y-74588750D01*
X143033278Y-74588750D01*
X142980817Y-74604154D01*
X142932746Y-74659631D01*
X142922299Y-74732290D01*
X140434870Y-74732290D01*
X140440201Y-74695210D01*
X140409707Y-74628437D01*
X140347953Y-74588750D01*
X140293278Y-74588750D01*
X140240817Y-74604154D01*
X140192746Y-74659631D01*
X140182299Y-74732290D01*
X139434870Y-74732290D01*
X139440201Y-74695210D01*
X139409707Y-74628437D01*
X139347953Y-74588750D01*
X139293278Y-74588750D01*
X139240817Y-74604154D01*
X139192746Y-74659631D01*
X139182299Y-74732290D01*
X132197037Y-74732290D01*
X132465577Y-74463750D01*
X138511250Y-74463750D01*
X139207697Y-74463750D01*
X139207697Y-74463749D01*
X139311250Y-74360197D01*
X139561249Y-74110196D01*
X139561250Y-74110195D01*
X139561250Y-73763750D01*
X140061250Y-73763750D01*
X140061250Y-74110196D01*
X140311250Y-74360197D01*
X140414803Y-74463750D01*
X141111250Y-74463750D01*
X142251250Y-74463750D01*
X142947697Y-74463750D01*
X142947697Y-74463749D01*
X143051250Y-74360197D01*
X143301249Y-74110196D01*
X143301250Y-74110195D01*
X143301250Y-73763750D01*
X143801250Y-73763750D01*
X143801250Y-74110196D01*
X144051250Y-74360197D01*
X144154803Y-74463750D01*
X144851250Y-74463750D01*
X145941250Y-74463750D01*
X146637697Y-74463750D01*
X146637697Y-74463749D01*
X146741250Y-74360197D01*
X146991249Y-74110196D01*
X146991250Y-74110195D01*
X146991250Y-73763750D01*
X147491250Y-73763750D01*
X147491250Y-74110196D01*
X147741250Y-74360197D01*
X147844803Y-74463750D01*
X148541250Y-74463750D01*
X148541250Y-74215922D01*
X148541249Y-74215905D01*
X148534848Y-74156377D01*
X148534846Y-74156370D01*
X148484604Y-74021663D01*
X148484600Y-74021656D01*
X148398440Y-73906562D01*
X148398437Y-73906559D01*
X148283343Y-73820399D01*
X148283336Y-73820395D01*
X148148629Y-73770153D01*
X148148622Y-73770151D01*
X148089094Y-73763750D01*
X147491250Y-73763750D01*
X146991250Y-73763750D01*
X146393405Y-73763750D01*
X146333877Y-73770151D01*
X146333870Y-73770153D01*
X146199163Y-73820395D01*
X146199156Y-73820399D01*
X146084062Y-73906559D01*
X146084059Y-73906562D01*
X145997899Y-74021656D01*
X145997895Y-74021663D01*
X145947653Y-74156370D01*
X145947651Y-74156377D01*
X145941250Y-74215905D01*
X145941250Y-74463750D01*
X144851250Y-74463750D01*
X144851250Y-74215922D01*
X144851249Y-74215905D01*
X144844848Y-74156377D01*
X144844846Y-74156370D01*
X144794604Y-74021663D01*
X144794600Y-74021656D01*
X144708440Y-73906562D01*
X144708437Y-73906559D01*
X144593343Y-73820399D01*
X144593336Y-73820395D01*
X144458629Y-73770153D01*
X144458622Y-73770151D01*
X144399094Y-73763750D01*
X143801250Y-73763750D01*
X143301250Y-73763750D01*
X142703405Y-73763750D01*
X142643877Y-73770151D01*
X142643870Y-73770153D01*
X142509163Y-73820395D01*
X142509156Y-73820399D01*
X142394062Y-73906559D01*
X142394059Y-73906562D01*
X142307899Y-74021656D01*
X142307895Y-74021663D01*
X142257653Y-74156370D01*
X142257651Y-74156377D01*
X142251250Y-74215905D01*
X142251250Y-74463750D01*
X141111250Y-74463750D01*
X141111250Y-74215922D01*
X141111249Y-74215905D01*
X141104848Y-74156377D01*
X141104846Y-74156370D01*
X141054604Y-74021663D01*
X141054600Y-74021656D01*
X140968440Y-73906562D01*
X140968437Y-73906559D01*
X140853343Y-73820399D01*
X140853336Y-73820395D01*
X140718629Y-73770153D01*
X140718622Y-73770151D01*
X140659094Y-73763750D01*
X140061250Y-73763750D01*
X139561250Y-73763750D01*
X138963405Y-73763750D01*
X138903877Y-73770151D01*
X138903870Y-73770153D01*
X138769163Y-73820395D01*
X138769156Y-73820399D01*
X138654062Y-73906559D01*
X138654059Y-73906562D01*
X138567899Y-74021656D01*
X138567895Y-74021663D01*
X138517653Y-74156370D01*
X138517651Y-74156377D01*
X138511250Y-74215905D01*
X138511250Y-74463750D01*
X132465577Y-74463750D01*
X135918863Y-71010464D01*
X135922318Y-71007142D01*
X136002987Y-70932570D01*
X136218762Y-70734886D01*
X136225703Y-70728984D01*
X136361243Y-70622131D01*
X136362353Y-70621267D01*
X136546851Y-70479694D01*
X136553368Y-70475024D01*
X136707543Y-70372005D01*
X136709589Y-70370670D01*
X136895094Y-70252488D01*
X136901035Y-70248936D01*
X137066976Y-70156002D01*
X137070146Y-70154289D01*
X137261283Y-70054786D01*
X137266448Y-70052253D01*
X137440851Y-69971850D01*
X137445218Y-69969940D01*
X137643123Y-69887963D01*
X137647602Y-69886210D01*
X137827656Y-69819782D01*
X137833173Y-69817895D01*
X138038682Y-69753096D01*
X138042184Y-69752051D01*
X138225193Y-69700435D01*
X138231938Y-69698738D01*
X138446510Y-69651166D01*
X138449063Y-69650629D01*
X138630878Y-69614462D01*
X138638841Y-69613147D01*
X138869572Y-69582769D01*
X138870553Y-69582646D01*
X139042120Y-69562339D01*
X139051215Y-69561602D01*
X139351051Y-69548507D01*
X139452208Y-69544531D01*
X139457076Y-69544436D01*
X160541821Y-69544436D01*
X160546689Y-69544532D01*
G37*
G04 #@! TD.AperFunction*
M02*
