G04 #@! TF.GenerationSoftware,KiCad,Pcbnew,7.0.10*
G04 #@! TF.CreationDate,2024-07-17T21:57:28-05:00*
G04 #@! TF.ProjectId,Swarm Robot,53776172-6d20-4526-9f62-6f742e6b6963,rev?*
G04 #@! TF.SameCoordinates,Original*
G04 #@! TF.FileFunction,Profile,NP*
%FSLAX46Y46*%
G04 Gerber Fmt 4.6, Leading zero omitted, Abs format (unit mm)*
G04 Created by KiCad (PCBNEW 7.0.10) date 2024-07-17 21:57:28*
%MOMM*%
%LPD*%
G01*
G04 APERTURE LIST*
G04 #@! TA.AperFunction,Profile*
%ADD10C,0.200000*%
G04 #@! TD*
G04 APERTURE END LIST*
D10*
X144000000Y-91000000D02*
G75*
G03*
X141000000Y-94000000I0J-3000000D01*
G01*
X135920219Y-71008402D02*
X121008402Y-85920219D01*
X180456064Y-110544247D02*
X180456064Y-89455753D01*
X178991579Y-114079762D02*
G75*
G03*
X180456064Y-110544247I-3535779J3535662D01*
G01*
X164079781Y-128991598D02*
X178991598Y-114079781D01*
X141000000Y-94000000D02*
X141000000Y-106000000D01*
X160544247Y-130456107D02*
G75*
G03*
X164079780Y-128991597I-47J5000007D01*
G01*
X139455753Y-69543893D02*
G75*
G03*
X135920220Y-71008403I47J-5000007D01*
G01*
X178991598Y-85920219D02*
X164079781Y-71008402D01*
X144000000Y-109000000D02*
X156000000Y-109000000D01*
X164079750Y-71008433D02*
G75*
G03*
X160544247Y-69543936I-3535550J-3535467D01*
G01*
X156000000Y-91000000D02*
X144000000Y-91000000D01*
X121008433Y-85920250D02*
G75*
G03*
X119543936Y-89455753I3535467J-3535550D01*
G01*
X119543936Y-89455753D02*
X119543936Y-110544247D01*
X180456107Y-89455753D02*
G75*
G03*
X178991597Y-85920220I-5000007J-47D01*
G01*
X160544247Y-69543936D02*
X139455753Y-69543936D01*
X141000000Y-106000000D02*
G75*
G03*
X144000000Y-109000000I3000000J0D01*
G01*
X121008402Y-114079781D02*
X135920219Y-128991598D01*
X156000000Y-109000000D02*
G75*
G03*
X159000000Y-106000000I0J3000000D01*
G01*
X159000000Y-94000000D02*
G75*
G03*
X156000000Y-91000000I-3000000J0D01*
G01*
X159000000Y-106000000D02*
X159000000Y-94000000D01*
X119543893Y-110544247D02*
G75*
G03*
X121008403Y-114079780I5000007J47D01*
G01*
X135920250Y-128991567D02*
G75*
G03*
X139455753Y-130456064I3535550J3535467D01*
G01*
X139455753Y-130456064D02*
X160544247Y-130456064D01*
M02*
