G04 #@! TF.GenerationSoftware,KiCad,Pcbnew,7.0.10*
G04 #@! TF.CreationDate,2024-07-17T21:57:28-05:00*
G04 #@! TF.ProjectId,Swarm Robot,53776172-6d20-4526-9f62-6f742e6b6963,rev?*
G04 #@! TF.SameCoordinates,Original*
G04 #@! TF.FileFunction,Soldermask,Bot*
G04 #@! TF.FilePolarity,Negative*
%FSLAX46Y46*%
G04 Gerber Fmt 4.6, Leading zero omitted, Abs format (unit mm)*
G04 Created by KiCad (PCBNEW 7.0.10) date 2024-07-17 21:57:28*
%MOMM*%
%LPD*%
G01*
G04 APERTURE LIST*
G04 Aperture macros list*
%AMRoundRect*
0 Rectangle with rounded corners*
0 $1 Rounding radius*
0 $2 $3 $4 $5 $6 $7 $8 $9 X,Y pos of 4 corners*
0 Add a 4 corners polygon primitive as box body*
4,1,4,$2,$3,$4,$5,$6,$7,$8,$9,$2,$3,0*
0 Add four circle primitives for the rounded corners*
1,1,$1+$1,$2,$3*
1,1,$1+$1,$4,$5*
1,1,$1+$1,$6,$7*
1,1,$1+$1,$8,$9*
0 Add four rect primitives between the rounded corners*
20,1,$1+$1,$2,$3,$4,$5,0*
20,1,$1+$1,$4,$5,$6,$7,0*
20,1,$1+$1,$6,$7,$8,$9,0*
20,1,$1+$1,$8,$9,$2,$3,0*%
%AMHorizOval*
0 Thick line with rounded ends*
0 $1 width*
0 $2 $3 position (X,Y) of the first rounded end (center of the circle)*
0 $4 $5 position (X,Y) of the second rounded end (center of the circle)*
0 Add line between two ends*
20,1,$1,$2,$3,$4,$5,0*
0 Add two circle primitives to create the rounded ends*
1,1,$1,$2,$3*
1,1,$1,$4,$5*%
%AMRotRect*
0 Rectangle, with rotation*
0 The origin of the aperture is its center*
0 $1 length*
0 $2 width*
0 $3 Rotation angle, in degrees counterclockwise*
0 Add horizontal line*
21,1,$1,$2,0,0,$3*%
G04 Aperture macros list end*
%ADD10C,3.200000*%
%ADD11C,0.900000*%
%ADD12C,2.000000*%
%ADD13RoundRect,0.375000X0.875000X0.375000X-0.875000X0.375000X-0.875000X-0.375000X0.875000X-0.375000X0*%
%ADD14R,1.700000X1.700000*%
%ADD15O,1.700000X1.700000*%
%ADD16RotRect,1.700000X1.700000X45.000000*%
%ADD17HorizOval,1.700000X0.000000X0.000000X0.000000X0.000000X0*%
%ADD18RotRect,1.700000X1.700000X225.000000*%
%ADD19HorizOval,1.700000X0.000000X0.000000X0.000000X0.000000X0*%
%ADD20C,3.000000*%
%ADD21RotRect,1.700000X1.700000X315.000000*%
%ADD22HorizOval,1.700000X0.000000X0.000000X0.000000X0.000000X0*%
%ADD23C,1.600000*%
%ADD24O,1.600000X1.600000*%
G04 APERTURE END LIST*
D10*
X160580000Y-87500000D03*
X139430000Y-87500000D03*
D11*
X127754991Y-118342513D03*
X124749787Y-115337309D03*
D12*
X146750000Y-84850000D03*
X153250000Y-84850000D03*
X146750000Y-89350000D03*
X153250000Y-89350000D03*
D11*
X175250213Y-115334009D03*
X172245009Y-118339213D03*
X172100000Y-102150000D03*
X172100000Y-106650000D03*
D13*
X154471000Y-122282750D03*
X154471000Y-120377750D03*
X148916000Y-118032750D03*
D14*
X150400000Y-78840000D03*
D15*
X147860000Y-78840000D03*
X145320000Y-78840000D03*
X142780000Y-78840000D03*
X140240000Y-78840000D03*
X137700000Y-78840000D03*
X135160000Y-78840000D03*
X132620000Y-78840000D03*
D14*
X162530000Y-112275000D03*
D15*
X162530000Y-114815000D03*
D16*
X164747898Y-82197898D03*
D17*
X166543949Y-83993949D03*
X168340000Y-85790000D03*
X170136052Y-87586052D03*
X171932103Y-89382103D03*
X173728154Y-91178154D03*
X175524205Y-92974205D03*
X177320257Y-94770257D03*
X133101148Y-117401148D03*
X131305096Y-115605096D03*
X129509045Y-113809045D03*
D16*
X127712994Y-112012994D03*
D11*
X124930000Y-88630000D03*
X124930000Y-93130000D03*
D18*
X170246051Y-79966051D03*
D19*
X168450000Y-78170000D03*
D11*
X172237398Y-81660398D03*
X175242602Y-84665602D03*
D20*
X138900000Y-95700000D03*
X131500000Y-95700000D03*
D16*
X129873949Y-120073949D03*
D17*
X131670000Y-121870000D03*
D14*
X131730000Y-82600000D03*
D15*
X131730000Y-85140000D03*
D11*
X124749787Y-84665991D03*
X127754991Y-81660787D03*
D21*
X170210000Y-120060000D03*
D22*
X168413949Y-121856051D03*
D14*
X135550000Y-111350000D03*
D15*
X138090000Y-111350000D03*
D11*
X128000000Y-102050000D03*
X128000000Y-106550000D03*
D20*
X161100000Y-95800000D03*
X168500000Y-95800000D03*
D23*
X121270000Y-108560000D03*
D24*
X121270000Y-98400000D03*
D14*
X150000000Y-88375000D03*
D15*
X150000000Y-85835000D03*
M02*
